<svg width="14" height="15" viewBox="0 0 14 15" fill="none" xmlns="http://www.w3.org/2000/svg">
<path d="M12.25 1.65H7.6V1.35H12.25C12.5021 1.35 12.703 1.43276 12.8851 1.61489C13.0672 1.79702 13.15 1.9979 13.15 2.25V12.75C13.15 13.0021 13.0672 13.203 12.8851 13.3851C12.703 13.5672 12.5021 13.65 12.25 13.65H7.6V13.35H12.25H12.85V12.75V2.25V1.65H12.25ZM6.38125 7.65H0.85V7.35H6.38125H7.82978L6.80551 6.32574L5.30616 4.82639L5.51141 4.60994L8.40147 7.5L5.51141 10.3901L5.30616 10.1736L6.80551 8.67426L7.82978 7.65H6.38125Z" stroke="#0B1547" stroke-width="1.2"/>
</svg>
