<svg width="23" height="24" viewBox="0 0 23 24" fill="none" xmlns="http://www.w3.org/2000/svg">
<mask id="path-1-outside-1_2005_186" maskUnits="userSpaceOnUse" x="-0.5" y="0" width="24" height="24" fill="black">
<rect fill="white" x="-0.5" width="24" height="24"/>
<path d="M11.3321 23C11.3025 22.9998 11.2734 22.9924 11.2472 22.9784C11.221 22.9644 11.1985 22.9442 11.1815 22.9195L3.26639 10.9098C3.24356 10.8786 3.23122 10.8406 3.23122 10.8017C3.23122 10.7627 3.24356 10.7248 3.26639 10.6935L3.28367 10.6709C3.30076 10.6497 3.32224 10.6326 3.34656 10.6209C3.37088 10.6092 3.39744 10.603 3.42435 10.603H8.67888C8.71983 10.6026 8.75963 10.6167 8.79156 10.6428C8.82349 10.669 8.84559 10.7055 8.85412 10.7463L11.5073 22.7762C11.5169 22.8181 11.5115 22.8622 11.492 22.9005C11.4725 22.9387 11.4403 22.9687 11.4012 22.9849C11.3794 22.9947 11.3559 22.9998 11.3321 23ZM3.74273 10.9702L10.9495 21.9034L8.5382 10.9702H3.74273Z"/>
<path d="M11.3321 23C11.2912 22.9999 11.2517 22.9856 11.2198 22.9596C11.188 22.9335 11.1658 22.8972 11.1568 22.8566L8.50612 10.8268C8.49997 10.7999 8.49988 10.7718 8.50587 10.7448C8.51185 10.7178 8.52375 10.6925 8.54067 10.6709C8.5575 10.65 8.57857 10.6331 8.60244 10.6214C8.62631 10.6097 8.65239 10.6034 8.67888 10.603H13.9803C14.0072 10.603 14.0338 10.6092 14.0581 10.6209C14.0824 10.6326 14.1039 10.6497 14.121 10.6709C14.1379 10.6925 14.1498 10.7178 14.1558 10.7448C14.1618 10.7718 14.1617 10.7999 14.1555 10.8268L11.5073 22.8566C11.4979 22.897 11.4756 22.9331 11.4439 22.959C11.4121 22.985 11.3728 22.9994 11.3321 23ZM8.90595 10.9702L11.3321 21.9789L13.7557 10.9702H8.90595Z"/>
<path d="M11.3321 23C11.3067 22.9999 11.2815 22.9947 11.258 22.9849C11.2179 22.9696 11.1846 22.94 11.1642 22.9017C11.1438 22.8633 11.1377 22.8187 11.147 22.7762L13.8051 10.7463C13.814 10.7057 13.8362 10.6694 13.8681 10.6434C13.8999 10.6174 13.9395 10.6031 13.9803 10.603H19.5705C19.5954 10.6027 19.6202 10.6077 19.6431 10.6176C19.666 10.6276 19.6867 10.6423 19.7038 10.6608L19.7235 10.6835C19.7507 10.7144 19.767 10.7538 19.7696 10.7953C19.7723 10.8368 19.7613 10.878 19.7383 10.9123L11.4777 22.922C11.4614 22.946 11.4396 22.9656 11.4143 22.9792C11.3889 22.9928 11.3607 22.9999 11.3321 23ZM14.1259 10.9702L11.7072 21.9512L19.2595 10.9702H14.1259Z"/>
<path d="M19.5705 10.9702H13.9803C13.9325 10.9702 13.8867 10.9508 13.8529 10.9164C13.8191 10.882 13.8001 10.8353 13.8001 10.7866V7.12456C13.8001 7.07587 13.8191 7.02917 13.8529 6.99474C13.8867 6.9603 13.9325 6.94096 13.9803 6.94096H16.3299C16.355 6.9413 16.3797 6.94683 16.4026 6.9572C16.4255 6.96758 16.4461 6.98259 16.4632 7.00132L19.7038 10.6633C19.7273 10.6893 19.7429 10.7217 19.7486 10.7565C19.7543 10.7914 19.7499 10.8272 19.7359 10.8595C19.7219 10.8924 19.6988 10.9204 19.6694 10.94C19.64 10.9597 19.6057 10.9702 19.5705 10.9702ZM14.1605 10.603H19.1657L16.2485 7.30817H14.1605V10.603Z"/>
<path d="M13.9803 10.9702H8.67888C8.6311 10.9702 8.58527 10.9508 8.55148 10.9164C8.5177 10.882 8.49871 10.8353 8.49871 10.7866V7.12456C8.49871 7.07587 8.5177 7.02917 8.55148 6.99474C8.58527 6.9603 8.6311 6.94096 8.67888 6.94096H13.9803C14.0281 6.94096 14.0739 6.9603 14.1077 6.99474C14.1415 7.02917 14.1605 7.07587 14.1605 7.12456V10.7866C14.1605 10.8353 14.1415 10.882 14.1077 10.9164C14.0739 10.9508 14.0281 10.9702 13.9803 10.9702ZM8.86152 10.603H13.7977V7.30817H8.86152V10.603Z"/>
<path d="M8.67888 10.9702H3.43176C3.39757 10.9701 3.3641 10.9602 3.33525 10.9415C3.30641 10.9228 3.28338 10.8961 3.26886 10.8645C3.25463 10.8333 3.24917 10.7987 3.25309 10.7645C3.25701 10.7303 3.27016 10.6979 3.29108 10.6709L6.19353 7.00887C6.21062 6.98769 6.2321 6.97062 6.25642 6.95888C6.28074 6.94714 6.3073 6.94102 6.33421 6.94096H8.67888C8.72667 6.94096 8.7725 6.9603 8.80628 6.99474C8.84007 7.02917 8.85905 7.07587 8.85905 7.12456V10.7866C8.85905 10.8353 8.84007 10.882 8.80628 10.9164C8.7725 10.9508 8.72667 10.9702 8.67888 10.9702ZM3.80937 10.603H8.49871V7.30817H6.41813L3.80937 10.603Z"/>
<path d="M10.0536 6.21158C10.0155 6.21108 9.97853 6.1988 9.94747 6.17636C9.91702 6.15309 9.89447 6.1207 9.88296 6.08372C9.87146 6.04674 9.87158 6.00703 9.88331 5.97012L10.4065 4.35793L9.05403 3.36446C9.02274 3.34246 8.99932 3.31069 8.9873 3.27395C8.97528 3.2372 8.97532 3.19746 8.98739 3.16074C8.99918 3.12397 9.02192 3.09187 9.05244 3.06888C9.08296 3.04589 9.11975 3.03316 9.15769 3.03246H10.8212L11.3321 1.42279C11.3433 1.38587 11.3659 1.35366 11.3966 1.33098C11.4274 1.30831 11.4644 1.29639 11.5024 1.29703C11.5403 1.29639 11.5774 1.30831 11.6081 1.33098C11.6388 1.35366 11.6614 1.38587 11.6727 1.42279L12.1836 3.03749H13.8446C13.8829 3.03767 13.9203 3.05016 13.9513 3.07318C13.9823 3.09621 14.0054 3.1286 14.0173 3.16577C14.0294 3.20249 14.0294 3.24223 14.0174 3.27898C14.0054 3.31572 13.982 3.34749 13.9507 3.36949L12.6056 4.36296L13.1214 5.97012C13.1331 6.00703 13.1333 6.04674 13.1218 6.08372C13.1103 6.1207 13.0877 6.15309 13.0573 6.17636C13.0261 6.19855 12.9891 6.21045 12.9511 6.21045C12.9132 6.21045 12.8761 6.19855 12.845 6.17636L11.5024 5.17032L10.1597 6.17636C10.1287 6.1988 10.0917 6.21108 10.0536 6.21158ZM9.71548 3.40219L10.7027 4.13912C10.7339 4.16181 10.7572 4.19403 10.7691 4.23112C10.7811 4.26821 10.7812 4.30823 10.7693 4.34536L10.4065 5.54507L11.3938 4.79053C11.4244 4.76726 11.4617 4.75469 11.4999 4.75469C11.5381 4.75469 11.5754 4.76726 11.606 4.79053L12.5933 5.53249L12.2082 4.3353C12.1964 4.29817 12.1964 4.25815 12.2084 4.22106C12.2204 4.18397 12.2437 4.15175 12.2749 4.12906L13.2769 3.39213H12.0429C12.0088 3.3901 11.976 3.37811 11.9484 3.3576C11.9208 3.33708 11.8997 3.3089 11.8874 3.27643L11.5024 2.07672L11.1223 3.27643C11.1108 3.31339 11.0882 3.34571 11.0576 3.36875C11.027 3.3918 10.99 3.40438 10.952 3.4047L9.71548 3.40219Z"/>
<path d="M7.07957 3.98318C7.05562 3.98324 7.03191 3.97838 7.00986 3.96887C6.9878 3.95936 6.96786 3.94541 6.95123 3.92785L4.38196 1.30961C4.35161 1.27502 4.33483 1.23025 4.33483 1.18385C4.33483 1.13745 4.35161 1.09268 4.38196 1.0581C4.41565 1.02663 4.45968 1.00918 4.50537 1.00918C4.55106 1.00918 4.59509 1.02663 4.62877 1.0581L7.19804 3.66879C7.22945 3.70284 7.24693 3.74781 7.24693 3.79455C7.24693 3.84128 7.22945 3.88625 7.19804 3.9203C7.18357 3.93849 7.16559 3.95345 7.14521 3.96427C7.12483 3.97508 7.10249 3.98152 7.07957 3.98318Z"/>
<path d="M4.23635 7.08935H4.18945L0.667511 6.12103C0.640906 6.11912 0.615048 6.11122 0.591805 6.09789C0.568561 6.08456 0.548512 6.06613 0.533104 6.04395C0.517697 6.02176 0.507315 5.99637 0.502708 5.96959C0.498101 5.94282 0.499384 5.91534 0.506465 5.88914C0.513546 5.86293 0.526248 5.83866 0.543653 5.81806C0.561059 5.79747 0.582734 5.78107 0.607115 5.77005C0.631495 5.75903 0.657973 5.75366 0.684636 5.75433C0.7113 5.75501 0.737484 5.76171 0.761298 5.77394L4.2709 6.73221C4.31007 6.74507 4.34375 6.77121 4.36632 6.80628C4.38889 6.84135 4.39899 6.88324 4.39495 6.92498C4.39092 6.96672 4.37298 7.00579 4.34412 7.03569C4.31526 7.0656 4.27723 7.08454 4.23635 7.08935Z"/>
<path d="M15.9252 3.98318C15.9015 3.9835 15.8781 3.97874 15.8564 3.96921C15.8347 3.95967 15.8153 3.94558 15.7993 3.92785C15.7673 3.89409 15.7494 3.84901 15.7494 3.80209C15.7494 3.75518 15.7673 3.71009 15.7993 3.67633L18.3661 1.04803C18.4 1.0171 18.444 1 18.4895 1C18.535 1 18.5789 1.0171 18.6129 1.04803C18.6432 1.08262 18.66 1.12739 18.66 1.17379C18.66 1.22019 18.6432 1.26496 18.6129 1.29955L16.0535 3.92785C16.037 3.94565 16.0171 3.95976 15.995 3.96928C15.9729 3.97881 15.9491 3.98354 15.9252 3.98318Z"/>
<path d="M18.7807 7.08935C18.7361 7.0907 18.6926 7.07513 18.6586 7.04567C18.6246 7.0162 18.6026 6.97493 18.5968 6.92985C18.5909 6.88476 18.6017 6.83908 18.627 6.80164C18.6523 6.7642 18.6904 6.73766 18.7338 6.72718L22.2533 5.77394C22.2769 5.76439 22.3022 5.76003 22.3275 5.76113C22.3529 5.76224 22.3777 5.76879 22.4004 5.78036C22.4231 5.79193 22.4432 5.80825 22.4592 5.82826C22.4753 5.84827 22.4871 5.87152 22.4937 5.89648C22.5004 5.92143 22.5018 5.94754 22.4978 5.97309C22.4939 5.99864 22.4847 6.02305 22.4708 6.04472C22.457 6.0664 22.4388 6.08485 22.4175 6.09886C22.3962 6.11288 22.3722 6.12215 22.3471 6.12606L18.8276 7.08181C18.8124 7.08675 18.7966 7.0893 18.7807 7.08935Z"/>
<path d="M17.7367 23H5.268C5.22022 23 5.17439 22.9807 5.1406 22.9462C5.10682 22.9118 5.08783 22.8651 5.08783 22.8164C5.08783 22.7677 5.10682 22.721 5.1406 22.6866C5.17439 22.6521 5.22022 22.6328 5.268 22.6328H17.7367C17.7845 22.6328 17.8303 22.6521 17.8641 22.6866C17.8979 22.721 17.9169 22.7677 17.9169 22.8164C17.9169 22.8651 17.8979 22.9118 17.8641 22.9462C17.8303 22.9807 17.7845 23 17.7367 23Z"/>
</mask>
<path d="M11.3321 23C11.3025 22.9998 11.2734 22.9924 11.2472 22.9784C11.221 22.9644 11.1985 22.9442 11.1815 22.9195L3.26639 10.9098C3.24356 10.8786 3.23122 10.8406 3.23122 10.8017C3.23122 10.7627 3.24356 10.7248 3.26639 10.6935L3.28367 10.6709C3.30076 10.6497 3.32224 10.6326 3.34656 10.6209C3.37088 10.6092 3.39744 10.603 3.42435 10.603H8.67888C8.71983 10.6026 8.75963 10.6167 8.79156 10.6428C8.82349 10.669 8.84559 10.7055 8.85412 10.7463L11.5073 22.7762C11.5169 22.8181 11.5115 22.8622 11.492 22.9005C11.4725 22.9387 11.4403 22.9687 11.4012 22.9849C11.3794 22.9947 11.3559 22.9998 11.3321 23ZM3.74273 10.9702L10.9495 21.9034L8.5382 10.9702H3.74273Z" fill="#0B1547"/>
<path d="M11.3321 23C11.2912 22.9999 11.2517 22.9856 11.2198 22.9596C11.188 22.9335 11.1658 22.8972 11.1568 22.8566L8.50612 10.8268C8.49997 10.7999 8.49988 10.7718 8.50587 10.7448C8.51185 10.7178 8.52375 10.6925 8.54067 10.6709C8.5575 10.65 8.57857 10.6331 8.60244 10.6214C8.62631 10.6097 8.65239 10.6034 8.67888 10.603H13.9803C14.0072 10.603 14.0338 10.6092 14.0581 10.6209C14.0824 10.6326 14.1039 10.6497 14.121 10.6709C14.1379 10.6925 14.1498 10.7178 14.1558 10.7448C14.1618 10.7718 14.1617 10.7999 14.1555 10.8268L11.5073 22.8566C11.4979 22.897 11.4756 22.9331 11.4439 22.959C11.4121 22.985 11.3728 22.9994 11.3321 23ZM8.90595 10.9702L11.3321 21.9789L13.7557 10.9702H8.90595Z" fill="#0B1547"/>
<path d="M11.3321 23C11.3067 22.9999 11.2815 22.9947 11.258 22.9849C11.2179 22.9696 11.1846 22.94 11.1642 22.9017C11.1438 22.8633 11.1377 22.8187 11.147 22.7762L13.8051 10.7463C13.814 10.7057 13.8362 10.6694 13.8681 10.6434C13.8999 10.6174 13.9395 10.6031 13.9803 10.603H19.5705C19.5954 10.6027 19.6202 10.6077 19.6431 10.6176C19.666 10.6276 19.6867 10.6423 19.7038 10.6608L19.7235 10.6835C19.7507 10.7144 19.767 10.7538 19.7696 10.7953C19.7723 10.8368 19.7613 10.878 19.7383 10.9123L11.4777 22.922C11.4614 22.946 11.4396 22.9656 11.4143 22.9792C11.3889 22.9928 11.3607 22.9999 11.3321 23ZM14.1259 10.9702L11.7072 21.9512L19.2595 10.9702H14.1259Z" fill="#0B1547"/>
<path d="M19.5705 10.9702H13.9803C13.9325 10.9702 13.8867 10.9508 13.8529 10.9164C13.8191 10.882 13.8001 10.8353 13.8001 10.7866V7.12456C13.8001 7.07587 13.8191 7.02917 13.8529 6.99474C13.8867 6.9603 13.9325 6.94096 13.9803 6.94096H16.3299C16.355 6.9413 16.3797 6.94683 16.4026 6.9572C16.4255 6.96758 16.4461 6.98259 16.4632 7.00132L19.7038 10.6633C19.7273 10.6893 19.7429 10.7217 19.7486 10.7565C19.7543 10.7914 19.7499 10.8272 19.7359 10.8595C19.7219 10.8924 19.6988 10.9204 19.6694 10.94C19.64 10.9597 19.6057 10.9702 19.5705 10.9702ZM14.1605 10.603H19.1657L16.2485 7.30817H14.1605V10.603Z" fill="#0B1547"/>
<path d="M13.9803 10.9702H8.67888C8.6311 10.9702 8.58527 10.9508 8.55148 10.9164C8.5177 10.882 8.49871 10.8353 8.49871 10.7866V7.12456C8.49871 7.07587 8.5177 7.02917 8.55148 6.99474C8.58527 6.9603 8.6311 6.94096 8.67888 6.94096H13.9803C14.0281 6.94096 14.0739 6.9603 14.1077 6.99474C14.1415 7.02917 14.1605 7.07587 14.1605 7.12456V10.7866C14.1605 10.8353 14.1415 10.882 14.1077 10.9164C14.0739 10.9508 14.0281 10.9702 13.9803 10.9702ZM8.86152 10.603H13.7977V7.30817H8.86152V10.603Z" fill="#0B1547"/>
<path d="M8.67888 10.9702H3.43176C3.39757 10.9701 3.3641 10.9602 3.33525 10.9415C3.30641 10.9228 3.28338 10.8961 3.26886 10.8645C3.25463 10.8333 3.24917 10.7987 3.25309 10.7645C3.25701 10.7303 3.27016 10.6979 3.29108 10.6709L6.19353 7.00887C6.21062 6.98769 6.2321 6.97062 6.25642 6.95888C6.28074 6.94714 6.3073 6.94102 6.33421 6.94096H8.67888C8.72667 6.94096 8.7725 6.9603 8.80628 6.99474C8.84007 7.02917 8.85905 7.07587 8.85905 7.12456V10.7866C8.85905 10.8353 8.84007 10.882 8.80628 10.9164C8.7725 10.9508 8.72667 10.9702 8.67888 10.9702ZM3.80937 10.603H8.49871V7.30817H6.41813L3.80937 10.603Z" fill="#0B1547"/>
<path d="M10.0536 6.21158C10.0155 6.21108 9.97853 6.1988 9.94747 6.17636C9.91702 6.15309 9.89447 6.1207 9.88296 6.08372C9.87146 6.04674 9.87158 6.00703 9.88331 5.97012L10.4065 4.35793L9.05403 3.36446C9.02274 3.34246 8.99932 3.31069 8.9873 3.27395C8.97528 3.2372 8.97532 3.19746 8.98739 3.16074C8.99918 3.12397 9.02192 3.09187 9.05244 3.06888C9.08296 3.04589 9.11975 3.03316 9.15769 3.03246H10.8212L11.3321 1.42279C11.3433 1.38587 11.3659 1.35366 11.3966 1.33098C11.4274 1.30831 11.4644 1.29639 11.5024 1.29703C11.5403 1.29639 11.5774 1.30831 11.6081 1.33098C11.6388 1.35366 11.6614 1.38587 11.6727 1.42279L12.1836 3.03749H13.8446C13.8829 3.03767 13.9203 3.05016 13.9513 3.07318C13.9823 3.09621 14.0054 3.1286 14.0173 3.16577C14.0294 3.20249 14.0294 3.24223 14.0174 3.27898C14.0054 3.31572 13.982 3.34749 13.9507 3.36949L12.6056 4.36296L13.1214 5.97012C13.1331 6.00703 13.1333 6.04674 13.1218 6.08372C13.1103 6.1207 13.0877 6.15309 13.0573 6.17636C13.0261 6.19855 12.9891 6.21045 12.9511 6.21045C12.9132 6.21045 12.8761 6.19855 12.845 6.17636L11.5024 5.17032L10.1597 6.17636C10.1287 6.1988 10.0917 6.21108 10.0536 6.21158ZM9.71548 3.40219L10.7027 4.13912C10.7339 4.16181 10.7572 4.19403 10.7691 4.23112C10.7811 4.26821 10.7812 4.30823 10.7693 4.34536L10.4065 5.54507L11.3938 4.79053C11.4244 4.76726 11.4617 4.75469 11.4999 4.75469C11.5381 4.75469 11.5754 4.76726 11.606 4.79053L12.5933 5.53249L12.2082 4.3353C12.1964 4.29817 12.1964 4.25815 12.2084 4.22106C12.2204 4.18397 12.2437 4.15175 12.2749 4.12906L13.2769 3.39213H12.0429C12.0088 3.3901 11.976 3.37811 11.9484 3.3576C11.9208 3.33708 11.8997 3.3089 11.8874 3.27643L11.5024 2.07672L11.1223 3.27643C11.1108 3.31339 11.0882 3.34571 11.0576 3.36875C11.027 3.3918 10.99 3.40438 10.952 3.4047L9.71548 3.40219Z" fill="#0B1547"/>
<path d="M7.07957 3.98318C7.05562 3.98324 7.03191 3.97838 7.00986 3.96887C6.9878 3.95936 6.96786 3.94541 6.95123 3.92785L4.38196 1.30961C4.35161 1.27502 4.33483 1.23025 4.33483 1.18385C4.33483 1.13745 4.35161 1.09268 4.38196 1.0581C4.41565 1.02663 4.45968 1.00918 4.50537 1.00918C4.55106 1.00918 4.59509 1.02663 4.62877 1.0581L7.19804 3.66879C7.22945 3.70284 7.24693 3.74781 7.24693 3.79455C7.24693 3.84128 7.22945 3.88625 7.19804 3.9203C7.18357 3.93849 7.16559 3.95345 7.14521 3.96427C7.12483 3.97508 7.10249 3.98152 7.07957 3.98318Z" fill="#0B1547"/>
<path d="M4.23635 7.08935H4.18945L0.667511 6.12103C0.640906 6.11912 0.615048 6.11122 0.591805 6.09789C0.568561 6.08456 0.548512 6.06613 0.533104 6.04395C0.517697 6.02176 0.507315 5.99637 0.502708 5.96959C0.498101 5.94282 0.499384 5.91534 0.506465 5.88914C0.513546 5.86293 0.526248 5.83866 0.543653 5.81806C0.561059 5.79747 0.582734 5.78107 0.607115 5.77005C0.631495 5.75903 0.657973 5.75366 0.684636 5.75433C0.7113 5.75501 0.737484 5.76171 0.761298 5.77394L4.2709 6.73221C4.31007 6.74507 4.34375 6.77121 4.36632 6.80628C4.38889 6.84135 4.39899 6.88324 4.39495 6.92498C4.39092 6.96672 4.37298 7.00579 4.34412 7.03569C4.31526 7.0656 4.27723 7.08454 4.23635 7.08935Z" fill="#0B1547"/>
<path d="M15.9252 3.98318C15.9015 3.9835 15.8781 3.97874 15.8564 3.96921C15.8347 3.95967 15.8153 3.94558 15.7993 3.92785C15.7673 3.89409 15.7494 3.84901 15.7494 3.80209C15.7494 3.75518 15.7673 3.71009 15.7993 3.67633L18.3661 1.04803C18.4 1.0171 18.444 1 18.4895 1C18.535 1 18.5789 1.0171 18.6129 1.04803C18.6432 1.08262 18.66 1.12739 18.66 1.17379C18.66 1.22019 18.6432 1.26496 18.6129 1.29955L16.0535 3.92785C16.037 3.94565 16.0171 3.95976 15.995 3.96928C15.9729 3.97881 15.9491 3.98354 15.9252 3.98318Z" fill="#0B1547"/>
<path d="M18.7807 7.08935C18.7361 7.0907 18.6926 7.07513 18.6586 7.04567C18.6246 7.0162 18.6026 6.97493 18.5968 6.92985C18.5909 6.88476 18.6017 6.83908 18.627 6.80164C18.6523 6.7642 18.6904 6.73766 18.7338 6.72718L22.2533 5.77394C22.2769 5.76439 22.3022 5.76003 22.3275 5.76113C22.3529 5.76224 22.3777 5.76879 22.4004 5.78036C22.4231 5.79193 22.4432 5.80825 22.4592 5.82826C22.4753 5.84827 22.4871 5.87152 22.4937 5.89648C22.5004 5.92143 22.5018 5.94754 22.4978 5.97309C22.4939 5.99864 22.4847 6.02305 22.4708 6.04472C22.457 6.0664 22.4388 6.08485 22.4175 6.09886C22.3962 6.11288 22.3722 6.12215 22.3471 6.12606L18.8276 7.08181C18.8124 7.08675 18.7966 7.0893 18.7807 7.08935Z" fill="#0B1547"/>
<path d="M17.7367 23H5.268C5.22022 23 5.17439 22.9807 5.1406 22.9462C5.10682 22.9118 5.08783 22.8651 5.08783 22.8164C5.08783 22.7677 5.10682 22.721 5.1406 22.6866C5.17439 22.6521 5.22022 22.6328 5.268 22.6328H17.7367C17.7845 22.6328 17.8303 22.6521 17.8641 22.6866C17.8979 22.721 17.9169 22.7677 17.9169 22.8164C17.9169 22.8651 17.8979 22.9118 17.8641 22.9462C17.8303 22.9807 17.7845 23 17.7367 23Z" fill="#0B1547"/>
<path d="M11.3321 23L11.3314 23.2L11.3326 23.2L11.3321 23ZM11.1815 22.9195L11.0145 23.0296L11.0166 23.0327L11.1815 22.9195ZM3.26639 10.9098L3.43358 10.7996L3.42788 10.7918L3.26639 10.9098ZM3.26639 10.6935L3.10737 10.5722L3.10491 10.5755L3.26639 10.6935ZM3.28367 10.6709L3.12797 10.5452L3.12469 10.5495L3.28367 10.6709ZM3.42435 10.603V10.403L3.42392 10.403L3.42435 10.603ZM8.85412 10.7463L8.65833 10.7873L8.65881 10.7894L8.85412 10.7463ZM11.5073 22.7762L11.312 22.8192L11.3123 22.8206L11.5073 22.7762ZM11.4012 22.9849L11.3246 22.8001L11.3194 22.8024L11.4012 22.9849ZM3.74273 10.9702V10.7702H3.37136L3.57575 11.0803L3.74273 10.9702ZM10.9495 21.9034L10.7825 22.0135L11.1448 21.8603L10.9495 21.9034ZM8.5382 10.9702L8.73351 10.9271L8.6989 10.7702H8.5382V10.9702ZM11.1568 22.8566L10.9615 22.8997L10.9615 22.8997L11.1568 22.8566ZM8.50612 10.8268L8.70144 10.7838L8.70111 10.7824L8.50612 10.8268ZM8.54067 10.6709L8.38498 10.5453L8.38308 10.5477L8.54067 10.6709ZM14.121 10.6709L14.2786 10.5477L14.2766 10.5453L14.121 10.6709ZM14.1555 10.8268L13.9605 10.7824L13.9602 10.7838L14.1555 10.8268ZM11.5073 22.8566L11.7022 22.9018L11.7026 22.8996L11.5073 22.8566ZM8.90595 10.9702V10.7702H8.65707L8.71063 11.0132L8.90595 10.9702ZM11.3321 21.9789L11.1368 22.0219L11.5274 22.0219L11.3321 21.9789ZM13.7557 10.9702L13.951 11.0132L14.0045 10.7702H13.7557V10.9702ZM11.258 22.9849L11.3353 22.8003L11.3294 22.7981L11.258 22.9849ZM11.147 22.7762L10.9517 22.733L10.9515 22.7336L11.147 22.7762ZM13.8051 10.7463L14.0004 10.7895L14.0004 10.7894L13.8051 10.7463ZM19.5705 10.603V10.803L19.5728 10.803L19.5705 10.603ZM19.7038 10.6608L19.8545 10.5293L19.8508 10.5252L19.7038 10.6608ZM19.7235 10.6835L19.5728 10.8149L19.5732 10.8154L19.7235 10.6835ZM19.7383 10.9123L19.9031 11.0257L19.9046 11.0235L19.7383 10.9123ZM11.4777 22.922L11.3129 22.8087L11.3123 22.8096L11.4777 22.922ZM14.1259 10.9702V10.7702H13.9652L13.9306 10.9272L14.1259 10.9702ZM11.7072 21.9512L11.5119 21.9082L11.872 22.0645L11.7072 21.9512ZM19.2595 10.9702L19.4243 11.0835L19.6398 10.7702H19.2595V10.9702ZM19.5705 10.9702L19.5705 10.7702H19.5705V10.9702ZM16.3299 6.94096L16.3326 6.74096H16.3299V6.94096ZM16.4632 7.00132L16.613 6.86877L16.6111 6.86673L16.4632 7.00132ZM19.7038 10.6633L19.554 10.7959L19.5557 10.7978L19.7038 10.6633ZM19.7359 10.8595L19.5524 10.7799L19.5518 10.7813L19.7359 10.8595ZM14.1605 10.603H13.9605V10.803H14.1605V10.603ZM19.1657 10.603V10.803H19.6099L19.3155 10.4704L19.1657 10.603ZM16.2485 7.30817L16.3982 7.17559L16.3385 7.10817H16.2485V7.30817ZM14.1605 7.30817V7.10817H13.9605V7.30817H14.1605ZM8.49871 7.12456H8.69871H8.49871ZM14.1605 10.7866H14.3605H14.1605ZM8.86152 10.603H8.66152V10.803H8.86152V10.603ZM13.7977 10.603V10.803H13.9977V10.603H13.7977ZM13.7977 7.30817H13.9977V7.10817H13.7977V7.30817ZM8.86152 7.30817V7.10817H8.66152V7.30817H8.86152ZM3.43176 10.9702L3.4315 11.1702H3.43176V10.9702ZM3.26886 10.8645L3.08688 10.9475L3.08718 10.9482L3.26886 10.8645ZM3.29108 10.6709L3.13433 10.5466L3.13289 10.5485L3.29108 10.6709ZM6.19353 7.00887L6.03788 6.88327L6.03679 6.88464L6.19353 7.00887ZM6.33421 6.94096V6.74096L6.33378 6.74096L6.33421 6.94096ZM8.85905 10.7866H9.05905H8.85905ZM3.80937 10.603L3.65257 10.4788L3.39591 10.803H3.80937V10.603ZM8.49871 10.603V10.803H8.69871V10.603H8.49871ZM8.49871 7.30817H8.69871V7.10817H8.49871V7.30817ZM6.41813 7.30817V7.10817H6.32138L6.26133 7.18402L6.41813 7.30817ZM10.0536 6.21158L10.051 6.41163L10.0562 6.41156L10.0536 6.21158ZM9.94747 6.17636L9.82598 6.33532L9.83033 6.33847L9.94747 6.17636ZM9.88331 5.97012L9.69307 5.90838L9.6927 5.90955L9.88331 5.97012ZM10.4065 4.35793L10.5968 4.41967L10.6414 4.28227L10.5249 4.19674L10.4065 4.35793ZM9.05403 3.36446L9.17246 3.20324L9.16906 3.20085L9.05403 3.36446ZM8.98739 3.16074L9.17739 3.22321L9.17784 3.22181L8.98739 3.16074ZM9.15769 3.03246V2.83243L9.154 2.8325L9.15769 3.03246ZM10.8212 3.03246V3.23246H10.9675L11.0118 3.09297L10.8212 3.03246ZM11.3321 1.42279L11.5227 1.4833L11.5234 1.4809L11.3321 1.42279ZM11.5024 1.29703L11.499 1.49712L11.5057 1.497L11.5024 1.29703ZM11.6727 1.42279L11.4813 1.48091L11.482 1.48312L11.6727 1.42279ZM12.1836 3.03749L11.9929 3.09783L12.0371 3.23749H12.1836V3.03749ZM13.8446 3.03749L13.8455 2.83749H13.8446V3.03749ZM14.0173 3.16577L13.8269 3.22687L13.8273 3.22824L14.0173 3.16577ZM13.9507 3.36949L13.8356 3.20584L13.8319 3.20861L13.9507 3.36949ZM12.6056 4.36296L12.4868 4.20209L12.3713 4.28738L12.4152 4.42408L12.6056 4.36296ZM13.1214 5.97012L13.312 5.90955L13.3119 5.909L13.1214 5.97012ZM13.0573 6.17636L13.1734 6.33929L13.1787 6.33527L13.0573 6.17636ZM12.845 6.17636L12.725 6.33646L12.7289 6.3392L12.845 6.17636ZM11.5024 5.17032L11.6223 5.01026L11.5024 4.9204L11.3824 5.01026L11.5024 5.17032ZM10.1597 6.17636L10.2769 6.33849L10.2797 6.33642L10.1597 6.17636ZM9.71548 3.40219L9.71588 3.20219L9.11155 3.20096L9.59584 3.56246L9.71548 3.40219ZM10.7027 4.13912L10.5831 4.2994L10.585 4.30084L10.7027 4.13912ZM10.7693 4.34536L10.5788 4.28451L10.5779 4.28746L10.7693 4.34536ZM10.4065 5.54507L10.2151 5.48718L10.0358 6.08017L10.528 5.70397L10.4065 5.54507ZM11.3938 4.79053L11.2729 4.63121L11.2723 4.63163L11.3938 4.79053ZM11.606 4.79053L11.4851 4.94986L11.4859 4.95041L11.606 4.79053ZM12.5933 5.53249L12.4731 5.69237L12.9764 6.07065L12.7836 5.47126L12.5933 5.53249ZM12.2082 4.3353L12.0177 4.39613L12.0178 4.39653L12.2082 4.3353ZM12.2749 4.12906L12.3925 4.29078L12.3934 4.29018L12.2749 4.12906ZM13.2769 3.39213L13.3954 3.55325L13.8864 3.19213H13.2769V3.39213ZM12.0429 3.39213L12.031 3.59213H12.0429V3.39213ZM11.8874 3.27643L11.6967 3.33763L11.7003 3.34714L11.8874 3.27643ZM11.5024 2.07672L11.6928 2.0156L11.5011 1.41839L11.3117 2.01632L11.5024 2.07672ZM11.1223 3.27643L10.9316 3.21603L10.9313 3.21719L11.1223 3.27643ZM10.952 3.4047L10.9516 3.60471L10.9537 3.60469L10.952 3.4047ZM7.07957 3.98318L7.08012 4.18366L7.09401 4.18266L7.07957 3.98318ZM6.95123 3.92785L7.09647 3.7903L7.09398 3.78777L6.95123 3.92785ZM4.38196 1.30961L4.23142 1.44174L4.23921 1.44969L4.38196 1.30961ZM4.38196 1.0581L4.24545 0.911934L4.2382 0.918707L4.23165 0.926165L4.38196 1.0581ZM4.62877 1.0581L4.77145 0.917685L4.76529 0.911934L4.62877 1.0581ZM7.19804 3.66879L7.34512 3.53311L7.34059 3.5285L7.19804 3.66879ZM7.19804 3.9203L7.05103 3.78469L7.04608 3.79006L7.04154 3.79577L7.19804 3.9203ZM4.23635 7.08935V7.28935H4.24809L4.25975 7.28798L4.23635 7.08935ZM4.18945 7.08935L4.13643 7.2822L4.16246 7.28935H4.18945V7.08935ZM0.667511 6.12103L0.720532 5.92819L0.701508 5.92296L0.681829 5.92154L0.667511 6.12103ZM0.761298 5.77394L0.669879 5.95183L0.688463 5.96138L0.708619 5.96688L0.761298 5.77394ZM4.2709 6.73221L4.33337 6.54194L4.32358 6.53927L4.2709 6.73221ZM15.9252 3.98318L15.9282 3.78312L15.9224 3.7832L15.9252 3.98318ZM15.7993 3.92785L15.9479 3.79392L15.9445 3.79032L15.7993 3.92785ZM15.7494 3.80209H15.9494H15.7494ZM15.7993 3.67633L15.6562 3.53658L15.6541 3.53881L15.7993 3.67633ZM18.3661 1.04803L18.2311 0.899972L18.223 0.908297L18.3661 1.04803ZM18.4895 1V0.8V1ZM18.6129 1.04803L18.7632 0.916104L18.7558 0.907729L18.7476 0.900222L18.6129 1.04803ZM18.6129 1.29955L18.7564 1.43926L18.7632 1.43148L18.6129 1.29955ZM16.0535 3.92785L15.9102 3.78827L15.9066 3.7921L16.0535 3.92785ZM18.7807 7.08935L18.78 6.88928L18.7747 6.88944L18.7807 7.08935ZM18.7338 6.72718L18.7808 6.92166L18.7861 6.92022L18.7338 6.72718ZM22.2533 5.77394L22.3056 5.96699L22.3172 5.96384L22.3284 5.95932L22.2533 5.77394ZM22.3471 6.12606L22.3163 5.92845L22.3053 5.93015L22.2947 5.93305L22.3471 6.12606ZM18.8276 7.08181L18.7751 6.88855L18.7656 6.89167L18.8276 7.08181ZM17.7367 22.6328V22.8328V22.6328ZM11.3333 22.8C11.3363 22.8 11.3391 22.8008 11.3415 22.802L11.1529 23.1548C11.2076 23.184 11.2686 23.1996 11.3308 23.2L11.3333 22.8ZM11.3415 22.802C11.3438 22.8033 11.3454 22.8048 11.3464 22.8063L11.0166 23.0327C11.0516 23.0836 11.0982 23.1256 11.1529 23.1548L11.3415 22.802ZM11.3485 22.8095L3.43339 10.7998L3.0994 11.0199L11.0145 23.0296L11.3485 22.8095ZM3.42788 10.7918C3.43025 10.7951 3.43122 10.7985 3.43122 10.8017H3.03122C3.03122 10.8828 3.05687 10.9621 3.10491 11.0278L3.42788 10.7918ZM3.43122 10.8017C3.43122 10.8048 3.43025 10.8083 3.42788 10.8115L3.10491 10.5755C3.05687 10.6413 3.03122 10.7206 3.03122 10.8017H3.43122ZM3.42538 10.8149L3.44266 10.7922L3.12469 10.5495L3.10741 10.5722L3.42538 10.8149ZM3.43932 10.7965C3.43798 10.7981 3.43605 10.7998 3.4335 10.801L3.25961 10.4408C3.20842 10.4655 3.16355 10.5013 3.12802 10.5453L3.43932 10.7965ZM3.4335 10.801C3.43094 10.8022 3.42795 10.803 3.42479 10.803L3.42392 10.403C3.36693 10.4031 3.31082 10.4161 3.25961 10.4408L3.4335 10.801ZM3.42435 10.803H8.67888V10.403H3.42435V10.803ZM8.68052 10.803C8.67436 10.803 8.66886 10.8009 8.66492 10.7976L8.9182 10.4881C8.8504 10.4326 8.7653 10.4023 8.67724 10.403L8.68052 10.803ZM8.66492 10.7976C8.66106 10.7945 8.65906 10.7907 8.65835 10.7873L9.04989 10.7054C9.03211 10.6204 8.98592 10.5435 8.9182 10.4881L8.66492 10.7976ZM8.65881 10.7894L11.312 22.8192L11.7026 22.7331L9.04942 10.7033L8.65881 10.7894ZM11.3123 22.8206C11.3115 22.8172 11.3119 22.8134 11.3137 22.8098L11.6703 22.9911C11.711 22.911 11.7222 22.8191 11.7023 22.7317L11.3123 22.8206ZM11.3137 22.8098C11.3156 22.8062 11.3191 22.8024 11.3246 22.8002L11.4778 23.1697C11.5615 23.1349 11.6295 23.0713 11.6703 22.9911L11.3137 22.8098ZM11.3194 22.8024C11.3228 22.8009 11.3265 22.8 11.3304 22.8L11.3337 23.2C11.3852 23.1996 11.436 23.1885 11.4829 23.1674L11.3194 22.8024ZM3.57575 11.0803L10.7825 22.0135L11.1165 21.7933L3.90972 10.8601L3.57575 11.0803ZM11.1448 21.8603L8.73351 10.9271L8.3429 11.0133L10.7542 21.9465L11.1448 21.8603ZM8.5382 10.7702H3.74273V11.1702H8.5382V10.7702ZM11.3327 22.8C11.3382 22.8 11.343 22.802 11.3465 22.8048L11.0932 23.1144C11.1603 23.1693 11.2443 23.1997 11.3314 23.2L11.3327 22.8ZM11.3465 22.8048C11.3498 22.8075 11.3515 22.8108 11.3521 22.8136L10.9615 22.8997C10.98 22.9837 11.0262 23.0595 11.0932 23.1144L11.3465 22.8048ZM11.3521 22.8136L8.70143 10.7838L8.3108 10.8699L10.9615 22.8997L11.3521 22.8136ZM8.70111 10.7824C8.70155 10.7843 8.70155 10.7862 8.70113 10.7881L8.3106 10.7016C8.29822 10.7575 8.29839 10.8155 8.31112 10.8713L8.70111 10.7824ZM8.70113 10.7881C8.70071 10.79 8.69981 10.792 8.69826 10.794L8.38308 10.5477C8.34768 10.593 8.32299 10.6456 8.3106 10.7016L8.70113 10.7881ZM8.69634 10.7965C8.69502 10.7981 8.69313 10.7997 8.69064 10.8009L8.51424 10.4419C8.46401 10.4666 8.41997 10.502 8.385 10.5453L8.69634 10.7965ZM8.69064 10.8009C8.68813 10.8022 8.6852 10.8029 8.68209 10.8029L8.67567 10.403C8.61958 10.4039 8.56449 10.4172 8.51424 10.4419L8.69064 10.8009ZM8.67888 10.803H13.9803V10.403H8.67888V10.803ZM13.9799 10.803C13.9767 10.803 13.9737 10.8022 13.9712 10.801L14.145 10.4408C14.0938 10.4161 14.0377 10.4031 13.9807 10.403L13.9799 10.803ZM13.9712 10.801C13.9686 10.7998 13.9667 10.7981 13.9653 10.7965L14.2766 10.5453C14.2411 10.5013 14.1962 10.4655 14.145 10.4408L13.9712 10.801ZM13.9634 10.794C13.9619 10.7921 13.961 10.79 13.9605 10.7881L14.3511 10.7016C14.3387 10.6456 14.314 10.593 14.2786 10.5477L13.9634 10.794ZM13.9605 10.7881C13.9601 10.7862 13.9601 10.7843 13.9605 10.7824L14.3505 10.8713C14.3633 10.8155 14.3634 10.7575 14.3511 10.7016L13.9605 10.7881ZM13.9602 10.7838L11.312 22.8136L11.7026 22.8996L14.3509 10.8698L13.9602 10.7838ZM11.3125 22.8115C11.313 22.8093 11.3144 22.8066 11.3172 22.8042L11.5705 23.1138C11.6369 23.0595 11.6829 22.9847 11.7021 22.9017L11.3125 22.8115ZM11.3172 22.8042C11.3202 22.8018 11.3244 22.8001 11.3292 22.8L11.3349 23.2C11.4212 23.1988 11.5041 23.1682 11.5705 23.1138L11.3172 22.8042ZM8.71063 11.0132L11.1368 22.0219L11.5274 21.9358L9.10126 10.9271L8.71063 11.0132ZM11.5274 22.0219L13.951 11.0132L13.5604 10.9272L11.1367 21.9359L11.5274 22.0219ZM13.7557 10.7702H8.90595V11.1702H13.7557V10.7702ZM11.3331 22.8C11.3339 22.8 11.3347 22.8002 11.3353 22.8004L11.1808 23.1694C11.2284 23.1893 11.2794 23.1997 11.331 23.2L11.3331 22.8ZM11.3294 22.7981C11.3351 22.8003 11.3388 22.804 11.3408 22.8077L10.9877 22.9956C11.0304 23.076 11.1008 23.1389 11.1866 23.1717L11.3294 22.7981ZM11.3408 22.8077C11.3427 22.8114 11.3432 22.8152 11.3424 22.8187L10.9515 22.7336C10.9322 22.8223 10.9449 22.9153 10.9877 22.9956L11.3408 22.8077ZM11.3422 22.8193L14.0004 10.7895L13.6098 10.7032L10.9517 22.733L11.3422 22.8193ZM14.0004 10.7894C13.9998 10.7922 13.9981 10.7955 13.9947 10.7982L13.7414 10.4886C13.6744 10.5434 13.6283 10.6193 13.6098 10.7033L14.0004 10.7894ZM13.9947 10.7982C13.9913 10.801 13.9864 10.803 13.9809 10.803L13.9797 10.403C13.8925 10.4032 13.8085 10.4337 13.7414 10.4886L13.9947 10.7982ZM13.9803 10.803H19.5705V10.403H13.9803V10.803ZM19.5728 10.803C19.5694 10.803 19.5663 10.8023 19.5635 10.8011L19.7227 10.4342C19.674 10.4131 19.6214 10.4024 19.5682 10.403L19.5728 10.803ZM19.5635 10.8011C19.5607 10.7999 19.5584 10.7982 19.5568 10.7964L19.8508 10.5252C19.815 10.4864 19.7714 10.4553 19.7227 10.4342L19.5635 10.8011ZM19.5531 10.7923L19.5728 10.8149L19.8742 10.552L19.8545 10.5293L19.5531 10.7923ZM19.5732 10.8154C19.571 10.8129 19.5702 10.8104 19.5701 10.8082L19.9692 10.7824C19.9637 10.6973 19.9304 10.616 19.8738 10.5515L19.5732 10.8154ZM19.5701 10.8082C19.5699 10.8061 19.5704 10.8036 19.5721 10.8012L19.9046 11.0235C19.9522 10.9523 19.9747 10.8675 19.9692 10.7824L19.5701 10.8082ZM19.5735 10.799L11.3129 22.8087L11.6425 23.0354L19.9031 11.0257L19.5735 10.799ZM11.3123 22.8096C11.314 22.8071 11.3165 22.8047 11.3199 22.8029L11.5087 23.1555C11.5628 23.1266 11.6088 23.0849 11.6431 23.0345L11.3123 22.8096ZM11.3199 22.8029C11.3233 22.8011 11.3273 22.8 11.3315 22.8L11.3326 23.2C11.3941 23.1998 11.4546 23.1845 11.5087 23.1555L11.3199 22.8029ZM13.9306 10.9272L11.5119 21.9082L11.9025 21.9942L14.3212 11.0132L13.9306 10.9272ZM11.872 22.0645L19.4243 11.0835L19.0947 10.8568L11.5424 21.8379L11.872 22.0645ZM19.2595 10.7702H14.1259V11.1702H19.2595V10.7702ZM19.5705 10.7702H13.9803V11.1702H19.5705V10.7702ZM13.9803 10.7702C13.9868 10.7702 13.9922 10.7728 13.9957 10.7763L13.7102 11.0565C13.7812 11.1288 13.8783 11.1702 13.9803 11.1702V10.7702ZM13.9957 10.7763C13.9989 10.7797 14.0001 10.7834 14.0001 10.7866H13.6001C13.6001 10.8871 13.6393 10.9843 13.7102 11.0565L13.9957 10.7763ZM14.0001 10.7866V7.12456H13.6001V10.7866H14.0001ZM14.0001 7.12456C14.0001 7.12771 13.999 7.13146 13.9957 7.13482L13.7102 6.85466C13.6393 6.92687 13.6001 7.02403 13.6001 7.12456H14.0001ZM13.9957 7.13482C13.9922 7.1383 13.9868 7.14096 13.9803 7.14096V6.74096C13.8783 6.74096 13.7812 6.78231 13.7102 6.85466L13.9957 7.13482ZM13.9803 7.14096H16.3299V6.74096H13.9803V7.14096ZM16.3272 7.14094C16.3246 7.14091 16.3222 7.14034 16.3201 7.13939L16.4851 6.77502C16.4372 6.75331 16.3853 6.74169 16.3326 6.74098L16.3272 7.14094ZM16.3201 7.13939C16.318 7.13844 16.3164 7.13719 16.3153 7.13592L16.6111 6.86673C16.5759 6.82798 16.5331 6.79671 16.4851 6.77502L16.3201 7.13939ZM16.3134 7.13386L19.554 10.7959L19.8536 10.5308L16.613 6.86878L16.3134 7.13386ZM19.5557 10.7978C19.5531 10.7949 19.5517 10.7917 19.5512 10.7888L19.946 10.7243C19.9341 10.6516 19.9016 10.5837 19.8519 10.5289L19.5557 10.7978ZM19.5512 10.7888C19.5508 10.7859 19.5511 10.7829 19.5524 10.7799L19.9193 10.9391C19.9487 10.8715 19.9579 10.7969 19.946 10.7243L19.5512 10.7888ZM19.5518 10.7813C19.5529 10.7788 19.5549 10.776 19.5582 10.7738L19.7807 11.1063C19.8427 11.0647 19.8909 11.006 19.9199 10.9377L19.5518 10.7813ZM19.5582 10.7738C19.5615 10.7716 19.5658 10.7702 19.5705 10.7702L19.5705 11.1702C19.6455 11.1702 19.7186 11.1478 19.7807 11.1063L19.5582 10.7738ZM14.1605 10.803H19.1657V10.403H14.1605V10.803ZM19.3155 10.4704L16.3982 7.17559L16.0987 7.44075L19.016 10.7356L19.3155 10.4704ZM16.2485 7.10817H14.1605V7.50817H16.2485V7.10817ZM13.9605 7.30817V10.603H14.3605V7.30817H13.9605ZM13.9803 10.7702H8.67888V11.1702H13.9803V10.7702ZM8.67888 10.7702C8.68538 10.7702 8.69082 10.7728 8.69423 10.7763L8.40873 11.0565C8.47973 11.1288 8.57682 11.1702 8.67888 11.1702V10.7702ZM8.69423 10.7763C8.69752 10.7797 8.69871 10.7834 8.69871 10.7866H8.29871C8.29871 10.8871 8.33787 10.9843 8.40873 11.0565L8.69423 10.7763ZM8.69871 10.7866V7.12456H8.29871V10.7866H8.69871ZM8.69871 7.12456C8.69871 7.12771 8.69753 7.13146 8.69423 7.13482L8.40873 6.85466C8.33787 6.92687 8.29871 7.02403 8.29871 7.12456H8.69871ZM8.69423 7.13482C8.69082 7.1383 8.68537 7.14096 8.67888 7.14096V6.74096C8.57683 6.74096 8.47973 6.78231 8.40873 6.85466L8.69423 7.13482ZM8.67888 7.14096H13.9803V6.74096H8.67888V7.14096ZM13.9803 7.14096C13.9738 7.14096 13.9684 7.1383 13.965 7.13482L14.2505 6.85466C14.1795 6.78231 14.0824 6.74096 13.9803 6.74096V7.14096ZM13.965 7.13482C13.9617 7.13146 13.9605 7.1277 13.9605 7.12456H14.3605C14.3605 7.02403 14.3213 6.92688 14.2505 6.85466L13.965 7.13482ZM13.9605 7.12456V10.7866H14.3605V7.12456H13.9605ZM13.9605 10.7866C13.9605 10.7834 13.9617 10.7797 13.965 10.7763L14.2505 11.0565C14.3213 10.9843 14.3605 10.8871 14.3605 10.7866H13.9605ZM13.965 10.7763C13.9684 10.7728 13.9738 10.7702 13.9803 10.7702V11.1702C14.0824 11.1702 14.1795 11.1288 14.2505 11.0565L13.965 10.7763ZM8.86152 10.803H13.7977V10.403H8.86152V10.803ZM13.9977 10.603V7.30817H13.5977V10.603H13.9977ZM13.7977 7.10817H8.86152V7.50817H13.7977V7.10817ZM8.66152 7.30817V10.603H9.06152V7.30817H8.66152ZM8.67888 10.7702H3.43176V11.1702H8.67888V10.7702ZM3.43201 10.7702C3.43658 10.7702 3.44077 10.7715 3.44407 10.7737L3.22643 11.1093C3.28742 11.1488 3.35855 11.1701 3.4315 11.1702L3.43201 10.7702ZM3.44407 10.7737C3.44733 10.7758 3.4494 10.7784 3.45054 10.7809L3.08718 10.9482C3.11736 11.0137 3.16549 11.0698 3.22643 11.1093L3.44407 10.7737ZM3.45084 10.7816C3.45174 10.7835 3.452 10.7855 3.45179 10.7873L3.05439 10.7417C3.04634 10.8119 3.05752 10.8831 3.08689 10.9475L3.45084 10.7816ZM3.45179 10.7873C3.45158 10.7891 3.45085 10.7912 3.44926 10.7933L3.13289 10.5485C3.08947 10.6046 3.06245 10.6715 3.05439 10.7417L3.45179 10.7873ZM3.44781 10.7951L6.35027 7.1331L6.03679 6.88464L3.13434 10.5467L3.44781 10.7951ZM6.34918 7.13446C6.34784 7.13613 6.34591 7.13776 6.34336 7.13899L6.16947 6.77876C6.11828 6.80347 6.07341 6.83925 6.03788 6.88328L6.34918 7.13446ZM6.34336 7.13899C6.3408 7.14023 6.33781 7.14095 6.33465 7.14096L6.33378 6.74096C6.2768 6.74108 6.22068 6.75405 6.16947 6.77876L6.34336 7.13899ZM6.33421 7.14096H8.67888V6.74096H6.33421V7.14096ZM8.67888 7.14096C8.67239 7.14096 8.66695 7.1383 8.66353 7.13482L8.94903 6.85466C8.87804 6.78231 8.78094 6.74096 8.67888 6.74096V7.14096ZM8.66353 7.13482C8.66024 7.13146 8.65905 7.12771 8.65905 7.12456H9.05905C9.05905 7.02403 9.0199 6.92687 8.94903 6.85466L8.66353 7.13482ZM8.65905 7.12456V10.7866H9.05905V7.12456H8.65905ZM8.65905 10.7866C8.65905 10.7834 8.66024 10.7797 8.66353 10.7763L8.94903 11.0565C9.0199 10.9843 9.05905 10.8871 9.05905 10.7866H8.65905ZM8.66353 10.7763C8.66695 10.7728 8.67239 10.7702 8.67888 10.7702V11.1702C8.78094 11.1702 8.87804 11.1288 8.94903 11.0565L8.66353 10.7763ZM3.80937 10.803H8.49871V10.403H3.80937V10.803ZM8.69871 10.603V7.30817H8.29871V10.603H8.69871ZM8.49871 7.10817H6.41813V7.50817H8.49871V7.10817ZM6.26133 7.18402L3.65257 10.4788L3.96617 10.7271L6.57493 7.43232L6.26133 7.18402ZM10.0562 6.01159C10.0596 6.01164 10.0625 6.01275 10.0646 6.01426L9.83033 6.33847C9.89453 6.38486 9.9715 6.41053 10.051 6.41156L10.0562 6.01159ZM10.0689 6.01746C10.0718 6.01962 10.0733 6.02216 10.0739 6.0243L9.69199 6.14314C9.71567 6.21924 9.76229 6.28655 9.82603 6.33527L10.0689 6.01746ZM10.0739 6.0243C10.0746 6.02642 10.0746 6.02858 10.0739 6.0307L9.6927 5.90955C9.66857 5.98547 9.66832 6.06707 9.69199 6.14314L10.0739 6.0243ZM10.0735 6.03186L10.5968 4.41967L10.2163 4.29619L9.69307 5.90838L10.0735 6.03186ZM10.5249 4.19674L9.17243 3.20327L8.93563 3.52565L10.2881 4.51912L10.5249 4.19674ZM9.16906 3.20085C9.1735 3.20397 9.17615 3.20798 9.17739 3.21177L8.79722 3.33612C8.8225 3.41341 8.87199 3.48095 8.939 3.52807L9.16906 3.20085ZM9.17739 3.21177C9.17862 3.21552 9.17862 3.21946 9.17738 3.22321L8.7974 3.09826C8.77201 3.17547 8.77195 3.25888 8.79722 3.33612L9.17739 3.21177ZM9.17784 3.22181C9.17715 3.22396 9.17562 3.22649 9.17277 3.22863L8.93211 2.90913C8.86822 2.95725 8.82121 3.02399 8.79695 3.09966L9.17784 3.22181ZM9.17277 3.22863C9.16986 3.23082 9.16588 3.23235 9.16138 3.23243L9.154 2.8325C9.0736 2.83398 8.99605 2.86096 8.93211 2.90913L9.17277 3.22863ZM9.15769 3.23246H10.8212V2.83246H9.15769V3.23246ZM11.0118 3.09297L11.5227 1.48329L11.1414 1.36228L10.6305 2.97196L11.0118 3.09297ZM11.5234 1.4809C11.5223 1.48468 11.5198 1.48869 11.5155 1.49187L11.2778 1.17009C11.2121 1.21862 11.1643 1.28706 11.1407 1.36467L11.5234 1.4809ZM11.5155 1.49187C11.5111 1.49509 11.5053 1.49711 11.499 1.497L11.5057 1.09706C11.4236 1.09568 11.3436 1.12152 11.2778 1.17009L11.5155 1.49187ZM11.5057 1.497C11.4994 1.49711 11.4936 1.4951 11.4893 1.49187L11.7269 1.17009C11.6611 1.12151 11.5811 1.09568 11.499 1.09706L11.5057 1.497ZM11.4893 1.49187C11.485 1.48869 11.4824 1.48468 11.4813 1.4809L11.864 1.36467C11.8405 1.28706 11.7926 1.21862 11.7269 1.17009L11.4893 1.49187ZM11.482 1.48312L11.9929 3.09783L12.3742 2.97716L11.8633 1.36246L11.482 1.48312ZM12.1836 3.23749H13.8446V2.83749H12.1836V3.23749ZM13.8436 3.23749C13.8391 3.23747 13.835 3.23597 13.8321 3.23376L14.0705 2.9126C14.0055 2.86435 13.9268 2.83787 13.8455 2.8375L13.8436 3.23749ZM13.8321 3.23376C13.8292 3.2316 13.8276 3.22904 13.8269 3.22687L14.2078 3.10466C14.1832 3.02816 14.1354 2.96082 14.0705 2.9126L13.8321 3.23376ZM13.8273 3.22824C13.8261 3.22449 13.8261 3.22055 13.8273 3.2168L14.2075 3.34115C14.2328 3.2639 14.2327 3.1805 14.2073 3.10329L13.8273 3.22824ZM13.8273 3.2168C13.8286 3.21301 13.8312 3.209 13.8357 3.20588L14.0657 3.5331C14.1327 3.48598 14.1822 3.41844 14.2075 3.34115L13.8273 3.2168ZM13.8319 3.20861L12.4868 4.20209L12.7244 4.52384L14.0695 3.53037L13.8319 3.20861ZM12.4152 4.42408L12.931 6.03124L13.3119 5.909L12.796 4.30184L12.4152 4.42408ZM12.9308 6.0307C12.9301 6.02858 12.9301 6.02642 12.9308 6.0243L13.3127 6.14314C13.3364 6.06707 13.3362 5.98547 13.312 5.90955L12.9308 6.0307ZM12.9308 6.0243C12.9315 6.02216 12.933 6.01962 12.9358 6.01746L13.1787 6.33527C13.2424 6.28655 13.2891 6.21924 13.3127 6.14314L12.9308 6.0243ZM12.9411 6.01353C12.9437 6.0117 12.9472 6.01045 12.9511 6.01045V6.41045C13.031 6.41045 13.1086 6.38539 13.1734 6.3392L12.9411 6.01353ZM12.9511 6.01045C12.9551 6.01045 12.9586 6.0117 12.9611 6.01353L12.7289 6.3392C12.7937 6.38539 12.8712 6.41045 12.9511 6.41045V6.01045ZM12.9649 6.01631L11.6223 5.01026L11.3824 5.33037L12.7251 6.33642L12.9649 6.01631ZM11.3824 5.01026L10.0398 6.01631L10.2797 6.33642L11.6223 5.33037L11.3824 5.01026ZM10.0426 6.01426C10.0447 6.01275 10.0476 6.01164 10.051 6.01159L10.0562 6.41156C10.1357 6.41053 10.2127 6.38486 10.2769 6.33847L10.0426 6.01426ZM9.59584 3.56246L10.5831 4.29939L10.8223 3.97885L9.83511 3.24191L9.59584 3.56246ZM10.585 4.30084C10.5816 4.29836 10.5797 4.29532 10.5788 4.29261L10.9595 4.16963C10.9346 4.09275 10.8862 4.02525 10.8204 3.97739L10.585 4.30084ZM10.5788 4.29261C10.578 4.28995 10.578 4.28719 10.5788 4.28452L10.9599 4.40619C10.9844 4.32926 10.9843 4.24647 10.9595 4.16963L10.5788 4.29261ZM10.5779 4.28746L10.2151 5.48718L10.598 5.60296L10.9608 4.40325L10.5779 4.28746ZM10.528 5.70397L11.5152 4.94944L11.2723 4.63163L10.2851 5.38617L10.528 5.70397ZM11.5147 4.94986C11.5108 4.95278 11.5056 4.95469 11.4999 4.95469V4.55469C11.4177 4.55469 11.3381 4.58174 11.2729 4.63121L11.5147 4.94986ZM11.4999 4.95469C11.4942 4.95469 11.489 4.95278 11.4851 4.94986L11.7269 4.63121C11.6617 4.58174 11.5821 4.55469 11.4999 4.55469V4.95469ZM11.4859 4.95041L12.4731 5.69237L12.7134 5.37261L11.7262 4.63065L11.4859 4.95041ZM12.7836 5.47126L12.3986 4.27406L12.0178 4.39653L12.4029 5.59373L12.7836 5.47126ZM12.3988 4.27446C12.3996 4.27712 12.3996 4.27989 12.3987 4.28255L12.0181 4.15957C11.9933 4.23641 11.9931 4.31921 12.0177 4.39613L12.3988 4.27446ZM12.3987 4.28255C12.3979 4.28526 12.3959 4.2883 12.3925 4.29078L12.1572 3.96733C12.0914 4.01519 12.043 4.08269 12.0181 4.15957L12.3987 4.28255ZM12.3934 4.29018L13.3954 3.55325L13.1584 3.23101L12.1564 3.96794L12.3934 4.29018ZM13.2769 3.19213H12.0429V3.59213H13.2769V3.19213ZM12.0547 3.19248C12.0598 3.19278 12.0643 3.19456 12.0678 3.19714L11.829 3.51805C11.8876 3.56167 11.9578 3.58742 12.031 3.59177L12.0547 3.19248ZM12.0678 3.19714C12.0712 3.19969 12.0734 3.20279 12.0745 3.20572L11.7003 3.34714C11.7259 3.41501 11.7705 3.47447 11.829 3.51805L12.0678 3.19714ZM12.0778 3.21532L11.6928 2.0156L11.3119 2.13783L11.6969 3.33755L12.0778 3.21532ZM11.3117 2.01632L10.9316 3.21603L11.3129 3.33683L11.693 2.13712L11.3117 2.01632ZM10.9313 3.21719C10.9321 3.21451 10.9339 3.2115 10.9372 3.209L11.1779 3.52851C11.2424 3.47993 11.2895 3.41228 11.3133 3.33567L10.9313 3.21719ZM10.9372 3.209C10.9406 3.20646 10.9452 3.20475 10.9503 3.20471L10.9537 3.60469C11.0349 3.60401 11.1133 3.57713 11.1779 3.52851L10.9372 3.209ZM10.9524 3.2047L9.71588 3.20219L9.71507 3.60219L10.9516 3.6047L10.9524 3.2047ZM7.07903 3.78318C7.08258 3.78317 7.08599 3.7839 7.08904 3.78521L6.93067 4.15253C6.97783 4.17286 7.02867 4.18332 7.08012 4.18318L7.07903 3.78318ZM7.08904 3.78521C7.09207 3.78652 7.09455 3.78833 7.09644 3.79032L6.80602 4.06537C6.84117 4.10249 6.88353 4.1322 6.93067 4.15253L7.08904 3.78521ZM7.09398 3.78777L4.52471 1.16953L4.23921 1.44969L6.80848 4.06793L7.09398 3.78777ZM4.53228 1.17768C4.53424 1.17991 4.53483 1.18215 4.53483 1.18385H4.13483C4.13483 1.27835 4.16898 1.37013 4.23165 1.44154L4.53228 1.17768ZM4.53483 1.18385C4.53483 1.18555 4.53424 1.18779 4.53228 1.19003L4.23165 0.926165C4.16898 0.997571 4.13483 1.08935 4.13483 1.18385H4.53483ZM4.51848 1.20426C4.51548 1.20706 4.51085 1.20918 4.50537 1.20918V0.809183C4.4085 0.809183 4.31581 0.846215 4.24545 0.911934L4.51848 1.20426ZM4.50537 1.20918C4.49988 1.20918 4.49525 1.20706 4.49225 1.20426L4.76529 0.911934C4.69493 0.846214 4.60223 0.809183 4.50537 0.809183V1.20918ZM4.48622 1.19838L7.05549 3.80908L7.34059 3.5285L4.77132 0.917809L4.48622 1.19838ZM7.05103 3.8044C7.04804 3.80115 7.04693 3.79758 7.04693 3.79455H7.44693C7.44693 3.69805 7.41086 3.60453 7.34504 3.53318L7.05103 3.8044ZM7.04693 3.79455C7.04693 3.79152 7.04804 3.78794 7.05103 3.78469L7.34504 4.05591C7.41086 3.98456 7.44693 3.89104 7.44693 3.79455H7.04693ZM7.04154 3.79577C7.04405 3.79262 7.04737 3.78977 7.05144 3.78761L7.23897 4.14093C7.2838 4.11713 7.32309 4.08436 7.35454 4.04483L7.04154 3.79577ZM7.05144 3.78761C7.05553 3.78544 7.0602 3.78406 7.06513 3.7837L7.09401 4.18266C7.14478 4.17898 7.19413 4.16473 7.23897 4.14093L7.05144 3.78761ZM4.23635 6.88935H4.18945V7.28935H4.23635V6.88935ZM4.24248 6.89651L0.720532 5.92819L0.614491 6.31388L4.13643 7.2822L4.24248 6.89651ZM0.681829 5.92154C0.685347 5.9218 0.688588 5.92284 0.691306 5.92439L0.492303 6.27138C0.541507 6.2996 0.596464 6.31645 0.653193 6.32052L0.681829 5.92154ZM0.691306 5.92439C0.694007 5.92594 0.696008 5.92789 0.697375 5.92986L0.368833 6.15803C0.401016 6.20437 0.443115 6.24317 0.492303 6.27138L0.691306 5.92439ZM0.697375 5.92986C0.698735 5.93182 0.699491 5.93382 0.699811 5.93568L0.305605 6.00351C0.315138 6.05891 0.336659 6.1117 0.368833 6.15803L0.697375 5.92986ZM0.699811 5.93568C0.70013 5.93753 0.700049 5.93943 0.699541 5.94131L0.31339 5.83697C0.29872 5.89126 0.296072 5.94811 0.305605 6.00351L0.699811 5.93568ZM0.699541 5.94131C0.69903 5.9432 0.698043 5.94523 0.696406 5.94716L0.390901 5.68896C0.354452 5.73209 0.328062 5.78267 0.31339 5.83697L0.699541 5.94131ZM0.696406 5.94716C0.694758 5.94911 0.692456 5.95096 0.689496 5.95229L0.524734 5.5878C0.473013 5.61118 0.42736 5.64583 0.390901 5.68896L0.696406 5.94716ZM0.689496 5.95229C0.686525 5.95364 0.683123 5.95436 0.679583 5.95427L0.689689 5.5544C0.632823 5.55296 0.576466 5.56442 0.524734 5.5878L0.689496 5.95229ZM0.679583 5.95427C0.676045 5.95418 0.67272 5.95329 0.669879 5.95183L0.852717 5.59606C0.802247 5.57012 0.746555 5.55583 0.689689 5.5544L0.679583 5.95427ZM0.708619 5.96688L4.21822 6.92514L4.32358 6.53927L0.813978 5.58101L0.708619 5.96688ZM4.20852 6.92223C4.20354 6.92059 4.20008 6.91755 4.19813 6.91451L4.5345 6.69805C4.48741 6.62487 4.41661 6.56954 4.33329 6.54218L4.20852 6.92223ZM4.19813 6.91451C4.19622 6.91154 4.19562 6.90848 4.19588 6.90572L4.59402 6.94424C4.60237 6.858 4.58155 6.77116 4.5345 6.69805L4.19813 6.91451ZM4.19588 6.90572C4.19615 6.90295 4.19738 6.89973 4.2002 6.89682L4.48804 7.17457C4.54857 7.11184 4.58568 7.03049 4.59402 6.94424L4.19588 6.90572ZM4.2002 6.89682C4.20308 6.89383 4.20749 6.89137 4.21294 6.89073L4.25975 7.28798C4.34698 7.2777 4.42745 7.23736 4.48804 7.17457L4.2002 6.89682ZM15.9224 3.7832C15.9275 3.78313 15.9325 3.78416 15.9369 3.78612L15.7759 4.1523C15.8238 4.17332 15.8756 4.18388 15.9279 4.18316L15.9224 3.7832ZM15.9369 3.78612C15.9413 3.78806 15.945 3.79081 15.9479 3.79396L15.6507 4.06173C15.6855 4.10034 15.7281 4.13128 15.7759 4.1523L15.9369 3.78612ZM15.9445 3.79032C15.9481 3.79409 15.9494 3.79836 15.9494 3.80209H15.5494C15.5494 3.89965 15.5866 3.99409 15.6541 4.06537L15.9445 3.79032ZM15.9494 3.80209C15.9494 3.80582 15.9481 3.8101 15.9445 3.81386L15.6541 3.53881C15.5866 3.61009 15.5494 3.70453 15.5494 3.80209H15.9494ZM15.9424 3.81607L18.5092 1.18777L18.223 0.908297L15.6562 3.5366L15.9424 3.81607ZM18.5008 1.19585C18.4983 1.19817 18.4943 1.2 18.4895 1.2V0.8C18.3936 0.8 18.3018 0.83603 18.2314 0.900222L18.5008 1.19585ZM18.4895 1.2C18.4847 1.2 18.4807 1.19817 18.4782 1.19585L18.7476 0.900222C18.6772 0.836029 18.5853 0.8 18.4895 0.8V1.2ZM18.4626 1.17996C18.4606 1.17773 18.46 1.1755 18.46 1.17379H18.86C18.86 1.07929 18.8259 0.987509 18.7632 0.916104L18.4626 1.17996ZM18.46 1.17379C18.46 1.17208 18.4606 1.16985 18.4626 1.16762L18.7632 1.43148C18.8259 1.36007 18.86 1.2683 18.86 1.17379H18.46ZM18.4696 1.16002L15.9102 3.78832L16.1968 4.06738L18.7562 1.43908L18.4696 1.16002ZM15.9066 3.7921C15.909 3.78953 15.9121 3.78725 15.9159 3.78563L16.0742 4.15294C16.1222 4.13227 16.1651 4.10176 16.2004 4.06359L15.9066 3.7921ZM15.9159 3.78563C15.9196 3.784 15.9238 3.78314 15.9282 3.7832L15.9221 4.18316C15.9744 4.18395 16.0263 4.17362 16.0742 4.15294L15.9159 3.78563ZM18.7747 6.88944C18.7807 6.88926 18.786 6.89142 18.7896 6.89456L18.5276 7.19678C18.5992 7.25885 18.6915 7.29214 18.7868 7.28926L18.7747 6.88944ZM18.7896 6.89456C18.7932 6.8976 18.7947 6.90117 18.7951 6.90417L18.3984 6.95553C18.4105 7.04869 18.4561 7.1348 18.5276 7.19678L18.7896 6.89456ZM18.7951 6.90417C18.7955 6.90714 18.7949 6.91048 18.7927 6.91368L18.4614 6.68959C18.4085 6.76768 18.3864 6.86239 18.3984 6.95553L18.7951 6.90417ZM18.7927 6.91368C18.7905 6.91698 18.7864 6.92022 18.7808 6.92159L18.6869 6.53277C18.5944 6.55511 18.5142 6.61141 18.4614 6.68959L18.7927 6.91368ZM18.7861 6.92022L22.3056 5.96699L22.201 5.5809L18.6815 6.53413L18.7861 6.92022ZM22.3284 5.95932C22.3255 5.9605 22.3222 5.96109 22.3188 5.96094L22.3362 5.56132C22.2822 5.55897 22.2283 5.56829 22.1782 5.58857L22.3284 5.95932ZM22.3188 5.96094C22.3155 5.9608 22.3123 5.95993 22.3096 5.95855L22.4912 5.60217C22.4431 5.57765 22.3903 5.56368 22.3362 5.56132L22.3188 5.96094ZM22.3096 5.95855C22.3069 5.95718 22.3048 5.95539 22.3033 5.95352L22.6152 5.703C22.5815 5.66111 22.5393 5.62668 22.4912 5.60217L22.3096 5.95855ZM22.3033 5.95352C22.3018 5.95166 22.3009 5.94974 22.3004 5.94795L22.687 5.845C22.6732 5.79329 22.6488 5.74488 22.6152 5.703L22.3033 5.95352ZM22.3004 5.94795C22.3 5.94615 22.2999 5.94435 22.3002 5.94259L22.6955 6.00359C22.7036 5.95073 22.7007 5.89671 22.687 5.845L22.3004 5.94795ZM22.3002 5.94259C22.3004 5.94082 22.3011 5.93894 22.3023 5.93707L22.6394 6.15237C22.6683 6.10715 22.6873 6.05645 22.6955 6.00359L22.3002 5.94259ZM22.3023 5.93707C22.3035 5.9352 22.3052 5.93331 22.3076 5.93173L22.5273 6.266C22.5724 6.23638 22.6105 6.19759 22.6394 6.15237L22.3023 5.93707ZM22.3076 5.93173C22.3101 5.93015 22.313 5.92896 22.3163 5.92845L22.3779 6.32367C22.4314 6.31534 22.4823 6.29562 22.5273 6.266L22.3076 5.93173ZM22.2947 5.93305L18.7752 6.8888L18.88 7.27482L22.3995 6.31907L22.2947 5.93305ZM18.7656 6.89167C18.7702 6.89017 18.7751 6.88937 18.78 6.88935L18.7814 7.28935C18.8182 7.28923 18.8547 7.28334 18.8896 7.27194L18.7656 6.89167ZM17.7367 22.8H5.268V23.2H17.7367V22.8ZM5.268 22.8C5.27449 22.8 5.27993 22.8027 5.28335 22.8061L4.99785 23.0863C5.06885 23.1587 5.16595 23.2 5.268 23.2V22.8ZM5.28335 22.8061C5.28665 22.8095 5.28783 22.8133 5.28783 22.8164H4.88783C4.88783 22.9169 4.92699 23.0141 4.99785 23.0863L5.28335 22.8061ZM5.28783 22.8164C5.28783 22.8195 5.28665 22.8233 5.28335 22.8266L4.99785 22.5465C4.92699 22.6187 4.88783 22.7159 4.88783 22.8164H5.28783ZM5.28335 22.8266C5.27994 22.8301 5.27449 22.8328 5.268 22.8328V22.4328C5.16595 22.4328 5.06885 22.4741 4.99785 22.5465L5.28335 22.8266ZM5.268 22.8328H17.7367V22.4328H5.268V22.8328ZM17.7367 22.8328C17.7302 22.8328 17.7248 22.8301 17.7214 22.8266L18.0069 22.5465C17.9359 22.4741 17.8388 22.4328 17.7367 22.4328V22.8328ZM17.7214 22.8266C17.7181 22.8233 17.7169 22.8195 17.7169 22.8164H18.1169C18.1169 22.7159 18.0777 22.6187 18.0069 22.5465L17.7214 22.8266ZM17.7169 22.8164C17.7169 22.8133 17.7181 22.8095 17.7214 22.8061L18.0069 23.0863C18.0777 23.0141 18.1169 22.9169 18.1169 22.8164H17.7169ZM17.7214 22.8061C17.7248 22.8027 17.7302 22.8 17.7367 22.8V23.2C17.8388 23.2 17.9359 23.1587 18.0069 23.0863L17.7214 22.8061Z" fill="#0B1547" mask="url(#path-1-outside-1_2005_186)"/>
</svg>
