<svg width="18" height="18" viewBox="0 0 18 18" fill="none" xmlns="http://www.w3.org/2000/svg">
<path d="M15.2985 2.69247C13.623 1.02282 11.3891 0.0952454 9.031 0.0952454C4.12873 0.0952454 0.157268 4.05292 0.157268 8.93817C0.157268 10.4841 0.591648 12.0301 1.3363 13.3287L0.0952148 17.9048L4.81133 16.668C6.11446 17.3482 7.5417 17.7193 9.031 17.7193C13.9333 17.7193 17.9047 13.7616 17.9047 8.87633C17.8427 6.5883 16.9739 4.36211 15.2985 2.69247ZM13.3127 12.0919C13.1266 12.5866 12.2578 13.0814 11.8234 13.1432C11.4511 13.205 10.9547 13.205 10.4582 13.0814C10.148 12.9577 9.7136 12.834 9.21717 12.5866C6.98322 11.6591 5.55598 9.43288 5.43187 9.24736C5.30776 9.12368 4.50106 8.07243 4.50106 6.95933C4.50106 5.84624 5.05954 5.35153 5.2457 5.10417C5.43187 4.85682 5.68008 4.85682 5.86624 4.85682C5.99035 4.85682 6.17651 4.85682 6.30062 4.85682C6.42473 4.85682 6.61089 4.79498 6.79706 5.22785C6.98322 5.66072 7.4176 6.77382 7.47965 6.83566C7.5417 6.95933 7.5417 7.08301 7.47965 7.20669C7.4176 7.33037 7.35554 7.45404 7.23143 7.57772C7.10732 7.7014 6.98322 7.88691 6.92116 7.94875C6.79705 8.07243 6.67295 8.1961 6.79706 8.38162C6.92116 8.62897 7.35554 9.3092 8.03814 9.92759C8.90689 10.6696 9.58949 10.917 9.83771 11.0407C10.0859 11.1644 10.21 11.1025 10.3341 10.9788C10.4582 10.8552 10.8926 10.3605 11.0167 10.1131C11.1408 9.86575 11.327 9.92759 11.5132 9.98943C11.6993 10.0513 12.8163 10.6078 13.0025 10.7315C13.2507 10.8552 13.3748 10.917 13.4368 10.9788C13.4989 11.1644 13.4989 11.5972 13.3127 12.0919Z" fill="white"/>
</svg>
