<svg width="340" height="340" viewBox="0 0 340 340" fill="none" xmlns="http://www.w3.org/2000/svg">
<rect width="340" height="340" fill="#FEFEFE"/>
<g clip-path="url(#clip0_2158_300)">
<path d="M100.251 187.259C99.7239 187.294 99.1953 187.236 98.6887 187.089C98.5066 187.024 98.3488 186.905 98.2358 186.749H98.267L97.3352 184.952C96.9708 184.23 96.5283 183.406 96.0181 182.417C95.5079 181.428 94.9769 180.444 94.4563 179.398C93.9357 178.353 93.3787 177.338 92.8581 176.308C92.3375 175.277 91.8221 174.376 91.4056 173.557L90.3904 171.579C90.242 171.318 90.1115 171.048 90 170.77C90 170.713 90.0937 170.651 90.2759 170.595C90.4581 170.538 90.6924 170.481 90.9735 170.425C91.2661 170.367 91.5615 170.324 91.8585 170.296C92.1657 170.296 92.4572 170.255 92.7279 170.255C92.9986 170.255 93.285 170.255 93.5869 170.286C93.8888 170.317 94.1596 170.332 94.4146 170.368C94.6697 170.404 94.878 170.45 95.0498 170.497C95.1707 170.515 95.2832 170.569 95.3725 170.651L102.494 183.844L104.004 180.851C103.426 179.713 102.822 178.554 102.203 177.374C101.583 176.194 101.031 175.128 100.537 174.159L99.3186 171.764C99.1434 171.442 98.987 171.11 98.8501 170.77C98.8501 170.713 98.9386 170.651 99.1208 170.595C99.303 170.538 99.5373 170.481 99.8184 170.425C100.1 170.368 100.396 170.327 100.703 170.296C101.011 170.265 101.307 170.255 101.578 170.255C101.849 170.255 102.135 170.255 102.432 170.286C102.729 170.317 103.01 170.332 103.26 170.368C103.509 170.404 103.723 170.45 103.9 170.497C104.019 170.515 104.13 170.569 104.217 170.651L106.82 175.468C107.206 174.747 107.58 174.036 107.934 173.33C108.288 172.624 108.637 171.944 108.976 171.27C109.041 171.206 109.091 171.128 109.121 171.043C109.163 170.945 109.205 170.852 109.252 170.76C109.302 170.664 109.367 170.577 109.444 170.502C109.543 170.427 109.66 170.38 109.783 170.363C110.23 170.363 110.475 170.399 110.522 170.476C110.577 170.572 110.602 170.681 110.595 170.79C110.529 170.981 110.447 171.165 110.35 171.342C110.183 171.676 109.965 172.114 109.684 172.655C109.403 173.196 109.075 173.825 108.695 174.546C108.315 175.267 107.914 176.029 107.508 176.807L111.313 183.844L112.875 180.836C113.396 179.805 113.968 178.713 114.53 177.631L116.202 174.402C116.753 173.325 117.279 172.289 117.763 171.28C117.825 171.214 117.875 171.137 117.909 171.053C117.947 170.956 117.991 170.862 118.039 170.77C118.086 170.674 118.149 170.587 118.227 170.512C118.334 170.421 118.466 170.362 118.607 170.342C119.049 170.342 119.299 170.378 119.346 170.456C119.399 170.552 119.424 170.66 119.419 170.77C119.316 171.034 119.194 171.291 119.054 171.537L118.112 173.387C117.722 174.149 117.284 175.009 116.79 175.962C116.295 176.915 115.79 177.904 115.264 178.909C114.739 179.914 114.223 180.897 113.703 181.856C113.182 182.814 112.75 183.674 112.365 184.431C112.172 184.792 111.959 185.178 111.724 185.585C111.49 185.992 111.292 186.379 111.115 186.739C110.986 186.911 110.803 187.036 110.595 187.095C110.086 187.227 109.559 187.279 109.033 187.249C108.506 187.283 107.978 187.225 107.471 187.079C107.29 187.014 107.134 186.895 107.023 186.739L106.138 184.952L104.722 182.211L103.561 184.431C103.364 184.792 103.155 185.178 102.921 185.585C102.687 185.992 102.484 186.379 102.312 186.739C102.182 186.91 101.999 187.035 101.791 187.095C101.29 187.229 100.77 187.285 100.251 187.259Z" fill="#D9D9D9"/>
<path d="M124.495 178.858C124.497 179.905 124.653 180.946 124.958 181.948C125.217 182.79 125.63 183.577 126.176 184.272C126.679 184.899 127.32 185.404 128.05 185.75C128.809 186.101 129.639 186.277 130.476 186.265C130.996 186.265 131.511 186.178 132.002 186.008C132.485 185.84 132.95 185.626 133.392 185.369C133.814 185.12 134.222 184.848 134.615 184.555L135.614 183.787L135.932 183.53C136.043 183.445 136.166 183.378 136.296 183.329C136.477 183.263 136.663 183.217 136.854 183.19C137.146 183.143 137.442 183.123 137.739 183.128C138.25 183.122 138.761 183.165 139.264 183.257C139.68 183.344 139.909 183.442 139.946 183.556C139.909 183.499 139.805 183.556 139.639 183.7L139.076 184.215C138.543 184.742 137.953 185.21 137.317 185.611C136.692 186.001 136.025 186.321 135.328 186.564C134.576 186.831 133.798 187.017 133.006 187.12C132.092 187.239 131.17 187.296 130.247 187.29C128.783 187.32 127.323 187.122 125.921 186.703C124.726 186.341 123.616 185.745 122.657 184.952C121.76 184.211 121.048 183.277 120.575 182.221C120.089 181.106 119.846 179.902 119.861 178.688C119.854 177.498 120.129 176.323 120.663 175.257C121.181 174.204 121.923 173.274 122.839 172.532C123.828 171.741 124.955 171.138 126.166 170.754C127.52 170.315 128.937 170.098 130.362 170.11C132.899 170.113 135.364 170.944 137.374 172.475C138.278 173.16 139.032 174.019 139.592 174.999C140.125 175.944 140.405 177.008 140.404 178.09C140.404 178.584 139.554 178.832 137.853 178.832L124.495 178.858ZM135.875 177.827C135.77 176.92 135.546 176.03 135.208 175.179C134.911 174.413 134.494 173.697 133.975 173.057C133.507 172.48 132.924 172.005 132.262 171.661C131.621 171.323 130.906 171.146 130.179 171.146C129.469 171.144 128.77 171.321 128.149 171.661C127.491 172.021 126.911 172.506 126.442 173.088C125.915 173.723 125.488 174.433 125.177 175.195C124.831 176.029 124.601 176.906 124.495 177.801L135.875 177.827Z" fill="#D9D9D9"/>
<path d="M143.658 141.598C143.658 141.448 143.871 141.309 144.298 141.185C144.847 141.047 145.413 140.984 145.98 141C146.58 140.958 147.183 141.04 147.75 141.242C148.062 141.402 148.218 141.562 148.218 141.711V186.461C148.218 186.615 147.979 186.749 147.505 186.863C146.967 186.983 146.416 187.04 145.865 187.033C145.417 187.033 145.053 187.033 144.761 186.992C144.531 186.972 144.303 186.934 144.079 186.878C143.955 186.85 143.839 186.79 143.746 186.703C143.687 186.636 143.655 186.55 143.658 186.461V141.598Z" fill="#D9D9D9"/>
<path d="M153.991 141.598C153.991 141.448 154.205 141.309 154.632 141.185C155.183 141.047 155.75 140.985 156.319 141C156.919 140.958 157.522 141.041 158.089 141.242C158.396 141.402 158.552 141.561 158.552 141.711V186.461C158.552 186.615 158.318 186.749 157.839 186.863C157.301 186.983 156.75 187.04 156.199 187.033C155.756 187.033 155.387 187.033 155.095 186.992C154.865 186.971 154.637 186.933 154.413 186.878C154.289 186.849 154.174 186.789 154.08 186.703C154.02 186.636 153.989 186.55 153.991 186.461V141.598Z" fill="#D9D9D9"/>
<path d="M166.132 187.033C165.528 187.063 164.922 187.015 164.33 186.888C164.039 186.796 163.893 186.652 163.893 186.461V170.77C163.893 170.595 164.117 170.456 164.565 170.342C165.115 170.213 165.681 170.154 166.246 170.167C167.1 170.167 167.683 170.353 168.006 170.723C168.314 171.09 168.497 171.545 168.526 172.022C169.476 171.459 170.49 171.01 171.546 170.682C172.727 170.327 173.956 170.153 175.19 170.167C176.349 170.135 177.504 170.31 178.6 170.682C179.421 170.973 180.162 171.451 180.76 172.078C181.302 172.664 181.691 173.371 181.895 174.139C182.112 174.961 182.219 175.808 182.213 176.658V186.445C182.213 186.621 181.999 186.755 181.578 186.863C181.023 186.978 180.457 187.03 179.891 187.017C178.361 187.017 177.595 186.827 177.595 186.445V176.405C177.599 175.707 177.561 175.008 177.481 174.314C177.421 173.751 177.279 173.199 177.059 172.676C176.885 172.258 176.605 171.89 176.247 171.609C175.872 171.343 175.418 171.207 174.956 171.223C174.375 171.238 173.805 171.379 173.285 171.635C172.66 171.933 172.067 172.292 171.515 172.707C170.915 173.147 170.351 173.633 169.828 174.159C169.329 174.647 168.86 175.163 168.422 175.705V186.461C168.422 186.636 168.209 186.77 167.782 186.878C167.24 186.992 166.686 187.043 166.132 187.033Z" fill="#D9D9D9"/>
<path d="M187.167 141.61C187.167 141.44 187.385 141.296 187.833 141.183C188.384 141.058 188.949 141.001 189.515 141.013C190.115 140.966 190.719 141.049 191.285 141.255C191.576 141.415 191.722 141.574 191.722 141.724V179.015C192.627 178.393 193.496 177.723 194.325 177.006C195.194 176.253 196.069 175.46 196.928 174.698C197.787 173.935 198.672 173.152 199.531 172.39C200.357 171.67 201.227 170.999 202.134 170.381L202.654 170.098C203.06 170.134 203.456 170.18 203.841 170.226C204.227 170.273 204.57 170.324 204.883 170.381C205.118 170.425 205.351 170.482 205.58 170.551C205.752 170.608 205.84 170.664 205.84 170.726C205.621 170.828 205.411 170.95 205.216 171.092C204.799 171.36 204.263 171.71 203.602 172.122L201.353 173.606C200.51 174.157 199.666 174.713 198.812 175.285L196.36 176.908C195.574 177.423 194.903 177.866 194.34 178.247L193.268 178.958C193.711 178.958 194.179 178.927 194.674 178.917H196.111C197.437 178.897 198.763 178.978 200.077 179.159C200.89 179.256 201.674 179.514 202.384 179.916C202.885 180.207 203.265 180.666 203.456 181.209C203.645 181.813 203.735 182.442 203.722 183.074C203.722 183.362 203.722 183.661 203.722 183.975C203.722 184.29 203.722 184.614 203.675 184.954C203.628 185.294 203.617 185.83 203.617 186.293C203.617 186.757 203.591 187.262 203.591 187.756C203.579 188.392 203.631 189.027 203.748 189.652C203.857 190.136 204.034 190.399 204.268 190.435C204.206 190.435 204.195 190.363 204.221 190.281C204.266 190.168 204.325 190.063 204.398 189.966C204.482 189.843 204.581 189.709 204.685 189.565C204.789 189.42 204.903 189.286 205.023 189.152H204.992C205.065 189.063 205.153 188.986 205.252 188.926C205.413 188.831 205.589 188.763 205.773 188.725C206.064 188.658 206.36 188.615 206.658 188.596C207.022 188.57 207.501 188.555 208.079 188.555C208.329 188.709 208.574 188.843 208.808 188.967C209.042 189.091 209.172 189.137 209.214 189.096C209.181 189.272 209.111 189.439 209.009 189.586C208.907 189.733 208.774 189.858 208.62 189.951C208.21 190.258 207.762 190.512 207.288 190.708C206.759 190.922 206.214 191.094 205.658 191.223C205.184 191.346 204.696 191.413 204.206 191.424C203.297 191.453 202.39 191.328 201.525 191.053C200.919 190.859 200.37 190.521 199.926 190.069C199.55 189.668 199.284 189.176 199.156 188.643C199.02 188.098 198.952 187.539 198.953 186.979C198.953 186.278 198.979 185.613 199.041 184.985C199.041 184.717 199.078 184.439 199.099 184.145C199.12 183.852 199.125 183.589 199.125 183.362C199.139 182.727 199.087 182.091 198.969 181.467C198.899 181.089 198.735 180.734 198.49 180.436C198.273 180.207 197.986 180.056 197.672 180.009C197.299 179.949 196.921 179.922 196.543 179.926L191.722 180.179V186.474C191.722 186.649 191.508 186.783 191.082 186.891C190.529 187.007 189.965 187.059 189.4 187.046C188.806 187.074 188.21 187.022 187.63 186.891C187.318 186.783 187.167 186.649 187.167 186.474V141.61Z" fill="#D9D9D9"/>
<path d="M211.715 178.857C211.719 179.905 211.877 180.946 212.184 181.948C212.433 182.79 212.839 183.578 213.381 184.272C213.882 184.901 214.523 185.407 215.255 185.75C216.012 186.101 216.84 186.278 217.676 186.265C218.195 186.265 218.711 186.178 219.201 186.008C219.686 185.84 220.153 185.626 220.596 185.369C221.017 185.12 221.424 184.848 221.815 184.555C222.189 184.272 222.528 184.04 222.814 183.787L223.137 183.53C223.247 183.444 223.37 183.377 223.501 183.329C223.67 183.265 223.844 183.219 224.022 183.19C224.316 183.143 224.614 183.123 224.912 183.128C225.422 183.122 225.931 183.165 226.432 183.257C226.849 183.344 227.078 183.442 227.114 183.556C227.078 183.499 226.974 183.556 226.812 183.7L226.245 184.215C225.713 184.742 225.125 185.21 224.49 185.611C223.865 186 223.198 186.32 222.502 186.564C221.748 186.83 220.968 187.016 220.175 187.12C219.262 187.239 218.342 187.296 217.421 187.29C215.955 187.313 214.495 187.106 213.095 186.677C211.898 186.315 210.786 185.72 209.825 184.926C208.929 184.186 208.216 183.252 207.743 182.196C207.26 181.08 207.018 179.876 207.035 178.662C207.024 177.474 207.291 176.299 207.816 175.231C208.336 174.179 209.078 173.25 209.992 172.506C211.003 171.72 212.152 171.126 213.381 170.754C214.735 170.315 216.152 170.098 217.577 170.11C220.119 170.112 222.589 170.943 224.605 172.475C225.504 173.163 226.256 174.021 226.817 174.999C227.351 175.944 227.63 177.008 227.63 178.09C227.63 178.584 226.778 178.832 225.073 178.832L211.715 178.857ZM223.1 177.827C222.994 176.919 222.768 176.029 222.429 175.179C222.129 174.414 221.711 173.7 221.19 173.062C220.723 172.484 220.14 172.009 219.477 171.666C218.836 171.327 218.121 171.15 217.395 171.151C216.685 171.149 215.986 171.326 215.364 171.666C214.707 172.021 214.126 172.499 213.652 173.072C213.125 173.708 212.698 174.418 212.387 175.179C212.043 176.014 211.814 176.891 211.705 177.786L223.1 177.827Z" fill="#D9D9D9"/>
<path d="M242.232 186.435C240.788 187.03 239.236 187.329 237.672 187.316C236.35 187.366 235.033 187.129 233.814 186.621C232.902 186.216 232.11 185.584 231.518 184.787C230.969 184.018 230.597 183.138 230.43 182.211C230.246 181.239 230.154 180.253 230.154 179.264V170.77C230.154 170.595 230.378 170.456 230.821 170.342C231.373 170.213 231.94 170.154 232.508 170.167C232.895 170.163 233.283 170.178 233.668 170.213C233.895 170.228 234.119 170.271 234.335 170.342C234.454 170.376 234.561 170.444 234.642 170.538C234.687 170.607 234.712 170.687 234.715 170.77V179.342C234.715 180.14 234.746 180.949 234.814 181.778C234.87 182.542 235.011 183.297 235.235 184.029C235.413 184.641 235.72 185.208 236.136 185.693C236.329 185.913 236.57 186.085 236.841 186.199C237.111 186.312 237.404 186.363 237.698 186.348C238.119 186.341 238.538 186.29 238.947 186.193C239.414 186.089 239.868 185.935 240.301 185.735C240.726 185.543 241.125 185.299 241.488 185.008C241.828 184.749 242.094 184.406 242.258 184.014V170.77C242.258 170.615 242.487 170.476 242.94 170.353C243.476 170.219 244.028 170.157 244.58 170.167C245.185 170.136 245.792 170.19 246.381 170.327C246.673 170.43 246.819 170.579 246.819 170.77V182.278L247.542 182.134C247.792 182.283 248.063 182.427 248.297 182.561C248.478 182.667 248.675 182.744 248.88 182.788L248.417 183.046C248.189 183.169 247.97 183.306 247.761 183.458C247.547 183.616 247.343 183.788 247.152 183.973C247.002 184.092 246.887 184.249 246.819 184.426V193.657C246.841 194.285 246.703 194.908 246.416 195.469C246.129 196.029 245.704 196.508 245.179 196.862C244.086 197.629 242.576 198.015 240.66 198.015C240.107 198.023 239.554 197.993 239.005 197.928C238.599 197.871 238.395 197.748 238.395 197.562C238.396 197.487 238.422 197.413 238.469 197.354C238.516 197.294 238.582 197.252 238.656 197.232C238.873 197.157 239.098 197.109 239.327 197.088C239.622 197.065 239.918 197.065 240.212 197.088L241.129 197.145H241.155C241.405 197.145 241.608 196.985 241.764 196.671C241.937 196.298 242.05 195.899 242.097 195.491C242.169 194.979 242.214 194.463 242.232 193.946C242.232 193.374 242.258 192.833 242.258 192.323L242.232 186.435ZM249 182.731C248.992 182.74 248.983 182.748 248.972 182.753C248.961 182.758 248.95 182.762 248.938 182.762H248.896C248.882 182.767 248.868 182.767 248.854 182.762C248.948 182.829 249 182.809 249 182.726V182.731Z" fill="#D9D9D9"/>
</g>
<defs>
<clipPath id="clip0_2158_300">
<rect width="159" height="57" fill="white" transform="translate(90 141)"/>
</clipPath>
</defs>
</svg>
