<svg width="32" height="32" viewBox="0 0 32 32" fill="none" xmlns="http://www.w3.org/2000/svg">
<rect width="32" height="32" rx="6" fill="white"/>
<path d="M13.3677 11.2214C11.841 12.4989 11.841 14.57 13.3677 15.8475L16.0224 18.0688L18.6772 15.8475C20.2037 14.57 20.2037 12.4989 18.6772 11.2214L16.0224 8.99997L13.3677 11.2214Z" fill="#C2A84D"/>
<path d="M25.2457 11.6988C23.0867 11.6988 21.3364 13.1634 21.3364 14.97V18.1116H25.0908C27.2498 18.1116 29 16.647 29 14.8404V11.6988H25.2457Z" fill="#C2A84D"/>
<path d="M3 14.8279C3 16.6345 4.75025 18.0991 6.90924 18.0991H10.6636V14.9576C10.6636 13.151 8.91333 11.6864 6.75434 11.6864H3V14.8279Z" fill="#C2A84D"/>
<path d="M3.0293 22H28.9919V19.4103H3.0293V22Z" fill="#C2A84D"/>
</svg>
