<svg xmlns="http://www.w3.org/2000/svg" style="border: 0 !important; clip: rect(0 0 0 0) !important; height: 1px !important; margin: -1px !important; overflow: hidden !important; padding: 0 !important; position: absolute !important; width: 1px !important;" class="root-svg-symbols-element">
  <defs>
      <clipPath id="clip0_2158_300"><path fill="#fff" transform="translate(90 141)" d="M0 0H159V57H0z"/></clipPath>
  </defs>
    <symbol id="arrow-blue" viewBox="0 0 19 20">
      <path d="M13.9859 11.6338L13.5801 10L13.9859 8.36623L17.072 10L13.9859 11.6338ZM0.771934 18.0512L0.771976 18.0512L0.771934 18.0512Z" fill="#7D90DC" stroke="#7D90DC" stroke-width="2"/>
    </symbol>
    <symbol id="arrow-header" viewBox="0 0 14 15">
      <path d="M12.25 1.65H7.6V1.35H12.25C12.5021 1.35 12.703 1.43276 12.8851 1.61489C13.0672 1.79702 13.15 1.9979 13.15 2.25V12.75C13.15 13.0021 13.0672 13.203 12.8851 13.3851C12.703 13.5672 12.5021 13.65 12.25 13.65H7.6V13.35H12.25H12.85V12.75V2.25V1.65H12.25ZM6.38125 7.65H0.85V7.35H6.38125H7.82978L6.80551 6.32574L5.30616 4.82639L5.51141 4.60994L8.40147 7.5L5.51141 10.3901L5.30616 10.1736L6.80551 8.67426L7.82978 7.65H6.38125Z" stroke="#0B1547" stroke-width="1.2"/>
    </symbol>
    <symbol id="arrow-white" viewBox="0 0 20 20">
      <path d="M17.5 10L2.5 10" stroke="#fff" stroke-width="2" stroke-linecap="round" stroke-linejoin="round"/><path d="M6.66667 14.1667L2.5 10L6.66667 5.83337" stroke="#fff" stroke-width="2" stroke-linecap="round" stroke-linejoin="round"/>
    </symbol>
    <symbol id="arrow-white1" viewBox="0 0 7 12">
      <path d="M5.66667 10.1667L1.5 6.00004L5.66667 1.83337" stroke="#fff" stroke-width="2" stroke-linecap="round" stroke-linejoin="round"/>
    </symbol>
    <symbol id="arrow-white2" viewBox="0 0 18 2">
      <path d="M16.5 1L1.5 1" stroke="#fff" stroke-width="2" stroke-linecap="round" stroke-linejoin="round"/>
    </symbol>
    <symbol id="arrow_custom" viewBox="0 0 64 64">
      <path d="m25 54a4.47 4.47 0 0 1 -3.18-1.32l-17.5-17.5a4.48 4.48 0 0 1 -1.32-3.18 4.43 4.43 0 0 1 1.35-3.18l17.47-17.5a4.5 4.5 0 1 1 6.36 6.36l-9.82 9.82h38.14a4.5 4.5 0 0 1 0 9h-38.14l9.82 9.82a4.5 4.5 0 0 1 -3.18 7.68zm0-42a2.49 2.49 0 0 0 -1.77.73l-17.48 17.48a2.51 2.51 0 0 0 -.75 1.79 2.45 2.45 0 0 0 .72 1.77l17.51 17.5a2.57 2.57 0 0 0 3.54 0 2.51 2.51 0 0 0 0-3.54l-11.53-11.52a1 1 0 0 1 .76-1.71h40.5a2.5 2.5 0 0 0 0-5h-40.5a1 1 0 0 1 -.71-1.71l11.48-11.52a2.5 2.5 0 0 0 -1.77-4.27z" fill="#fff" id="Layer_10" data-name="Layer 10"/>
    </symbol>
    <symbol id="bottle" viewBox="0 0 24 22">
      <path fill-rule="evenodd" clip-rule="evenodd" d="M2.04481 0.29136L1.9322 0.382722L1.91841 1.96734L1.90463 3.55191L2.04591 3.6936C2.17765 3.82566 2.21165 3.83528 2.54858 3.83528H2.90998V4.71642V5.5975L2.75497 5.63099C2.66973 5.64936 2.46821 5.72398 2.30724 5.79673C1.56145 6.13381 0.899658 6.77038 0.548562 7.48816C0.138799 8.32601 0.170661 7.78181 0.154921 14.2103C0.14271 19.2107 0.150008 19.9527 0.21354 20.1721C0.307264 20.4954 0.651969 20.8862 0.977309 21.0382L1.21675 21.15L7.2087 21.1504L13.2006 21.1509L13.4621 21.2669C13.7908 21.4127 14.4031 21.5971 14.9296 21.7089C15.5435 21.8392 16.9773 21.8276 17.6244 21.687C20.5645 21.0483 22.6775 18.901 23.2589 15.961C23.3899 15.2985 23.3777 13.9258 23.2348 13.2584C22.919 11.7834 22.3025 10.6449 21.2532 9.5989C20.2416 8.59058 19.1978 8.01146 17.7914 7.6782C16.9972 7.49007 15.422 7.46965 14.8342 7.63989C14.7855 7.654 14.7133 7.56522 14.6083 7.36231C14.413 6.98476 14.1012 6.60224 13.7495 6.30845C13.448 6.05666 12.7339 5.67495 12.4723 5.62573L12.3062 5.59444V4.71489V3.83528H12.6676C13.0046 3.83528 13.0386 3.82566 13.1703 3.6936L13.3116 3.55191L13.2978 1.97657C13.2849 0.505414 13.278 0.394537 13.1932 0.300592L13.1023 0.199951H7.62986C2.31382 0.199951 2.15418 0.202582 2.04481 0.29136ZM12.497 1.9937V3.02211H7.60811H2.71919V1.9937V0.965283H7.60811H12.497V1.9937ZM11.4954 4.64844V5.46161H7.60811H3.72083V4.64844V3.83528H7.60811H11.4954V4.64844ZM12.2721 6.42564C12.9147 6.64544 13.4397 7.05216 13.8053 7.61348L13.9763 7.87599L13.7293 7.96018C12.755 8.29229 11.594 9.10067 10.8437 9.96937L10.5653 10.2917L5.75986 10.2922L0.954414 10.2928L0.955225 9.58723C0.956226 8.75359 1.02696 8.36231 1.26363 7.88202C1.65594 7.08569 2.47265 6.4763 3.34679 6.32758C3.48797 6.30352 5.45155 6.28745 7.7512 6.29147L11.9008 6.29869L12.2721 6.42564ZM17.2485 8.40493C20.4065 8.95148 22.6933 11.7588 22.5465 14.9087C22.3496 19.1334 18.2328 22.0073 14.2642 20.6907C11.6652 19.8285 9.91816 17.4208 9.91244 14.6934C9.90967 13.3837 10.253 12.2344 10.977 11.1299C11.2946 10.6452 12.1709 9.75924 12.6493 9.43899C13.4811 8.88226 14.4057 8.52155 15.4065 8.36346C15.7295 8.31247 16.8614 8.33792 17.2485 8.40493ZM9.82272 11.4952C9.5622 12.0148 9.27946 12.8859 9.18049 13.4737C9.09912 13.9572 9.06773 15.248 9.13236 15.4523L9.1647 15.5544H5.05953H0.954414V13.3302V11.1059H5.48613H10.0179L9.82272 11.4952ZM12.6548 11.442C12.5156 11.4972 12.4322 11.6332 12.2319 12.1312C11.7645 13.2939 11.5991 14.6039 11.7879 15.6501C12.0143 16.9046 12.8463 18.0938 13.8741 18.6321C14.5434 18.9826 14.7118 19.0121 16.1478 19.0307C17.313 19.0458 17.4744 19.0382 17.8172 18.9518C18.2944 18.8317 18.8769 18.5408 19.2551 18.2338C19.8846 17.723 20.4817 16.7869 20.7045 15.961C20.8342 15.4806 20.8839 14.2745 20.7987 13.6782C20.6743 12.8076 20.3848 11.8821 20.1886 11.7273C20.0429 11.6123 19.9004 11.6091 19.3141 11.7077C18.439 11.8548 17.476 12.2335 16.6849 12.7416L16.3177 12.9775L15.9695 12.7178C15.7779 12.575 15.4689 12.3687 15.2828 12.2593C14.471 11.7823 12.972 11.3162 12.6548 11.442ZM13.7187 12.4677C14.6733 12.788 15.322 13.1709 15.9074 13.7596C16.3599 14.2147 16.596 14.6023 16.7968 15.2196C16.9972 15.8354 17.0067 16.4526 16.8241 16.9894C16.7091 17.3274 16.4884 17.7768 16.415 17.8223C16.3967 17.8336 15.9769 17.0535 15.4821 16.0888C14.9873 15.124 14.5641 14.3144 14.5416 14.2895C14.4894 14.2317 13.8325 14.5456 13.8325 14.6283C13.8325 14.6612 14.2398 15.4804 14.7374 16.4487L15.6424 18.2092L15.459 18.2236C14.9768 18.2615 14.1794 17.9345 13.7142 17.508C12.5183 16.412 12.2253 14.7468 12.8799 12.7668C13.0061 12.3854 13.0509 12.3018 13.129 12.3018C13.1814 12.3018 13.4467 12.3764 13.7187 12.4677ZM19.795 12.8877C20.148 14.1991 20.1001 15.5214 19.6683 16.3838C19.3207 17.0781 18.7658 17.6508 18.1584 17.9419C17.7958 18.1157 17.2476 18.2777 17.1962 18.2262C17.184 18.2139 17.2597 18.0398 17.3645 17.8393C17.6538 17.2856 17.7576 16.8388 17.7562 16.1523C17.7553 15.7242 17.7297 15.4837 17.6555 15.206C17.5429 14.7846 17.2525 14.1355 17.0347 13.8179L16.8884 13.6046L17.1423 13.4356C17.6817 13.0764 18.3207 12.7939 19.0029 12.6128C19.6905 12.4303 19.67 12.4233 19.795 12.8877ZM9.43514 16.8579C9.52071 17.1275 9.67586 17.5286 9.77989 17.749C9.88397 17.9695 9.9691 18.1578 9.9691 18.1676C9.9691 18.1773 8.75641 18.1853 7.27424 18.1853H4.57937V18.5679V18.9506L7.54849 18.9517L10.5176 18.9528L10.6607 19.1481C10.7394 19.2556 11.047 19.5784 11.3443 19.8655L11.8848 20.3876L6.64617 20.3746L1.40753 20.3617L1.24713 20.2469C0.960758 20.0421 0.954414 19.9953 0.954414 18.0911V16.3676H5.11701H9.27955L9.43514 16.8579Z" fill="#0B1547"/>
    </symbol>
    <symbol id="bottle_3840140-traced" viewBox="0 0 24 22">
      <path fill-rule="evenodd" clip-rule="evenodd" d="M2.04481 0.29136L1.9322 0.382722L1.91841 1.96734L1.90463 3.55191L2.04591 3.6936C2.17765 3.82566 2.21165 3.83528 2.54858 3.83528H2.90998V4.71642V5.5975L2.75497 5.63099C2.66973 5.64936 2.46821 5.72398 2.30724 5.79673C1.56145 6.13381 0.899658 6.77038 0.548562 7.48816C0.138799 8.32601 0.170661 7.78181 0.154921 14.2103C0.14271 19.2107 0.150008 19.9527 0.21354 20.1721C0.307264 20.4954 0.651969 20.8862 0.977309 21.0382L1.21675 21.15L7.2087 21.1504L13.2006 21.1509L13.4621 21.2669C13.7908 21.4127 14.4031 21.5971 14.9296 21.7089C15.5435 21.8392 16.9773 21.8276 17.6244 21.687C20.5645 21.0483 22.6775 18.901 23.2589 15.961C23.3899 15.2985 23.3777 13.9258 23.2348 13.2584C22.919 11.7834 22.3025 10.6449 21.2532 9.5989C20.2416 8.59058 19.1978 8.01146 17.7914 7.6782C16.9972 7.49007 15.422 7.46965 14.8342 7.63989C14.7855 7.654 14.7133 7.56522 14.6083 7.36231C14.413 6.98476 14.1012 6.60224 13.7495 6.30845C13.448 6.05666 12.7339 5.67495 12.4723 5.62573L12.3062 5.59444V4.71489V3.83528H12.6676C13.0046 3.83528 13.0386 3.82566 13.1703 3.6936L13.3116 3.55191L13.2978 1.97657C13.2849 0.505414 13.278 0.394537 13.1932 0.300592L13.1023 0.199951H7.62986C2.31382 0.199951 2.15418 0.202582 2.04481 0.29136ZM12.497 1.9937V3.02211H7.60811H2.71919V1.9937V0.965283H7.60811H12.497V1.9937ZM11.4954 4.64844V5.46161H7.60811H3.72083V4.64844V3.83528H7.60811H11.4954V4.64844ZM12.2721 6.42564C12.9147 6.64544 13.4397 7.05216 13.8053 7.61348L13.9763 7.87599L13.7293 7.96018C12.755 8.29229 11.594 9.10067 10.8437 9.96937L10.5653 10.2917L5.75986 10.2922L0.954414 10.2928L0.955225 9.58723C0.956226 8.75359 1.02696 8.36231 1.26363 7.88202C1.65594 7.08569 2.47265 6.4763 3.34679 6.32758C3.48797 6.30352 5.45155 6.28745 7.7512 6.29147L11.9008 6.29869L12.2721 6.42564ZM17.2485 8.40493C20.4065 8.95148 22.6933 11.7588 22.5465 14.9087C22.3496 19.1334 18.2328 22.0073 14.2642 20.6907C11.6652 19.8285 9.91816 17.4208 9.91244 14.6934C9.90967 13.3837 10.253 12.2344 10.977 11.1299C11.2946 10.6452 12.1709 9.75924 12.6493 9.43899C13.4811 8.88226 14.4057 8.52155 15.4065 8.36346C15.7295 8.31247 16.8614 8.33792 17.2485 8.40493ZM9.82272 11.4952C9.5622 12.0148 9.27946 12.8859 9.18049 13.4737C9.09912 13.9572 9.06773 15.248 9.13236 15.4523L9.1647 15.5544H5.05953H0.954414V13.3302V11.1059H5.48613H10.0179L9.82272 11.4952ZM12.6548 11.442C12.5156 11.4972 12.4322 11.6332 12.2319 12.1312C11.7645 13.2939 11.5991 14.6039 11.7879 15.6501C12.0143 16.9046 12.8463 18.0938 13.8741 18.6321C14.5434 18.9826 14.7118 19.0121 16.1478 19.0307C17.313 19.0458 17.4744 19.0382 17.8172 18.9518C18.2944 18.8317 18.8769 18.5408 19.2551 18.2338C19.8846 17.723 20.4817 16.7869 20.7045 15.961C20.8342 15.4806 20.8839 14.2745 20.7987 13.6782C20.6743 12.8076 20.3848 11.8821 20.1886 11.7273C20.0429 11.6123 19.9004 11.6091 19.3141 11.7077C18.439 11.8548 17.476 12.2335 16.6849 12.7416L16.3177 12.9775L15.9695 12.7178C15.7779 12.575 15.4689 12.3687 15.2828 12.2593C14.471 11.7823 12.972 11.3162 12.6548 11.442ZM13.7187 12.4677C14.6733 12.788 15.322 13.1709 15.9074 13.7596C16.3599 14.2147 16.596 14.6023 16.7968 15.2196C16.9972 15.8354 17.0067 16.4526 16.8241 16.9894C16.7091 17.3274 16.4884 17.7768 16.415 17.8223C16.3967 17.8336 15.9769 17.0535 15.4821 16.0888C14.9873 15.124 14.5641 14.3144 14.5416 14.2895C14.4894 14.2317 13.8325 14.5456 13.8325 14.6283C13.8325 14.6612 14.2398 15.4804 14.7374 16.4487L15.6424 18.2092L15.459 18.2236C14.9768 18.2615 14.1794 17.9345 13.7142 17.508C12.5183 16.412 12.2253 14.7468 12.8799 12.7668C13.0061 12.3854 13.0509 12.3018 13.129 12.3018C13.1814 12.3018 13.4467 12.3764 13.7187 12.4677ZM19.795 12.8877C20.148 14.1991 20.1001 15.5214 19.6683 16.3838C19.3207 17.0781 18.7658 17.6508 18.1584 17.9419C17.7958 18.1157 17.2476 18.2777 17.1962 18.2262C17.184 18.2139 17.2597 18.0398 17.3645 17.8393C17.6538 17.2856 17.7576 16.8388 17.7562 16.1523C17.7553 15.7242 17.7297 15.4837 17.6555 15.206C17.5429 14.7846 17.2525 14.1355 17.0347 13.8179L16.8884 13.6046L17.1423 13.4356C17.6817 13.0764 18.3207 12.7939 19.0029 12.6128C19.6905 12.4303 19.67 12.4233 19.795 12.8877ZM9.43514 16.8579C9.52071 17.1275 9.67586 17.5286 9.77989 17.749C9.88397 17.9695 9.9691 18.1578 9.9691 18.1676C9.9691 18.1773 8.75641 18.1853 7.27424 18.1853H4.57937V18.5679V18.9506L7.54849 18.9517L10.5176 18.9528L10.6607 19.1481C10.7394 19.2556 11.047 19.5784 11.3443 19.8655L11.8848 20.3876L6.64617 20.3746L1.40753 20.3617L1.24713 20.2469C0.960758 20.0421 0.954414 19.9953 0.954414 18.0911V16.3676H5.11701H9.27955L9.43514 16.8579Z" fill="#0B1547"/>
    </symbol>
    <symbol id="cart-header" viewBox="0 0 20 21">
      <path d="M14.55 11.5C15.3 11.5 15.96 11.09 16.3 10.47L19.88 3.98C20.25 3.32 19.77 2.5 19.01 2.5H4.21L3.27 0.5H0V2.5H2L5.6 10.09L4.25 12.53C3.52 13.87 4.48 15.5 6 15.5H18V13.5H6L7.1 11.5H14.55ZM5.16 4.5H17.31L14.55 9.5H7.53L5.16 4.5ZM6 16.5C4.9 16.5 4.01 17.4 4.01 18.5C4.01 19.6 4.9 20.5 6 20.5C7.1 20.5 8 19.6 8 18.5C8 17.4 7.1 16.5 6 16.5ZM16 16.5C14.9 16.5 14.01 17.4 14.01 18.5C14.01 19.6 14.9 20.5 16 20.5C17.1 20.5 18 19.6 18 18.5C18 17.4 17.1 16.5 16 16.5Z" fill="#0B1547"/>
    </symbol>
    <symbol id="cart-white" viewBox="0 0 14 14">
      <path d="M10.3667 7.66668C10.8667 7.66668 11.3067 7.39334 11.5333 6.98001L13.92 2.65334C14.1667 2.21334 13.8467 1.66668 13.34 1.66668H3.47332L2.84666 0.333344H0.666656V1.66668H1.99999L4.39999 6.72668L3.49999 8.35334C3.01332 9.24668 3.65332 10.3333 4.66666 10.3333H12.6667V9.00001H4.66666L5.39999 7.66668H10.3667ZM4.10666 3.00001H12.2067L10.3667 6.33334H5.68666L4.10666 3.00001ZM4.66666 11C3.93332 11 3.33999 11.6 3.33999 12.3333C3.33999 13.0667 3.93332 13.6667 4.66666 13.6667C5.39999 13.6667 5.99999 13.0667 5.99999 12.3333C5.99999 11.6 5.39999 11 4.66666 11ZM11.3333 11C10.6 11 10.0067 11.6 10.0067 12.3333C10.0067 13.0667 10.6 13.6667 11.3333 13.6667C12.0667 13.6667 12.6667 13.0667 12.6667 12.3333C12.6667 11.6 12.0667 11 11.3333 11Z" fill="#fff"/>
    </symbol>
    <symbol id="cart" viewBox="0 0 21 27">
      <path clip-rule="evenodd" d="M1.16673 9.9C1.14893 8.59317 2.19325 7.51901 3.50006 7.5H17.5001C18.8069 7.51901 19.8512 8.59317 19.8334 9.9V20.7C19.8697 23.314 17.7807 25.4627 15.1667 25.5H5.83339C3.21945 25.4627 1.13039 23.314 1.16673 20.7V9.9Z" stroke="#fff" stroke-width="1.5" stroke-linecap="round" stroke-linejoin="round"/><path d="M15.1667 11.1V6.3C15.203 3.68604 13.114 1.53729 10.5 1.5C7.88608 1.53729 5.79701 3.68604 5.83335 6.3V11.1" stroke="#fff" stroke-width="1.5" stroke-linecap="round" stroke-linejoin="round"/>
    </symbol>
    <symbol id="close" viewBox="0 0 12 12">
      <path d="M1 11L11 1M1 1L11 11" stroke="#0A2A3C" stroke-width="2"/>
    </symbol>
    <symbol id="hamburger" viewBox="0 0 18 10">
      <path fill="#0B1547" d="M-3 -7H21V17H-3z"/>
    </symbol>
    <symbol id="heart-blue" viewBox="0 0 20 19">
      <path d="M10 18.9999L8.55 17.6999C6.86667 16.1832 5.475 14.8749 4.375 13.7749C3.275 12.6749 2.4 11.6874 1.75 10.8124C1.1 9.9374 0.645833 9.13324 0.3875 8.3999C0.129167 7.66657 0 6.91657 0 6.1499C0 4.58324 0.525 3.2749 1.575 2.2249C2.625 1.1749 3.93333 0.649902 5.5 0.649902C6.36667 0.649902 7.19167 0.833236 7.975 1.1999C8.75833 1.56657 9.43333 2.08324 10 2.7499C10.5667 2.08324 11.2417 1.56657 12.025 1.1999C12.8083 0.833236 13.6333 0.649902 14.5 0.649902C16.0667 0.649902 17.375 1.1749 18.425 2.2249C19.475 3.2749 20 4.58324 20 6.1499C20 6.91657 19.8708 7.66657 19.6125 8.3999C19.3542 9.13324 18.9 9.9374 18.25 10.8124C17.6 11.6874 16.725 12.6749 15.625 13.7749C14.525 14.8749 13.1333 16.1832 11.45 17.6999L10 18.9999ZM10 16.2999C11.6 14.8666 12.9167 13.6374 13.95 12.6124C14.9833 11.5874 15.8 10.6957 16.4 9.9374C17 9.17907 17.4167 8.50407 17.65 7.9124C17.8833 7.32074 18 6.73324 18 6.1499C18 5.1499 17.6667 4.31657 17 3.6499C16.3333 2.98324 15.5 2.6499 14.5 2.6499C13.7167 2.6499 12.9917 2.87074 12.325 3.3124C11.6583 3.75407 11.2 4.31657 10.95 4.9999H9.05C8.8 4.31657 8.34167 3.75407 7.675 3.3124C7.00833 2.87074 6.28333 2.6499 5.5 2.6499C4.5 2.6499 3.66667 2.98324 3 3.6499C2.33333 4.31657 2 5.1499 2 6.1499C2 6.73324 2.11667 7.32074 2.35 7.9124C2.58333 8.50407 3 9.17907 3.6 9.9374C4.2 10.6957 5.01667 11.5874 6.05 12.6124C7.08333 13.6374 8.4 14.8666 10 16.2999Z" fill="#7D90DC"/>
    </symbol>
    <symbol id="heart-header" viewBox="0 0 20 19">
      <path d="M10 18.4999L8.55 17.1999C6.86667 15.6832 5.475 14.3749 4.375 13.2749C3.275 12.1749 2.4 11.1874 1.75 10.3124C1.1 9.4374 0.645833 8.63324 0.3875 7.8999C0.129167 7.16657 0 6.41657 0 5.6499C0 4.08324 0.525 2.7749 1.575 1.7249C2.625 0.674902 3.93333 0.149902 5.5 0.149902C6.36667 0.149902 7.19167 0.333236 7.975 0.699902C8.75833 1.06657 9.43333 1.58324 10 2.2499C10.5667 1.58324 11.2417 1.06657 12.025 0.699902C12.8083 0.333236 13.6333 0.149902 14.5 0.149902C16.0667 0.149902 17.375 0.674902 18.425 1.7249C19.475 2.7749 20 4.08324 20 5.6499C20 6.41657 19.8708 7.16657 19.6125 7.8999C19.3542 8.63324 18.9 9.4374 18.25 10.3124C17.6 11.1874 16.725 12.1749 15.625 13.2749C14.525 14.3749 13.1333 15.6832 11.45 17.1999L10 18.4999ZM10 15.7999C11.6 14.3666 12.9167 13.1374 13.95 12.1124C14.9833 11.0874 15.8 10.1957 16.4 9.4374C17 8.67907 17.4167 8.00407 17.65 7.4124C17.8833 6.82074 18 6.23324 18 5.6499C18 4.6499 17.6667 3.81657 17 3.1499C16.3333 2.48324 15.5 2.1499 14.5 2.1499C13.7167 2.1499 12.9917 2.37074 12.325 2.8124C11.6583 3.25407 11.2 3.81657 10.95 4.4999H9.05C8.8 3.81657 8.34167 3.25407 7.675 2.8124C7.00833 2.37074 6.28333 2.1499 5.5 2.1499C4.5 2.1499 3.66667 2.48324 3 3.1499C2.33333 3.81657 2 4.6499 2 5.6499C2 6.23324 2.11667 6.82074 2.35 7.4124C2.58333 8.00407 3 8.67907 3.6 9.4374C4.2 10.1957 5.01667 11.0874 6.05 12.1124C7.08333 13.1374 8.4 14.3666 10 15.7999Z" fill="#0B1547"/>
    </symbol>
    <symbol id="heart-white" viewBox="0 0 18 16">
      <path d="M7.98805 2.6059L8.74999 3.5023L9.51193 2.6059C9.8924 2.15828 10.3401 1.81632 10.8614 1.57228C11.3812 1.32897 11.924 1.20825 12.5 1.20825C13.5566 1.20825 14.3874 1.55157 15.0637 2.22786C15.74 2.90415 16.0833 3.73502 16.0833 4.79159C16.0833 5.31569 15.9954 5.82842 15.8172 6.33433C15.6456 6.82138 15.3262 7.40232 14.8222 8.08068C14.3191 8.75799 13.6258 9.54324 12.7304 10.4386C11.8304 11.3387 10.6847 12.4161 9.29002 13.6727C9.28967 13.673 9.28931 13.6733 9.28895 13.6737L8.74999 14.1569L8.21103 13.6737C8.21073 13.6734 8.21044 13.6731 8.21015 13.6729C6.81542 12.4162 5.66967 11.3387 4.7696 10.4386C3.87419 9.54324 3.18088 8.75799 2.67773 8.08068C2.17381 7.40232 1.85434 6.82138 1.68276 6.33433C1.50454 5.82842 1.41666 5.31569 1.41666 4.79159C1.41666 3.73502 1.75997 2.90415 2.43626 2.22786C3.11256 1.55157 3.94342 1.20825 4.99999 1.20825C5.57601 1.20825 6.11875 1.32897 6.63855 1.57228C7.15991 1.81632 7.60758 2.15828 7.98805 2.6059Z" fill="#fff" stroke="#fff" stroke-width="2"/>
    </symbol>
    <symbol id="house-white" viewBox="0 0 16 16">
      <path d="M8.70711 0.292893C8.31658 -0.0976311 7.68342 -0.0976311 7.29289 0.292893L0.292893 7.29289C-0.0976311 7.68342 -0.0976311 8.31658 0.292893 8.70711C0.683417 9.09763 1.31658 9.09763 1.70711 8.70711L2 8.41421V15C2 15.5523 2.44772 16 3 16H5C5.55228 16 6 15.5523 6 15V13C6 12.4477 6.44772 12 7 12H9C9.55229 12 10 12.4477 10 13V15C10 15.5523 10.4477 16 11 16H13C13.5523 16 14 15.5523 14 15V8.41421L14.2929 8.70711C14.6834 9.09763 15.3166 9.09763 15.7071 8.70711C16.0976 8.31658 16.0976 7.68342 15.7071 7.29289L8.70711 0.292893Z" fill="#D9D9D9"/>
    </symbol>
    <symbol id="house" viewBox="0 0 24 19">
      <path fill-rule="evenodd" clip-rule="evenodd" d="M6.95938 0.854308C6.83712 0.893326 6.63012 1.0176 6.49939 1.13042C6.00946 1.55326 0.0583805 7.00511 -0.0681919 7.14708C-0.30468 7.41232 -0.396196 7.6725 -0.396196 8.07962C-0.396196 8.52368 -0.293156 8.77256 -0.000547886 9.03525C0.288235 9.29442 0.540072 9.39204 0.923276 9.39329L1.25012 9.39435V13.7003V18.0062H0.523803C-0.137967 18.0062 -0.211131 18.0148 -0.299354 18.1024C-0.435852 18.2381 -0.432947 18.5837 -0.294269 18.7084C-0.194619 18.798 0.0782811 18.8 11.9996 18.8C23.9209 18.8 24.1938 18.798 24.2934 18.7084C24.4398 18.5768 24.4343 18.2518 24.2833 18.1108C24.1883 18.0221 24.1145 18.0062 23.7991 18.0062H23.4269V13.128V8.24988L23.819 8.23218C24.2842 8.2112 24.3959 8.12518 24.3945 7.78932C24.3932 7.48939 23.0716 3.10229 22.9445 2.976L22.8432 2.87531L16.5329 2.86275L10.2226 2.85019L9.21144 1.92896C8.57229 1.34668 8.12091 0.972853 7.98446 0.912907C7.70366 0.789502 7.24473 0.763234 6.95938 0.854308ZM7.74899 1.73267C8.19712 2.07546 14.2752 7.73817 14.3261 7.86038C14.5015 8.28111 14.0627 8.69635 13.6388 8.51089C13.5495 8.47182 12.1478 7.21487 10.5239 5.7177C7.71233 3.12548 7.56276 2.99558 7.3898 2.99558C7.2212 2.99558 7.13782 3.06039 6.22653 3.89945C5.68659 4.39658 4.32286 5.65227 3.19601 6.68988L1.14717 8.57646H0.91519C0.536392 8.57646 0.309346 8.28847 0.410159 7.93577C0.443666 7.81842 1.21157 7.08208 3.69673 4.7843C5.48032 3.1352 7.00495 1.74427 7.08484 1.69332C7.29528 1.55918 7.54121 1.57376 7.74899 1.73267ZM22.4296 3.92172C22.4708 4.06062 22.7204 4.89958 22.9844 5.78602L23.4645 7.39774L19.2694 7.41064L15.0743 7.42353L14.9374 7.25538C14.862 7.16291 13.9741 6.32636 12.9642 5.39637C11.9543 4.46639 11.128 3.69733 11.128 3.68732C11.128 3.67732 13.654 3.66914 16.7414 3.66914H22.3548L22.4296 3.92172ZM10.1052 6.39987L12.7259 8.81788V13.4121V18.0062H11.9762H11.2265L11.2136 14.1694L11.2006 10.3325L11.064 10.0561C10.95 9.82528 10.7197 9.5827 9.67115 8.58868C8.30026 7.28901 8.06663 7.12009 7.56334 7.06448C7.22778 7.02738 6.81543 7.12048 6.54011 7.29541C6.33049 7.42863 4.04226 9.57544 3.87216 9.79848C3.80965 9.88051 3.7116 10.045 3.65427 10.1641C3.55079 10.3793 3.55002 10.4046 3.5366 14.1694L3.52309 17.9581H2.79818H2.07327V13.415V8.87196L4.74074 6.41228C6.20779 5.0595 7.42534 3.9592 7.44631 3.96723C7.46727 3.97527 8.66375 5.06994 10.1052 6.39987ZM7.77504 8.005C7.88824 8.08419 10.2564 10.3104 10.2564 10.3377C10.2564 10.3481 8.95995 10.3566 7.37537 10.3566C5.79079 10.3566 4.49626 10.3404 4.49858 10.3205C4.50396 10.2751 6.89489 8.03901 7.00238 7.97892C7.22313 7.85542 7.5783 7.8674 7.77504 8.005ZM22.5554 11.2827C22.5554 12.9564 22.5699 15.1539 22.5875 16.166L22.6195 18.0062H18.0842H13.549V13.7003V9.39435L13.8517 9.39387C14.458 9.39295 14.956 9.02365 15.1069 8.46316L15.167 8.23968H18.8612H22.5553L22.5554 11.2827ZM14.9201 10.4045C14.8619 10.4281 14.7911 10.4905 14.7627 10.5431C14.7278 10.608 14.7111 11.616 14.7111 13.6656C14.7111 16.6815 14.7115 16.6926 14.8131 16.784C14.9111 16.8721 15.0359 16.8756 18.1006 16.8756C21.1653 16.8756 21.2901 16.8721 21.3882 16.784C21.4897 16.6926 21.4901 16.6822 21.4901 13.6281C21.4901 10.5743 21.4897 10.5636 21.3882 10.4723C21.2904 10.3843 21.159 10.3802 18.1561 10.3711C16.4096 10.3658 14.9791 10.3805 14.9201 10.4045ZM10.4501 14.5903V18.0062H7.39958H4.34906V14.5903V11.1745H7.39958H10.4501V14.5903ZM17.6648 12.2088V13.2432H16.5754H15.4859V12.2088V11.1745H16.5754H17.6648V12.2088ZM20.6669 12.2088V13.2432H19.5775H18.488V12.2088V11.1745H19.5775H20.6669V12.2088ZM9.06792 13.8425C8.9538 13.9558 8.94905 13.9858 8.94905 14.5903C8.94905 15.1949 8.9538 15.2249 9.06792 15.3382C9.14995 15.4198 9.24059 15.4563 9.36063 15.4563C9.48066 15.4563 9.57131 15.4198 9.65333 15.3382C9.76746 15.2249 9.77221 15.1949 9.77221 14.5903C9.77221 13.9858 9.76746 13.9558 9.65333 13.8425C9.49166 13.6818 9.2296 13.6818 9.06792 13.8425ZM17.6648 15.0474V16.0818H16.5754H15.4859V15.0474V14.013H16.5754H17.6648V15.0474ZM20.6669 15.0474V16.0818H19.5775H18.488V15.0474V14.013H19.5775H20.6669V15.0474Z" fill="#0B1547"/>
    </symbol>
    <symbol id="humburger" viewBox="0 0 18 10">
      <path fill="#0B1547" d="M-3 -7H21V17H-3z"/>
    </symbol>
    <symbol id="logo-2" viewBox="0 0 200 73">
      <path d="M13.3293 59.2445C12.6701 59.2882 12.0085 59.2145 11.3746 59.0268C11.1466 58.9427 10.9491 58.7909 10.8077 58.5914H10.8468L9.68051 56.2889C9.22441 55.3652 8.67059 54.3097 8.03205 53.043C7.39352 51.7763 6.72893 50.5162 6.07737 49.1769C5.42581 47.8376 4.72864 46.5379 4.07707 45.2185C3.42551 43.899 2.78047 42.7445 2.25922 41.6955L0.988671 39.1621C0.802856 38.8284 0.639592 38.4823 0.5 38.1263C0.5 38.0537 0.617281 37.9746 0.845328 37.902C1.07337 37.8294 1.36658 37.7568 1.71842 37.6843C2.08464 37.6103 2.45434 37.5553 2.82608 37.5193C3.2105 37.5193 3.57537 37.4666 3.91418 37.4666C4.253 37.4666 4.61135 37.4666 4.98926 37.5061C5.36717 37.5457 5.70598 37.5655 6.02524 37.6117C6.34451 37.6579 6.60513 37.7173 6.82015 37.7766C6.97149 37.7997 7.11236 37.8687 7.22412 37.9746L16.1375 54.8704L18.027 51.0374C17.3038 49.5793 16.548 48.0949 15.7726 46.5841C14.9973 45.0733 14.3066 43.7077 13.6876 42.4674L12.163 39.3996C11.9436 38.9868 11.7478 38.5617 11.5766 38.1263C11.5766 38.0537 11.6873 37.9746 11.9154 37.902C12.1434 37.8294 12.4366 37.7568 12.7885 37.6843C13.1403 37.6117 13.5117 37.5589 13.8961 37.5193C14.2805 37.4797 14.6519 37.4666 14.9907 37.4666C15.3295 37.4666 15.6879 37.4666 16.0593 37.5061C16.4307 37.5457 16.7825 37.5655 17.0953 37.6117C17.408 37.6579 17.6752 37.7173 17.8967 37.7766C18.0462 37.7993 18.1851 37.8685 18.2942 37.9746L21.552 44.1431C22.0341 43.2195 22.5032 42.309 22.9463 41.4052C23.3894 40.5013 23.8259 39.6305 24.2494 38.7662C24.3314 38.6849 24.3938 38.5856 24.4319 38.476C24.484 38.3506 24.5361 38.2318 24.5948 38.1131C24.6576 37.9911 24.739 37.8798 24.8358 37.7832C24.9594 37.6878 25.1053 37.6264 25.2593 37.6051C25.8197 37.6051 26.1259 37.6513 26.1846 37.7502C26.2535 37.8723 26.2853 38.0124 26.2758 38.1527C26.1935 38.3963 26.0911 38.6325 25.9696 38.8586C25.7611 39.2874 25.4874 39.8482 25.1356 40.5409C24.7837 41.2337 24.3732 42.0385 23.8976 42.9622C23.4219 43.8858 22.9202 44.8622 22.412 45.8584L27.1749 54.8704L29.1296 51.0176C29.7812 49.6981 30.4979 48.2994 31.2016 46.914L33.2931 42.7774C33.9838 41.3986 34.6418 40.0725 35.2478 38.7794C35.3254 38.6946 35.3872 38.5963 35.4302 38.4891C35.4779 38.3652 35.5322 38.2441 35.5931 38.1263C35.6517 38.0033 35.731 37.8916 35.8277 37.7964C35.9623 37.6791 36.1274 37.6036 36.3033 37.5787C36.8571 37.5787 37.1699 37.6249 37.2285 37.7239C37.2945 37.8471 37.326 37.9862 37.3198 38.1263C37.1913 38.4647 37.0389 38.7932 36.8637 39.1093L35.6843 41.4778C35.1957 42.4542 34.6484 43.5559 34.0294 44.7764C33.4104 45.997 32.7784 47.2637 32.1203 48.5501C31.4622 49.8366 30.8172 51.0967 30.1656 52.3238C29.514 53.551 28.9732 54.6527 28.4911 55.6225C28.25 56.0844 27.9829 56.5792 27.6897 57.1004C27.3965 57.6215 27.1489 58.1163 26.9273 58.5782C26.7656 58.7984 26.5365 58.9584 26.2758 59.0334C25.6386 59.2031 24.9789 59.2699 24.3211 59.2313C23.662 59.2745 23.0005 59.2008 22.3664 59.0136C22.1401 58.9298 21.9445 58.7779 21.8061 58.5782L20.6984 56.2889L18.9262 52.7791L17.4732 55.6225C17.2256 56.0844 16.965 56.5792 16.6718 57.1004C16.3786 57.6215 16.1245 58.1163 15.9094 58.5782C15.7463 58.797 15.5178 58.9566 15.2579 59.0334C14.6299 59.2055 13.9791 59.2768 13.3293 59.2445Z" fill="#0B1547"/><path d="M43.6725 48.484C43.6756 49.825 43.8709 51.1584 44.2524 52.4425C44.5771 53.5201 45.0938 54.5286 45.777 55.4179C46.407 56.221 47.2091 56.8685 48.1226 57.3113C49.0724 57.7609 50.1106 57.9865 51.1589 57.9711C51.8091 57.9704 52.4544 57.8589 53.068 57.6412C53.6728 57.4265 54.2554 57.1525 54.8077 56.8231C55.3364 56.5041 55.8475 56.1561 56.3388 55.7808L57.5898 54.7977L57.9873 54.4679C58.1259 54.3598 58.2796 54.2731 58.4434 54.2106C58.6689 54.1265 58.9026 54.0668 59.1406 54.0324C59.5067 53.9729 59.8774 53.9464 60.2482 53.9533C60.8883 53.9455 61.5277 54.0007 62.1573 54.1182C62.6785 54.2304 62.9652 54.3557 63.0108 54.5009C62.9652 54.4283 62.8349 54.5009 62.6264 54.6856L61.9227 55.3453C61.2547 56.0203 60.5163 56.6198 59.7204 57.1332C58.9384 57.6329 58.1035 58.0423 57.2315 58.3537C56.2906 58.6952 55.3164 58.9341 54.3255 59.0662C53.1806 59.2179 52.0269 59.2907 50.8722 59.284C49.0396 59.3225 47.2124 59.0687 45.4578 58.5319C43.9619 58.0676 42.5728 57.3049 41.3725 56.2887C40.2505 55.3409 39.3588 54.1445 38.7662 52.7921C38.1591 51.3634 37.855 49.8216 37.8736 48.2663C37.8648 46.7425 38.2085 45.2378 38.877 43.8725C39.5254 42.5237 40.4545 41.3331 41.6005 40.3825C42.8376 39.37 44.2493 38.5983 45.764 38.1064C47.4585 37.5437 49.2324 37.2652 51.0156 37.2817C54.1906 37.2847 57.2759 38.3492 59.7921 40.3099C60.9229 41.1872 61.867 42.2867 62.5678 43.5426C63.2351 44.7525 63.585 46.1153 63.5842 47.501C63.5842 48.1344 62.52 48.4511 60.3916 48.4511L43.6725 48.484ZM57.9156 47.1646C57.7845 46.0023 57.5041 44.8623 57.0816 43.7735C56.709 42.792 56.1881 41.875 55.5374 41.0554C54.9518 40.3166 54.222 39.708 53.3938 39.2675C52.5915 38.8349 51.6965 38.6083 50.7875 38.6078C49.8988 38.6047 49.0241 38.8318 48.2464 39.2675C47.4224 39.7286 46.6962 40.3496 46.1093 41.095C45.4502 41.9084 44.9164 42.8182 44.526 43.7933C44.0933 44.8617 43.8062 45.9848 43.6725 47.1316L57.9156 47.1646Z" fill="#0B1547"/><path d="M67.6565 0.765222C67.6565 0.573898 67.9236 0.395769 68.4579 0.237431C69.1451 0.0598512 69.8534 -0.0200831 70.5624 -7.41594e-05C71.3141 -0.0543286 72.0688 0.0512938 72.7777 0.310003C73.1687 0.514521 73.3642 0.71904 73.3642 0.910364V58.2218C73.3642 58.4197 73.0644 58.5913 72.4715 58.7364C71.7982 58.8904 71.1093 58.9635 70.4191 58.9541C69.8587 58.9541 69.4027 58.9541 69.0378 58.9013C68.7498 58.8766 68.4644 58.828 68.1842 58.7562C68.028 58.7204 67.884 58.6429 67.7672 58.5319C67.6928 58.4465 67.6532 58.3356 67.6565 58.2218V0.765222Z" fill="#0B1547"/><path d="M80.59 0.76522C80.59 0.573896 80.8571 0.395767 81.3914 0.23743C82.0809 0.0603305 82.7913 -0.0195916 83.5024 -7.60881e-05C84.2541 -0.0537456 85.0086 0.0518602 85.7178 0.310001C86.1022 0.514519 86.2976 0.719038 86.2976 0.910362V58.2218C86.2976 58.4197 86.0044 58.5912 85.405 58.7364C84.7317 58.8904 84.0428 58.9634 83.3526 58.9541C82.7988 58.9541 82.3362 58.9541 81.9713 58.9013C81.6835 58.8754 81.3981 58.8268 81.1177 58.7562C80.9621 58.7186 80.8186 58.6414 80.7007 58.5319C80.6263 58.4465 80.5867 58.3356 80.59 58.2218V0.76522Z" fill="#0B1547"/><path d="M95.7844 58.9542C95.0282 58.9931 94.2702 58.9309 93.53 58.7695C93.1651 58.6507 92.9827 58.466 92.9827 58.2219V38.1263C92.9827 37.9019 93.2628 37.7238 93.8232 37.5787C94.5123 37.4129 95.2196 37.3375 95.9277 37.3544C96.9963 37.3544 97.726 37.5919 98.13 38.0669C98.5162 38.5369 98.7444 39.1192 98.7816 39.7294C99.9702 39.009 101.239 38.4332 102.561 38.0141C104.039 37.5592 105.577 37.3367 107.122 37.3544C108.572 37.3134 110.017 37.5369 111.389 38.0141C112.417 38.386 113.344 38.9986 114.093 39.802C114.77 40.5524 115.258 41.458 115.514 42.4409C115.785 43.494 115.919 44.5787 115.911 45.6671V58.2021C115.911 58.4264 115.644 58.5979 115.116 58.7365C114.422 58.8845 113.714 58.9509 113.005 58.9344C111.09 58.9344 110.132 58.6903 110.132 58.2021V45.3438C110.137 44.4488 110.089 43.5544 109.988 42.6653C109.914 41.9438 109.736 41.2371 109.461 40.5673C109.243 40.0316 108.893 39.5615 108.444 39.2016C107.975 38.8597 107.406 38.6857 106.828 38.7068C106.102 38.7264 105.388 38.9065 104.737 39.2346C103.955 39.6164 103.213 40.0761 102.522 40.6069C101.771 41.1706 101.065 41.7926 100.41 42.4673C99.7865 43.0918 99.1991 43.7527 98.6513 44.4465V58.2219C98.6513 58.4462 98.3841 58.6177 97.8498 58.7563C97.171 58.9016 96.4781 58.968 95.7844 58.9542Z" fill="#0B1547"/><path d="M122.111 0.78169C122.111 0.563976 122.385 0.379249 122.945 0.234107C123.635 0.074121 124.342 0.00099675 125.05 0.0163936C125.802 -0.0437516 126.557 0.062042 127.265 0.32647C127.63 0.530989 127.812 0.735508 127.812 0.926832V48.6853C128.945 47.8896 130.032 47.0306 131.07 46.1123C132.158 45.1491 133.253 44.1331 134.328 43.1567C135.403 42.1802 136.511 41.1774 137.586 40.201C138.62 39.2787 139.708 38.4195 140.844 37.628L141.495 37.2652C142.003 37.3114 142.498 37.3708 142.981 37.4301C143.463 37.4895 143.893 37.5555 144.284 37.628C144.579 37.6843 144.87 37.757 145.157 37.8458C145.372 37.9183 145.483 37.9909 145.483 38.0701C145.208 38.2002 144.946 38.357 144.701 38.5385C144.18 38.8816 143.508 39.3302 142.681 39.858L139.866 41.758C138.811 42.4639 137.755 43.1764 136.687 43.9088L133.618 45.9869C132.634 46.6467 131.793 47.214 131.09 47.7022L129.747 48.6127C130.301 48.6127 130.888 48.5731 131.507 48.5599H133.305C134.965 48.5343 136.625 48.6379 138.27 48.87C139.286 48.9947 140.268 49.3245 141.156 49.8398C141.784 50.2128 142.26 50.7998 142.498 51.4957C142.735 52.2687 142.847 53.075 142.831 53.884C142.831 54.2534 142.831 54.6361 142.831 55.0385C142.831 55.441 142.831 55.8566 142.772 56.292C142.714 56.7275 142.7 57.4136 142.7 58.0074C142.7 58.6011 142.668 59.2477 142.668 59.881C142.652 60.6949 142.718 61.5083 142.863 62.3088C143 62.929 143.222 63.2655 143.515 63.3116C143.437 63.3116 143.424 63.2193 143.456 63.1137C143.512 62.9701 143.586 62.8347 143.678 62.7113C143.782 62.5529 143.906 62.3814 144.036 62.1967C144.166 62.012 144.31 61.8404 144.46 61.6689H144.421C144.512 61.5544 144.623 61.4563 144.746 61.3786C144.948 61.2575 145.168 61.1706 145.398 61.1213C145.762 61.0361 146.133 60.9809 146.506 60.9564C146.962 60.9234 147.561 60.9036 148.284 60.9036C148.597 61.1015 148.903 61.2731 149.197 61.4314C149.49 61.5897 149.653 61.6491 149.705 61.5963C149.664 61.8215 149.577 62.0353 149.449 62.224C149.321 62.4127 149.155 62.572 148.962 62.6915C148.449 63.0847 147.888 63.4106 147.294 63.6613C146.632 63.9353 145.95 64.1559 145.255 64.321C144.661 64.4781 144.051 64.5644 143.437 64.5783C142.3 64.6153 141.165 64.4546 140.081 64.1033C139.323 63.8545 138.636 63.4219 138.081 62.8432C137.609 62.3285 137.277 61.6989 137.117 61.0158C136.946 60.3186 136.861 59.603 136.862 58.8848C136.862 57.9876 136.895 57.1365 136.973 56.3316C136.973 55.9886 137.019 55.6323 137.045 55.2562C137.071 54.8802 137.077 54.5437 137.077 54.2534C137.096 53.4395 137.03 52.6258 136.882 51.8256C136.795 51.3416 136.589 50.8877 136.283 50.5061C136.012 50.2124 135.652 50.0196 135.26 49.9585C134.792 49.8826 134.319 49.8473 133.846 49.853L127.812 50.1763V58.2383C127.812 58.4626 127.545 58.6341 127.011 58.7726C126.319 58.921 125.613 58.9874 124.906 58.9706C124.162 59.0071 123.417 58.9405 122.691 58.7726C122.3 58.6341 122.111 58.4626 122.111 58.2383V0.78169Z" fill="#0B1547"/><path d="M152.835 48.484C152.84 49.8253 153.038 51.1587 153.422 52.4424C153.733 53.5202 154.242 54.5294 154.92 55.4179C155.547 56.2239 156.35 56.872 157.266 57.3113C158.213 57.7614 159.249 57.9871 160.296 57.971C160.946 57.971 161.591 57.8594 162.205 57.6412C162.811 57.4264 163.396 57.1525 163.951 56.8231C164.477 56.5041 164.986 56.1561 165.475 55.7807C165.945 55.4179 166.368 55.121 166.726 54.7977L167.13 54.4678C167.268 54.3584 167.422 54.2716 167.586 54.2105C167.797 54.129 168.015 54.0693 168.238 54.0324C168.606 53.9729 168.979 53.9464 169.352 53.9532C169.99 53.9454 170.627 54.0007 171.255 54.1182C171.776 54.2303 172.063 54.3557 172.108 54.5008C172.063 54.4283 171.932 54.5008 171.73 54.6855L171.02 55.3453C170.355 56.0201 169.618 56.6196 168.824 57.1332C168.042 57.6315 167.207 58.0408 166.335 58.3537C165.392 58.6944 164.416 58.9332 163.423 59.0662C162.28 59.2181 161.129 59.2909 159.976 59.2839C158.142 59.3127 156.314 59.0478 154.562 58.4988C153.064 58.0353 151.672 57.2726 150.47 56.2557C149.348 55.3078 148.456 54.1115 147.864 52.7591C147.259 51.3299 146.957 49.7881 146.978 48.2333C146.964 46.7119 147.298 45.2079 147.955 43.8395C148.606 42.4921 149.534 41.302 150.678 40.3494C151.943 39.343 153.382 38.5825 154.92 38.1063C156.615 37.5442 158.389 37.2656 160.172 37.2817C163.353 37.2832 166.445 38.3477 168.968 40.3099C170.093 41.1914 171.034 42.2902 171.737 43.5426C172.404 44.7524 172.754 46.1153 172.753 47.501C172.753 48.1344 171.687 48.451 169.554 48.451L152.835 48.484ZM167.085 47.1645C166.951 46.002 166.669 44.862 166.244 43.7735C165.869 42.7938 165.346 41.8791 164.694 41.062C164.109 40.3217 163.379 39.7128 162.55 39.2741C161.748 38.8399 160.853 38.6132 159.944 38.6143C159.055 38.6113 158.18 38.8384 157.403 39.2741C156.58 39.7289 155.852 40.3405 155.259 41.0752C154.6 41.8886 154.066 42.7983 153.676 43.7735C153.246 44.8429 152.959 45.9656 152.822 47.1118L167.085 47.1645Z" fill="#0B1547"/><path d="M191.03 58.1887C189.222 58.9501 187.28 59.3338 185.322 59.3169C183.668 59.3811 182.02 59.0771 180.494 58.4262C179.352 57.9083 178.361 57.099 177.621 56.0776C176.933 55.0927 176.468 53.9664 176.259 52.7789C176.028 51.5346 175.913 50.2712 175.913 49.0052V38.1261C175.913 37.9018 176.194 37.7237 176.747 37.5785C177.439 37.4132 178.148 37.3378 178.858 37.3542C179.344 37.3489 179.828 37.3688 180.311 37.4136C180.595 37.4324 180.876 37.4878 181.145 37.5785C181.295 37.6222 181.429 37.7093 181.53 37.8292C181.586 37.918 181.618 38.0206 181.621 38.1261V49.1042C181.621 50.1267 181.66 51.1625 181.745 52.2247C181.815 53.2025 181.992 54.1695 182.273 55.1078C182.495 55.8908 182.88 56.6171 183.4 57.2387C183.642 57.5194 183.943 57.7407 184.282 57.8858C184.62 58.031 184.987 58.0962 185.355 58.0766C185.881 58.0687 186.406 58.0023 186.918 57.8787C187.502 57.7457 188.07 57.5488 188.612 57.2915C189.144 57.0463 189.644 56.7337 190.098 56.3613C190.524 56.0296 190.856 55.5906 191.062 55.088V38.1261C191.062 37.9282 191.349 37.7501 191.916 37.5917C192.587 37.421 193.277 37.3411 193.968 37.3542C194.725 37.3149 195.484 37.3838 196.223 37.5587C196.588 37.6907 196.77 37.882 196.77 38.1261V52.8647L197.676 52.6799C197.988 52.8713 198.327 53.056 198.62 53.2275C198.847 53.3631 199.093 53.4611 199.35 53.5178L198.77 53.8477C198.485 54.0052 198.211 54.1815 197.949 54.3755C197.681 54.578 197.426 54.7984 197.187 55.0352C197 55.188 196.856 55.3884 196.77 55.6158V67.4383C196.798 68.2422 196.625 69.0403 196.266 69.7579C195.907 70.4756 195.374 71.0894 194.718 71.5418C193.349 72.5248 191.46 73.0196 189.062 73.0196C188.37 73.0289 187.677 72.9915 186.99 72.9075C186.482 72.8349 186.228 72.6766 186.228 72.4391C186.229 72.3423 186.261 72.2486 186.32 72.1723C186.379 72.096 186.461 72.0414 186.553 72.0168C186.825 71.9208 187.107 71.8588 187.394 71.8321C187.763 71.802 188.133 71.802 188.502 71.8321L189.648 71.9047H189.681C189.994 71.9047 190.248 71.7002 190.443 71.2977C190.66 70.8196 190.801 70.3097 190.86 69.7869C190.95 69.1305 191.007 68.4699 191.03 67.8077C191.03 67.0754 191.062 66.3827 191.062 65.7295L191.03 58.1887ZM199.5 53.4452C199.49 53.4569 199.478 53.4664 199.465 53.4732C199.451 53.48 199.437 53.4839 199.422 53.4848H199.37C199.353 53.4914 199.334 53.4914 199.318 53.4848C199.435 53.5706 199.5 53.5442 199.5 53.4386V53.4452Z" fill="#0B1547"/>
    </symbol>
    <symbol id="logo" viewBox="0 0 200 73">
      <path d="M13.3293 59.2445C12.6701 59.2882 12.0085 59.2145 11.3746 59.0268C11.1466 58.9427 10.9491 58.7909 10.8077 58.5914H10.8468L9.68051 56.2889C9.22441 55.3652 8.67059 54.3097 8.03205 53.043C7.39352 51.7763 6.72893 50.5162 6.07737 49.1769C5.42581 47.8376 4.72864 46.5379 4.07707 45.2185C3.42551 43.899 2.78047 42.7445 2.25922 41.6955L0.988671 39.1621C0.802856 38.8284 0.639592 38.4823 0.5 38.1263C0.5 38.0537 0.617281 37.9746 0.845328 37.902C1.07337 37.8294 1.36658 37.7568 1.71842 37.6843C2.08464 37.6103 2.45434 37.5553 2.82608 37.5193C3.2105 37.5193 3.57537 37.4666 3.91418 37.4666C4.253 37.4666 4.61135 37.4666 4.98926 37.5061C5.36717 37.5457 5.70598 37.5655 6.02524 37.6117C6.34451 37.6579 6.60513 37.7173 6.82015 37.7766C6.97149 37.7997 7.11236 37.8687 7.22412 37.9746L16.1375 54.8704L18.027 51.0374C17.3038 49.5793 16.548 48.0949 15.7726 46.5841C14.9973 45.0733 14.3066 43.7077 13.6876 42.4674L12.163 39.3996C11.9436 38.9868 11.7478 38.5617 11.5766 38.1263C11.5766 38.0537 11.6873 37.9746 11.9154 37.902C12.1434 37.8294 12.4366 37.7568 12.7885 37.6843C13.1403 37.6117 13.5117 37.5589 13.8961 37.5193C14.2805 37.4797 14.6519 37.4666 14.9907 37.4666C15.3295 37.4666 15.6879 37.4666 16.0593 37.5061C16.4307 37.5457 16.7825 37.5655 17.0953 37.6117C17.408 37.6579 17.6752 37.7173 17.8967 37.7766C18.0462 37.7993 18.1851 37.8685 18.2942 37.9746L21.552 44.1431C22.0341 43.2195 22.5032 42.309 22.9463 41.4052C23.3894 40.5013 23.8259 39.6305 24.2494 38.7662C24.3314 38.6849 24.3938 38.5856 24.4319 38.476C24.484 38.3506 24.5361 38.2318 24.5948 38.1131C24.6576 37.9911 24.739 37.8798 24.8358 37.7832C24.9594 37.6878 25.1053 37.6264 25.2593 37.6051C25.8197 37.6051 26.1259 37.6513 26.1846 37.7502C26.2535 37.8723 26.2853 38.0124 26.2758 38.1527C26.1935 38.3963 26.0911 38.6325 25.9696 38.8586C25.7611 39.2874 25.4874 39.8482 25.1356 40.5409C24.7837 41.2337 24.3732 42.0385 23.8976 42.9622C23.4219 43.8858 22.9202 44.8622 22.412 45.8584L27.1749 54.8704L29.1296 51.0176C29.7812 49.6981 30.4979 48.2994 31.2016 46.914L33.2931 42.7774C33.9838 41.3986 34.6418 40.0725 35.2478 38.7794C35.3254 38.6946 35.3872 38.5963 35.4302 38.4891C35.4779 38.3652 35.5322 38.2441 35.5931 38.1263C35.6517 38.0033 35.731 37.8916 35.8277 37.7964C35.9623 37.6791 36.1274 37.6036 36.3033 37.5787C36.8571 37.5787 37.1699 37.6249 37.2285 37.7239C37.2945 37.8471 37.326 37.9862 37.3198 38.1263C37.1913 38.4647 37.0389 38.7932 36.8637 39.1093L35.6843 41.4778C35.1957 42.4542 34.6484 43.5559 34.0294 44.7764C33.4104 45.997 32.7784 47.2637 32.1203 48.5501C31.4622 49.8366 30.8172 51.0967 30.1656 52.3238C29.514 53.551 28.9732 54.6527 28.4911 55.6225C28.25 56.0844 27.9829 56.5792 27.6897 57.1004C27.3965 57.6215 27.1489 58.1163 26.9273 58.5782C26.7656 58.7984 26.5365 58.9584 26.2758 59.0334C25.6386 59.2031 24.9789 59.2699 24.3211 59.2313C23.662 59.2745 23.0005 59.2008 22.3664 59.0136C22.1401 58.9298 21.9445 58.7779 21.8061 58.5782L20.6984 56.2889L18.9262 52.7791L17.4732 55.6225C17.2256 56.0844 16.965 56.5792 16.6718 57.1004C16.3786 57.6215 16.1245 58.1163 15.9094 58.5782C15.7463 58.797 15.5178 58.9566 15.2579 59.0334C14.6299 59.2055 13.9791 59.2768 13.3293 59.2445Z" fill="#0B1547"/><path d="M43.6725 48.484C43.6756 49.825 43.8709 51.1584 44.2524 52.4425C44.5771 53.5201 45.0938 54.5286 45.777 55.4179C46.407 56.221 47.2091 56.8685 48.1226 57.3113C49.0724 57.7609 50.1106 57.9865 51.1589 57.9711C51.8091 57.9704 52.4544 57.8589 53.068 57.6412C53.6728 57.4265 54.2554 57.1525 54.8077 56.8231C55.3364 56.5041 55.8475 56.1561 56.3388 55.7808L57.5898 54.7977L57.9873 54.4679C58.1259 54.3598 58.2796 54.2731 58.4434 54.2106C58.6689 54.1265 58.9026 54.0668 59.1406 54.0324C59.5067 53.9729 59.8774 53.9464 60.2482 53.9533C60.8883 53.9455 61.5277 54.0007 62.1573 54.1182C62.6785 54.2304 62.9652 54.3557 63.0108 54.5009C62.9652 54.4283 62.8349 54.5009 62.6264 54.6856L61.9227 55.3453C61.2547 56.0203 60.5163 56.6198 59.7204 57.1332C58.9384 57.6329 58.1035 58.0423 57.2315 58.3537C56.2906 58.6952 55.3164 58.9341 54.3255 59.0662C53.1806 59.2179 52.0269 59.2907 50.8722 59.284C49.0396 59.3225 47.2124 59.0687 45.4578 58.5319C43.9619 58.0676 42.5728 57.3049 41.3725 56.2887C40.2505 55.3409 39.3588 54.1445 38.7662 52.7921C38.1591 51.3634 37.855 49.8216 37.8736 48.2663C37.8648 46.7425 38.2085 45.2378 38.877 43.8725C39.5254 42.5237 40.4545 41.3331 41.6005 40.3825C42.8376 39.37 44.2493 38.5983 45.764 38.1064C47.4585 37.5437 49.2324 37.2652 51.0156 37.2817C54.1906 37.2847 57.2759 38.3492 59.7921 40.3099C60.9229 41.1872 61.867 42.2867 62.5678 43.5426C63.2351 44.7525 63.585 46.1153 63.5842 47.501C63.5842 48.1344 62.52 48.4511 60.3916 48.4511L43.6725 48.484ZM57.9156 47.1646C57.7845 46.0023 57.5041 44.8623 57.0816 43.7735C56.709 42.792 56.1881 41.875 55.5374 41.0554C54.9518 40.3166 54.222 39.708 53.3938 39.2675C52.5915 38.8349 51.6965 38.6083 50.7875 38.6078C49.8988 38.6047 49.0241 38.8318 48.2464 39.2675C47.4224 39.7286 46.6962 40.3496 46.1093 41.095C45.4502 41.9084 44.9164 42.8182 44.526 43.7933C44.0933 44.8617 43.8062 45.9848 43.6725 47.1316L57.9156 47.1646Z" fill="#0B1547"/><path d="M67.6565 0.765222C67.6565 0.573898 67.9236 0.395769 68.4579 0.237431C69.1451 0.0598512 69.8534 -0.0200831 70.5624 -7.41594e-05C71.3141 -0.0543286 72.0688 0.0512938 72.7777 0.310003C73.1687 0.514521 73.3642 0.71904 73.3642 0.910364V58.2218C73.3642 58.4197 73.0644 58.5913 72.4715 58.7364C71.7982 58.8904 71.1093 58.9635 70.4191 58.9541C69.8587 58.9541 69.4027 58.9541 69.0378 58.9013C68.7498 58.8766 68.4644 58.828 68.1842 58.7562C68.028 58.7204 67.884 58.6429 67.7672 58.5319C67.6928 58.4465 67.6532 58.3356 67.6565 58.2218V0.765222Z" fill="#0B1547"/><path d="M80.59 0.76522C80.59 0.573896 80.8571 0.395767 81.3914 0.23743C82.0809 0.0603305 82.7913 -0.0195916 83.5024 -7.60881e-05C84.2541 -0.0537456 85.0086 0.0518602 85.7178 0.310001C86.1022 0.514519 86.2976 0.719038 86.2976 0.910362V58.2218C86.2976 58.4197 86.0044 58.5912 85.405 58.7364C84.7317 58.8904 84.0428 58.9634 83.3526 58.9541C82.7988 58.9541 82.3362 58.9541 81.9713 58.9013C81.6835 58.8754 81.3981 58.8268 81.1177 58.7562C80.9621 58.7186 80.8186 58.6414 80.7007 58.5319C80.6263 58.4465 80.5867 58.3356 80.59 58.2218V0.76522Z" fill="#0B1547"/><path d="M95.7844 58.9542C95.0282 58.9931 94.2702 58.9309 93.53 58.7695C93.1651 58.6507 92.9827 58.466 92.9827 58.2219V38.1263C92.9827 37.9019 93.2628 37.7238 93.8232 37.5787C94.5123 37.4129 95.2196 37.3375 95.9277 37.3544C96.9963 37.3544 97.726 37.5919 98.13 38.0669C98.5162 38.5369 98.7444 39.1192 98.7816 39.7294C99.9702 39.009 101.239 38.4332 102.561 38.0141C104.039 37.5592 105.577 37.3367 107.122 37.3544C108.572 37.3134 110.017 37.5369 111.389 38.0141C112.417 38.386 113.344 38.9986 114.093 39.802C114.77 40.5524 115.258 41.458 115.514 42.4409C115.785 43.494 115.919 44.5787 115.911 45.6671V58.2021C115.911 58.4264 115.644 58.5979 115.116 58.7365C114.422 58.8845 113.714 58.9509 113.005 58.9344C111.09 58.9344 110.132 58.6903 110.132 58.2021V45.3438C110.137 44.4488 110.089 43.5544 109.988 42.6653C109.914 41.9438 109.736 41.2371 109.461 40.5673C109.243 40.0316 108.893 39.5615 108.444 39.2016C107.975 38.8597 107.406 38.6857 106.828 38.7068C106.102 38.7264 105.388 38.9065 104.737 39.2346C103.955 39.6164 103.213 40.0761 102.522 40.6069C101.771 41.1706 101.065 41.7926 100.41 42.4673C99.7865 43.0918 99.1991 43.7527 98.6513 44.4465V58.2219C98.6513 58.4462 98.3841 58.6177 97.8498 58.7563C97.171 58.9016 96.4781 58.968 95.7844 58.9542Z" fill="#0B1547"/><path d="M122.111 0.78169C122.111 0.563976 122.385 0.379249 122.945 0.234107C123.635 0.074121 124.342 0.00099675 125.05 0.0163936C125.802 -0.0437516 126.557 0.062042 127.265 0.32647C127.63 0.530989 127.812 0.735508 127.812 0.926832V48.6853C128.945 47.8896 130.032 47.0306 131.07 46.1123C132.158 45.1491 133.253 44.1331 134.328 43.1567C135.403 42.1802 136.511 41.1774 137.586 40.201C138.62 39.2787 139.708 38.4195 140.844 37.628L141.495 37.2652C142.003 37.3114 142.498 37.3708 142.981 37.4301C143.463 37.4895 143.893 37.5555 144.284 37.628C144.579 37.6843 144.87 37.757 145.157 37.8458C145.372 37.9183 145.483 37.9909 145.483 38.0701C145.208 38.2002 144.946 38.357 144.701 38.5385C144.18 38.8816 143.508 39.3302 142.681 39.858L139.866 41.758C138.811 42.4639 137.755 43.1764 136.687 43.9088L133.618 45.9869C132.634 46.6467 131.793 47.214 131.09 47.7022L129.747 48.6127C130.301 48.6127 130.888 48.5731 131.507 48.5599H133.305C134.965 48.5343 136.625 48.6379 138.27 48.87C139.286 48.9947 140.268 49.3245 141.156 49.8398C141.784 50.2128 142.26 50.7998 142.498 51.4957C142.735 52.2687 142.847 53.075 142.831 53.884C142.831 54.2534 142.831 54.6361 142.831 55.0385C142.831 55.441 142.831 55.8566 142.772 56.292C142.714 56.7275 142.7 57.4136 142.7 58.0074C142.7 58.6011 142.668 59.2477 142.668 59.881C142.652 60.6949 142.718 61.5083 142.863 62.3088C143 62.929 143.222 63.2655 143.515 63.3116C143.437 63.3116 143.424 63.2193 143.456 63.1137C143.512 62.9701 143.586 62.8347 143.678 62.7113C143.782 62.5529 143.906 62.3814 144.036 62.1967C144.166 62.012 144.31 61.8404 144.46 61.6689H144.421C144.512 61.5544 144.623 61.4563 144.746 61.3786C144.948 61.2575 145.168 61.1706 145.398 61.1213C145.762 61.0361 146.133 60.9809 146.506 60.9564C146.962 60.9234 147.561 60.9036 148.284 60.9036C148.597 61.1015 148.903 61.2731 149.197 61.4314C149.49 61.5897 149.653 61.6491 149.705 61.5963C149.664 61.8215 149.577 62.0353 149.449 62.224C149.321 62.4127 149.155 62.572 148.962 62.6915C148.449 63.0847 147.888 63.4106 147.294 63.6613C146.632 63.9353 145.95 64.1559 145.255 64.321C144.661 64.4781 144.051 64.5644 143.437 64.5783C142.3 64.6153 141.165 64.4546 140.081 64.1033C139.323 63.8545 138.636 63.4219 138.081 62.8432C137.609 62.3285 137.277 61.6989 137.117 61.0158C136.946 60.3186 136.861 59.603 136.862 58.8848C136.862 57.9876 136.895 57.1365 136.973 56.3316C136.973 55.9886 137.019 55.6323 137.045 55.2562C137.071 54.8802 137.077 54.5437 137.077 54.2534C137.096 53.4395 137.03 52.6258 136.882 51.8256C136.795 51.3416 136.589 50.8877 136.283 50.5061C136.012 50.2124 135.652 50.0196 135.26 49.9585C134.792 49.8826 134.319 49.8473 133.846 49.853L127.812 50.1763V58.2383C127.812 58.4626 127.545 58.6341 127.011 58.7726C126.319 58.921 125.613 58.9874 124.906 58.9706C124.162 59.0071 123.417 58.9405 122.691 58.7726C122.3 58.6341 122.111 58.4626 122.111 58.2383V0.78169Z" fill="#0B1547"/><path d="M152.835 48.484C152.84 49.8253 153.038 51.1587 153.422 52.4424C153.733 53.5202 154.242 54.5294 154.92 55.4179C155.547 56.2239 156.35 56.872 157.266 57.3113C158.213 57.7614 159.249 57.9871 160.296 57.971C160.946 57.971 161.591 57.8594 162.205 57.6412C162.811 57.4264 163.396 57.1525 163.951 56.8231C164.477 56.5041 164.986 56.1561 165.475 55.7807C165.945 55.4179 166.368 55.121 166.726 54.7977L167.13 54.4678C167.268 54.3584 167.422 54.2716 167.586 54.2105C167.797 54.129 168.015 54.0693 168.238 54.0324C168.606 53.9729 168.979 53.9464 169.352 53.9532C169.99 53.9454 170.627 54.0007 171.255 54.1182C171.776 54.2303 172.063 54.3557 172.108 54.5008C172.063 54.4283 171.932 54.5008 171.73 54.6855L171.02 55.3453C170.355 56.0201 169.618 56.6196 168.824 57.1332C168.042 57.6315 167.207 58.0408 166.335 58.3537C165.392 58.6944 164.416 58.9332 163.423 59.0662C162.28 59.2181 161.129 59.2909 159.976 59.2839C158.142 59.3127 156.314 59.0478 154.562 58.4988C153.064 58.0353 151.672 57.2726 150.47 56.2557C149.348 55.3078 148.456 54.1115 147.864 52.7591C147.259 51.3299 146.957 49.7881 146.978 48.2333C146.964 46.7119 147.298 45.2079 147.955 43.8395C148.606 42.4921 149.534 41.302 150.678 40.3494C151.943 39.343 153.382 38.5825 154.92 38.1063C156.615 37.5442 158.389 37.2656 160.172 37.2817C163.353 37.2832 166.445 38.3477 168.968 40.3099C170.093 41.1914 171.034 42.2902 171.737 43.5426C172.404 44.7524 172.754 46.1153 172.753 47.501C172.753 48.1344 171.687 48.451 169.554 48.451L152.835 48.484ZM167.085 47.1645C166.951 46.002 166.669 44.862 166.244 43.7735C165.869 42.7938 165.346 41.8791 164.694 41.062C164.109 40.3217 163.379 39.7128 162.55 39.2741C161.748 38.8399 160.853 38.6132 159.944 38.6143C159.055 38.6113 158.18 38.8384 157.403 39.2741C156.58 39.7289 155.852 40.3405 155.259 41.0752C154.6 41.8886 154.066 42.7983 153.676 43.7735C153.246 44.8429 152.959 45.9656 152.822 47.1118L167.085 47.1645Z" fill="#0B1547"/><path d="M191.03 58.1887C189.222 58.9501 187.28 59.3338 185.322 59.3169C183.668 59.3811 182.02 59.0771 180.494 58.4262C179.352 57.9083 178.361 57.099 177.621 56.0776C176.933 55.0927 176.468 53.9664 176.259 52.7789C176.028 51.5346 175.913 50.2712 175.913 49.0052V38.1261C175.913 37.9018 176.194 37.7237 176.747 37.5785C177.439 37.4132 178.148 37.3378 178.858 37.3542C179.344 37.3489 179.828 37.3688 180.311 37.4136C180.595 37.4324 180.876 37.4878 181.145 37.5785C181.295 37.6222 181.429 37.7093 181.53 37.8292C181.586 37.918 181.618 38.0206 181.621 38.1261V49.1042C181.621 50.1267 181.66 51.1625 181.745 52.2247C181.815 53.2025 181.992 54.1695 182.273 55.1078C182.495 55.8908 182.88 56.6171 183.4 57.2387C183.642 57.5194 183.943 57.7407 184.282 57.8858C184.62 58.031 184.987 58.0962 185.355 58.0766C185.881 58.0687 186.406 58.0023 186.918 57.8787C187.502 57.7457 188.07 57.5488 188.612 57.2915C189.144 57.0463 189.644 56.7337 190.098 56.3613C190.524 56.0296 190.856 55.5906 191.062 55.088V38.1261C191.062 37.9282 191.349 37.7501 191.916 37.5917C192.587 37.421 193.277 37.3411 193.968 37.3542C194.725 37.3149 195.484 37.3838 196.223 37.5587C196.588 37.6907 196.77 37.882 196.77 38.1261V52.8647L197.676 52.6799C197.988 52.8713 198.327 53.056 198.62 53.2275C198.847 53.3631 199.093 53.4611 199.35 53.5178L198.77 53.8477C198.485 54.0052 198.211 54.1815 197.949 54.3755C197.681 54.578 197.426 54.7984 197.187 55.0352C197 55.188 196.856 55.3884 196.77 55.6158V67.4383C196.798 68.2422 196.625 69.0403 196.266 69.7579C195.907 70.4756 195.374 71.0894 194.718 71.5418C193.349 72.5248 191.46 73.0196 189.062 73.0196C188.37 73.0289 187.677 72.9915 186.99 72.9075C186.482 72.8349 186.228 72.6766 186.228 72.4391C186.229 72.3423 186.261 72.2486 186.32 72.1723C186.379 72.096 186.461 72.0414 186.553 72.0168C186.825 71.9208 187.107 71.8588 187.394 71.8321C187.763 71.802 188.133 71.802 188.502 71.8321L189.648 71.9047H189.681C189.994 71.9047 190.248 71.7002 190.443 71.2977C190.66 70.8196 190.801 70.3097 190.86 69.7869C190.95 69.1305 191.007 68.4699 191.03 67.8077C191.03 67.0754 191.062 66.3827 191.062 65.7295L191.03 58.1887ZM199.5 53.4452C199.49 53.4569 199.478 53.4664 199.465 53.4732C199.451 53.48 199.437 53.4839 199.422 53.4848H199.37C199.353 53.4914 199.334 53.4914 199.318 53.4848C199.435 53.5706 199.5 53.5442 199.5 53.4386V53.4452Z" fill="#0B1547"/>
    </symbol>
    <symbol id="lupa" viewBox="0 0 20 21">
      <path d="M13 13.5L19 19.5M15 8.5C15 12.366 11.866 15.5 8 15.5C4.13401 15.5 1 12.366 1 8.5C1 4.63401 4.13401 1.5 8 1.5C11.866 1.5 15 4.63401 15 8.5Z" stroke="#0B1547" stroke-width="2" stroke-linecap="round" stroke-linejoin="round"/>
    </symbol>
    <symbol id="maestro" viewBox="0 0 58 40">
      <rect x=".5" y=".5" width="57" height="39" rx="3.5" fill="#fff" stroke="#F3F3F3"/><path d="M34.3103 28.9765H23.9592V10.5122H34.3103V28.9765Z" fill="#6C6BBD"/><path d="M24.6223 19.7429C24.6223 15.9973 26.3891 12.6609 29.1406 10.5107C27.1285 8.93846 24.5892 8.00001 21.8294 8.00001C15.2961 8.00001 10 13.2574 10 19.7429C10 26.2284 15.2961 31.4857 21.8294 31.4857C24.5892 31.4857 27.1285 30.5473 29.1406 28.975C26.3891 26.8249 24.6223 23.4884 24.6223 19.7429Z" fill="#EB001B"/><path d="M48.2706 19.7429C48.2706 26.2284 42.9745 31.4857 36.4412 31.4857C33.6814 31.4857 31.1421 30.5473 29.1293 28.975C31.8815 26.8249 33.6483 23.4884 33.6483 19.7429C33.6483 15.9973 31.8815 12.6609 29.1293 10.5107C31.1421 8.93846 33.6814 8.00001 36.4412 8.00001C42.9745 8.00001 48.2706 13.2574 48.2706 19.7429Z" fill="#0099DF"/>
    </symbol>
    <symbol id="mastercard" viewBox="0 0 58 40">
      <rect x=".5" y=".5" width="57" height="39" rx="3.5" fill="#fff" stroke="#F3F3F3"/><path d="M34.3103 28.9765H23.9592V10.5122H34.3103V28.9765Z" fill="#FF5F00"/><path d="M24.6223 19.7429C24.6223 15.9973 26.3891 12.6609 29.1406 10.5107C27.1285 8.93846 24.5892 8.00001 21.8294 8.00001C15.2961 8.00001 10 13.2574 10 19.7429C10 26.2284 15.2961 31.4857 21.8294 31.4857C24.5892 31.4857 27.1285 30.5473 29.1406 28.975C26.3891 26.8249 24.6223 23.4884 24.6223 19.7429Z" fill="#EB001B"/><path d="M48.2706 19.7429C48.2706 26.2284 42.9745 31.4857 36.4412 31.4857C33.6814 31.4857 31.1421 30.5473 29.1293 28.975C31.8815 26.8249 33.6483 23.4884 33.6483 19.7429C33.6483 15.9973 31.8815 12.6609 29.1293 10.5107C31.1421 8.93846 33.6814 8.00001 36.4412 8.00001C42.9745 8.00001 48.2706 13.2574 48.2706 19.7429Z" fill="#F79E1B"/>
    </symbol>
    <symbol id="metka-circle" viewBox="0 0 12 16">
      <path d="M6 15C6 15 11.25 11.3654 11.25 6.69231C11.25 5.31522 10.6969 3.99454 9.71231 3.02079C8.72774 2.04705 7.39239 1.5 6 1.5C4.60761 1.5 3.27226 2.04705 2.28769 3.02079C1.30312 3.99454 0.75 5.31522 0.75 6.69231C0.75 11.3654 6 15 6 15Z" stroke="#0B1547" stroke-width="1.2" stroke-linecap="round" stroke-linejoin="round"/>
    </symbol>
    <symbol id="metka-point" viewBox="0 0 6 6">
      <path d="M3 4.5C3.82843 4.5 4.5 3.82843 4.5 3C4.5 2.17157 3.82843 1.5 3 1.5C2.17157 1.5 1.5 2.17157 1.5 3C1.5 3.82843 2.17157 4.5 3 4.5Z" stroke="#0B1547" stroke-width="1.2" stroke-linecap="round" stroke-linejoin="round"/>
    </symbol>
    <symbol id="metka" viewBox="0 0 12 16">
      <path d="M6 15C6 15 11.25 11.3654 11.25 6.69231C11.25 5.31522 10.6969 3.99454 9.71231 3.02079C8.72774 2.04705 7.39239 1.5 6 1.5C4.60761 1.5 3.27226 2.04705 2.28769 3.02079C1.30312 3.99454 0.75 5.31522 0.75 6.69231C0.75 11.3654 6 15 6 15Z" stroke="#0B1547" stroke-width="1.2" stroke-linecap="round" stroke-linejoin="round"/>
    </symbol>
    <symbol id="metka_sircle" viewBox="0 0 6 6">
      <path d="M3 4.5C3.82843 4.5 4.5 3.82843 4.5 3C4.5 2.17157 3.82843 1.5 3 1.5C2.17157 1.5 1.5 2.17157 1.5 3C1.5 3.82843 2.17157 4.5 3 4.5Z" stroke="#0B1547" stroke-width="1.2" stroke-linecap="round" stroke-linejoin="round"/>
    </symbol>
    <symbol id="metka_sircle" viewBox="0 0 6 6">
      <path d="M3 4.5C3.82843 4.5 4.5 3.82843 4.5 3C4.5 2.17157 3.82843 1.5 3 1.5C2.17157 1.5 1.5 2.17157 1.5 3C1.5 3.82843 2.17157 4.5 3 4.5Z" stroke="#0B1547" stroke-width="1.2" stroke-linecap="round" stroke-linejoin="round"/>
    </symbol>
    <symbol id="mnp" viewBox="0 0 58 40">
      <rect x=".5" y=".5" width="57" height="39" rx="3.5" fill="#fff" stroke="#F3F3F3"/><path fill-rule="evenodd" clip-rule="evenodd" d="M9.38205 14.0022C9.40253 14.0021 9.42497 14.0017 9.44918 14.0013C9.92544 13.9932 11.0894 13.9734 11.5965 15.685C11.9555 16.8966 12.5274 18.8813 13.3121 21.639H13.6317C14.4732 18.7316 15.0513 16.747 15.366 15.685C15.8722 13.9764 17.0925 13.9931 17.6842 14.0012C17.7218 14.0018 17.7569 14.0022 17.7892 14.0022L21.9438 14.0022V26.926H17.7093V19.3098H17.4253L15.0648 26.926H11.8789L9.51842 19.3042H9.23447V26.926H5V14.0022L9.38205 14.0022ZM28.0244 14.0022V21.6241H28.3622L31.2335 15.3567C31.7909 14.1095 32.9788 14.0022 32.9788 14.0022H37.0765V26.926H32.7536V19.3042H32.4158L29.6008 25.5716C29.0434 26.8132 27.7992 26.926 27.7992 26.926H23.7015V14.0022H28.0244ZM47.4252 23.0762C49.5218 23.0762 51.4154 21.8525 52.0184 20.1437H38.781V26.926H42.8918V23.0762H47.4252Z" fill="#40A548"/><path d="M47.6235 14.0023H38.5654C38.781 16.8795 41.2588 19.3427 43.8239 19.3427H52.3041C52.7935 16.9513 51.1088 14.0023 47.6235 14.0023Z" fill="#1291D0"/>
    </symbol>
    <symbol id="s" viewBox="0 0 17 17">
      <path d="M16.4481 9.76948C16.5032 9.32792 16.5584 8.94156 16.5584 8.5C16.5584 4.08442 12.9708 0.441558 8.5 0.441558C8.05844 0.441558 7.67208 0.496753 7.23052 0.551948C6.51299 0.165584 5.74026 0 4.96753 0C2.20779 0 0 2.20779 0 4.96753C0 5.74026 0.165584 6.51299 0.551948 7.23052C0.496753 7.67208 0.441558 8.05844 0.441558 8.5C0.441558 12.9156 4.02922 16.5584 8.5 16.5584C8.94156 16.5584 9.32792 16.5032 9.76948 16.4481C10.487 16.7792 11.2597 17 12.0325 17C14.7922 17 17 14.7922 17 12.0325C17 11.2597 16.7792 10.487 16.4481 9.76948ZM11.8669 11.4253C11.7013 11.7565 11.4805 12.0325 11.1494 12.2532C10.8182 12.474 10.487 12.6396 10.0455 12.75C9.6039 12.8604 9.10714 12.9156 8.55519 12.9156C7.3961 12.9156 6.45779 12.6396 5.79545 12.1429C5.40909 11.8117 5.07792 11.4253 4.91234 10.9286C4.69156 10.487 5.07792 9.93507 5.62987 9.93507H5.79545C6.12662 9.93507 6.45779 10.1558 6.56818 10.4318C6.67857 10.7078 6.84416 10.9286 7.06494 11.0942C7.3961 11.3701 7.89286 11.4805 8.5 11.4805C9.05195 11.4805 9.49351 11.3701 9.82468 11.2045C10.1558 11.039 10.3214 10.7078 10.3214 10.3766C10.3214 10.211 10.2662 10.1006 10.211 9.99026C10.1558 9.87987 9.99026 9.76948 9.87987 9.71429C9.71429 9.6039 9.5487 9.5487 9.27273 9.49351C9.05195 9.43831 8.77597 9.32792 8.44481 9.27273L8.11364 9.16234C7.72727 9.05195 7.28571 8.94156 6.95455 8.83117C6.56818 8.72078 6.23701 8.55519 5.96104 8.38961C5.68507 8.22403 5.46429 8.00325 5.2987 7.67208C5.13312 7.3961 5.07792 7.00974 5.07792 6.56818C5.07792 6.12662 5.18831 5.74026 5.3539 5.40909C5.51948 5.07792 5.79545 4.80195 6.07143 4.63636C6.4026 4.41558 6.73377 4.25 7.17532 4.19481C7.56169 4.08442 8.00325 4.02922 8.5 4.02922C9.05195 4.02922 9.49351 4.08442 9.93507 4.19481C10.3766 4.30519 10.7078 4.47078 11.039 4.74675C11.3701 4.96753 11.5909 5.24351 11.7565 5.62987C12.0325 6.12662 11.6461 6.78896 11.039 6.78896H10.8734C10.5422 6.78896 10.2662 6.62338 10.1006 6.3474C9.99026 6.18182 9.87987 6.01623 9.71429 5.85065C9.43831 5.62987 8.99675 5.51948 8.5 5.51948C8.00325 5.51948 7.61688 5.62987 7.34091 5.79545C7.06494 5.96104 6.95455 6.23701 6.95455 6.51299C6.95455 6.67857 7.00974 6.78896 7.06494 6.89935C7.12013 7.00974 7.23052 7.12013 7.3961 7.17532C7.56169 7.23052 7.72727 7.34091 7.94805 7.3961C8.16883 7.4513 8.44481 7.50649 8.77597 7.61688C9.10714 7.67208 9.38312 7.78247 9.71429 7.83766C9.99026 7.89286 10.2662 8.00325 10.5422 8.05844C10.8182 8.16883 11.039 8.27922 11.2597 8.38961C11.4805 8.5 11.6461 8.66558 11.8117 8.83117C11.9773 8.99675 12.0877 9.21753 12.1429 9.43831C12.2532 9.65909 12.2532 9.99026 12.2532 10.3214C12.1429 10.7078 12.0325 11.0942 11.8669 11.4253Z" fill="#fff"/>
    </symbol>
    <symbol id="search" viewBox="0 0 20 21">
      <path d="M9.19314 19.142C4.18518 19.142 0.10791 15.0647 0.10791 10.0568C0.10791 5.04883 4.18518 0.971558 9.19314 0.971558C14.2011 0.971558 18.2784 5.04883 18.2784 10.0568C18.2784 15.0647 14.2011 19.142 9.19314 19.142ZM9.19314 2.3011C4.912 2.3011 1.43746 5.78451 1.43746 10.0568C1.43746 14.3291 4.912 17.8125 9.19314 17.8125C13.4743 17.8125 16.9488 14.3291 16.9488 10.0568C16.9488 5.78451 13.4743 2.3011 9.19314 2.3011Z" fill="#231815"/><path d="M18.4999 20.0283C18.3315 20.0283 18.163 19.9662 18.0301 19.8333L16.2574 18.0606C16.0003 17.8035 16.0003 17.3781 16.2574 17.121C16.5144 16.864 16.9399 16.864 17.1969 17.121L18.9696 18.8937C19.2267 19.1508 19.2267 19.5762 18.9696 19.8333C18.8367 19.9662 18.6683 20.0283 18.4999 20.0283Z" fill="#231815"/>
    </symbol>
    <symbol id="shampoo" viewBox="0 0 23 24">
      <path fill-rule="evenodd" clip-rule="evenodd" d="M7.81606 0.480343C7.72775 0.523842 7.59726 0.63573 7.52606 0.72901C7.40373 0.889181 7.39566 0.932921 7.38068 1.51503C7.35864 2.37238 7.30688 2.33232 8.43568 2.33232H9.30567V3.10562C9.30567 3.84669 9.30165 3.87893 9.209 3.87893C9.15584 3.87893 9.06884 3.92243 9.01567 3.97559C8.92824 4.06303 8.91901 4.13668 8.91901 4.74547V5.41868L8.65255 5.47402C7.78421 5.65425 7.0162 6.35994 6.70958 7.25935C6.60388 7.56949 6.60151 7.62512 6.6003 9.84099C6.59909 11.9783 6.59431 12.1037 6.51446 12.0716C6.46792 12.0529 6.27947 12.0181 6.09566 11.9943C5.68749 11.9414 5.55569 11.8609 5.49006 11.6245C5.41103 11.3399 5.42413 11.2254 5.53573 11.2254C5.5889 11.2254 5.67589 11.1819 5.72906 11.1287C5.8193 11.0385 5.82572 10.9676 5.82572 10.0654C5.82572 9.16318 5.8193 9.09233 5.72906 9.00209C5.63597 8.90901 5.56797 8.90543 3.89242 8.90543C2.21688 8.90543 2.14888 8.90901 2.05579 9.00209C1.96555 9.09233 1.95912 9.16318 1.95912 10.0654C1.95912 10.9676 1.96555 11.0385 2.05579 11.1287C2.10895 11.1819 2.1989 11.2254 2.25569 11.2254C2.35018 11.2254 2.35642 11.2437 2.32925 11.4418C2.27483 11.839 2.16077 11.9337 1.66154 11.9964C0.995855 12.08 0.453806 12.4664 0.178552 13.0535L0.0499878 13.3278V17.6051V21.8825L0.178552 22.1568C0.358591 22.5408 0.655594 22.8441 1.03384 23.0304L1.35289 23.1874L3.86719 23.1832C5.25008 23.1809 6.45767 23.1774 6.55071 23.1754C6.64375 23.1734 9.86376 23.1809 13.7063 23.192C19.5397 23.2089 20.7076 23.2014 20.7826 23.1466C20.8437 23.1019 20.929 22.859 21.0498 22.3851L21.2274 21.6892L21.5779 21.665C22.0762 21.6306 22.0655 21.6563 22.0655 20.4958C22.0655 19.2844 22.1051 19.3451 21.314 19.3451H20.7558L20.9103 19.1207C21.4075 18.398 21.4278 17.2804 20.9569 16.5467C20.7727 16.2595 20.4249 15.927 20.1314 15.7572C19.6647 15.4872 19.5751 15.4785 17.2476 15.4785H15.1056L15.1043 11.5274L15.1031 7.57631L14.995 7.25935C14.6862 6.35347 13.924 5.65503 13.0452 5.47257L12.7856 5.41868V4.74547C12.7856 4.13668 12.7764 4.06303 12.6889 3.97559C12.6358 3.92243 12.5488 3.87893 12.4956 3.87893C12.4008 3.87893 12.3989 3.84669 12.3989 2.23565C12.3989 0.656802 12.3952 0.588606 12.3023 0.495713C12.2085 0.401949 12.142 0.399098 10.0911 0.400161C8.2323 0.401128 7.95709 0.410794 7.81606 0.480343ZM9.30567 1.36568V1.55901H8.72568H8.14569V1.42368C8.14569 1.20005 8.21606 1.17236 8.78368 1.17236H9.30567V1.36568ZM11.6256 2.52564V3.87893H10.8523H10.079V2.52564V1.17236H10.8523H11.6256V2.52564ZM12.0123 5.03889V5.42555H10.8523H9.69233V5.03889V4.65224H10.8523H12.0123V5.03889ZM12.9995 6.309C13.536 6.48662 14.0409 6.98797 14.224 7.52488C14.3014 7.75185 14.3085 8.30326 14.3211 15.104L14.3347 22.4383H10.9045H7.4744L7.6046 22.1604L7.73486 21.8825L7.74844 19.8405L7.76202 17.7985H9.79049C11.7545 17.7985 11.8221 17.7954 11.9156 17.7018C12.0104 17.607 12.0123 17.5407 12.0123 14.3186C12.0123 11.0964 12.0104 11.0301 11.9156 10.9354C11.8218 10.8415 11.7545 10.8387 9.59566 10.8387H7.37237L7.37333 9.52166C7.37386 8.79726 7.396 8.05237 7.42258 7.8663C7.54303 7.02291 8.17169 6.37604 8.99281 6.25067C9.15158 6.2264 10.0645 6.21185 11.0215 6.21838C12.4784 6.22824 12.8002 6.24298 12.9995 6.309ZM16.8076 6.30204C16.458 6.43635 16.1113 6.79014 15.9751 7.15152C15.834 7.52566 15.8548 8.14648 16.019 8.46382C16.4955 9.38483 17.8018 9.58782 18.5349 8.85478C19.3072 8.08244 19.0287 6.67342 18.0297 6.29967C17.673 6.16623 17.1584 6.16724 16.8076 6.30204ZM17.8005 7.11691C18.4293 7.50023 18.1605 8.47011 17.4255 8.47011C16.6906 8.47011 16.4218 7.50023 17.0505 7.11691C17.2573 6.99082 17.5938 6.99082 17.8005 7.11691ZM5.0524 10.0654V10.452H3.89242H2.73244V10.0654V9.67874H3.89242H5.0524V10.0654ZM20.7846 9.77057C20.3649 9.96534 20.1315 10.3518 20.1332 10.8492C20.1356 11.5364 20.6018 11.9987 21.2921 11.9987C21.9879 11.9987 22.45 11.5358 22.45 10.8387C22.45 10.3349 22.1967 9.93378 21.7649 9.7537C21.5168 9.65017 21.0259 9.65863 20.7846 9.77057ZM21.5338 10.597C21.5875 10.6507 21.6305 10.7581 21.6305 10.8387C21.6305 10.9193 21.5875 11.0267 21.5338 11.0804C21.4801 11.1341 21.3727 11.177 21.2921 11.177C21.2116 11.177 21.1042 11.1341 21.0505 11.0804C20.9968 11.0267 20.9538 10.9193 20.9538 10.8387C20.9538 10.7581 20.9968 10.6507 21.0505 10.597C21.1042 10.5433 21.2116 10.5004 21.2921 10.5004C21.3727 10.5004 21.4801 10.5433 21.5338 10.597ZM4.66574 11.4977C4.66574 11.8656 4.74559 12.1066 4.94453 12.339C5.16806 12.6002 5.41345 12.7163 5.91224 12.797C6.42215 12.8796 6.65912 13.0276 6.83805 13.3752L6.96154 13.6151L6.97531 17.4267C6.98426 19.9086 6.97159 21.3339 6.93897 21.5121C6.87348 21.87 6.68363 22.1356 6.38252 22.2907L6.14274 22.4141L4.0771 22.429C1.83215 22.4453 1.57077 22.4248 1.26096 22.2082C0.946508 21.9884 0.839065 21.715 0.81021 21.0612L0.785657 20.505H2.62906C4.40799 20.505 4.4758 20.5017 4.56908 20.4084C4.66362 20.3138 4.66574 20.2473 4.66574 17.4118C4.66574 14.5763 4.66362 14.5098 4.56908 14.4152C4.4758 14.322 4.40799 14.3186 2.62867 14.3186H0.784981L0.8163 13.944C0.877151 13.2171 1.15729 12.9129 1.87261 12.797C2.10204 12.7599 2.37304 12.6867 2.47483 12.6344C2.88049 12.4257 3.1163 12.0199 3.11804 11.5274L3.1191 11.2254H3.89242H4.66574V11.4977ZM11.239 14.3186V17.0252H9.50112H7.76328L7.74907 15.1523L7.73486 13.2794L7.55361 12.9516C7.37662 12.6313 7.37237 12.6118 7.37237 12.1178V11.612H9.30567H11.239V14.3186ZM16.8076 11.7152C16.458 11.8495 16.1113 12.2033 15.9751 12.5647C15.834 12.9388 15.8548 13.5596 16.019 13.877C16.2884 14.3977 16.8105 14.7052 17.4255 14.7052C18.3357 14.7052 18.9722 14.0688 18.9722 13.1586C18.9722 12.2407 18.3327 11.6078 17.4116 11.6145C17.1826 11.6162 16.9754 11.6507 16.8076 11.7152ZM17.8005 12.5301C18.4293 12.9134 18.1605 13.8833 17.4255 13.8833C17.0132 13.8833 16.7009 13.571 16.7009 13.1586C16.7009 12.7463 17.0132 12.434 17.4255 12.434C17.5575 12.434 17.705 12.4718 17.8005 12.5301ZM3.89242 17.4118V19.7317H2.34578H0.799142V17.4118V15.0919H2.34578H3.89242V17.4118ZM19.1593 16.3025C19.6931 16.3892 20.0574 16.6373 20.3039 17.0822C20.4335 17.3162 20.4463 17.3805 20.4463 17.7985C20.4463 18.2173 20.4337 18.2804 20.3027 18.5169C20.158 18.7782 19.8968 19.0269 19.619 19.1678C19.3337 19.3125 18.8591 19.3444 16.9785 19.3447L15.1056 19.3451V17.7985V16.2518L16.9785 16.2522C18.035 16.2524 18.9856 16.2744 19.1593 16.3025ZM18.2275 16.78C17.983 16.9742 17.6904 17.0252 16.819 17.0252C16.1366 17.0252 16.0639 17.0335 15.9756 17.1218C15.8426 17.2548 15.8444 17.5706 15.9789 17.7051C16.0749 17.8011 16.1209 17.8046 17.1268 17.7897L18.1747 17.7743L18.4799 17.6089C18.8551 17.4054 18.9722 17.265 18.9722 17.0186C18.9722 16.6314 18.5747 16.504 18.2275 16.78ZM12.8823 17.1218C12.8017 17.2024 12.7856 17.2829 12.7856 17.6051C12.7856 18.0714 12.8614 18.1851 13.1723 18.1851C13.4831 18.1851 13.5589 18.0714 13.5589 17.6051C13.5589 17.1389 13.4831 17.0252 13.1723 17.0252C13.0434 17.0252 12.9467 17.0574 12.8823 17.1218ZM12.8823 19.0551C12.7937 19.1437 12.7856 19.2162 12.7856 19.9251C12.7856 20.6339 12.7937 20.7064 12.8823 20.795C12.9467 20.8595 13.0434 20.8917 13.1723 20.8917C13.3012 20.8917 13.3978 20.8595 13.4623 20.795C13.5509 20.7064 13.5589 20.6339 13.5589 19.9251C13.5589 19.2162 13.5509 19.1437 13.4623 19.0551C13.3978 18.9907 13.3012 18.9584 13.1723 18.9584C13.0434 18.9584 12.9467 18.9907 12.8823 19.0551ZM21.2921 20.505V20.8917H18.1989H15.1056V20.505V20.1184H18.1989H21.2921V20.505ZM20.3727 21.7012C20.3721 21.7212 20.3326 21.8897 20.2851 22.0758L20.1985 22.4141L17.652 22.4267L15.1056 22.4392V22.0521V21.665H17.7397C19.1885 21.665 20.3733 21.6813 20.3727 21.7012Z" fill="#0B1547"/>
    </symbol>
    <symbol id="shampoo_2553617-traced" viewBox="0 0 23 24">
      <path fill-rule="evenodd" clip-rule="evenodd" d="M7.81606 0.480343C7.72775 0.523842 7.59726 0.63573 7.52606 0.72901C7.40373 0.889181 7.39566 0.932921 7.38068 1.51503C7.35864 2.37238 7.30688 2.33232 8.43568 2.33232H9.30567V3.10562C9.30567 3.84669 9.30165 3.87893 9.209 3.87893C9.15584 3.87893 9.06884 3.92243 9.01567 3.97559C8.92824 4.06303 8.91901 4.13668 8.91901 4.74547V5.41868L8.65255 5.47402C7.78421 5.65425 7.0162 6.35994 6.70958 7.25935C6.60388 7.56949 6.60151 7.62512 6.6003 9.84099C6.59909 11.9783 6.59431 12.1037 6.51446 12.0716C6.46792 12.0529 6.27947 12.0181 6.09566 11.9943C5.68749 11.9414 5.55569 11.8609 5.49006 11.6245C5.41103 11.3399 5.42413 11.2254 5.53573 11.2254C5.5889 11.2254 5.67589 11.1819 5.72906 11.1287C5.8193 11.0385 5.82572 10.9676 5.82572 10.0654C5.82572 9.16318 5.8193 9.09233 5.72906 9.00209C5.63597 8.90901 5.56797 8.90543 3.89242 8.90543C2.21688 8.90543 2.14888 8.90901 2.05579 9.00209C1.96555 9.09233 1.95912 9.16318 1.95912 10.0654C1.95912 10.9676 1.96555 11.0385 2.05579 11.1287C2.10895 11.1819 2.1989 11.2254 2.25569 11.2254C2.35018 11.2254 2.35642 11.2437 2.32925 11.4418C2.27483 11.839 2.16077 11.9337 1.66154 11.9964C0.995855 12.08 0.453806 12.4664 0.178552 13.0535L0.0499878 13.3278V17.6051V21.8825L0.178552 22.1568C0.358591 22.5408 0.655594 22.8441 1.03384 23.0304L1.35289 23.1874L3.86719 23.1832C5.25008 23.1809 6.45767 23.1774 6.55071 23.1754C6.64375 23.1734 9.86376 23.1809 13.7063 23.192C19.5397 23.2089 20.7076 23.2014 20.7826 23.1466C20.8437 23.1019 20.929 22.859 21.0498 22.3851L21.2274 21.6892L21.5779 21.665C22.0762 21.6306 22.0655 21.6563 22.0655 20.4958C22.0655 19.2844 22.1051 19.3451 21.314 19.3451H20.7558L20.9103 19.1207C21.4075 18.398 21.4278 17.2804 20.9569 16.5467C20.7727 16.2595 20.4249 15.927 20.1314 15.7572C19.6647 15.4872 19.5751 15.4785 17.2476 15.4785H15.1056L15.1043 11.5274L15.1031 7.57631L14.995 7.25935C14.6862 6.35347 13.924 5.65503 13.0452 5.47257L12.7856 5.41868V4.74547C12.7856 4.13668 12.7764 4.06303 12.6889 3.97559C12.6358 3.92243 12.5488 3.87893 12.4956 3.87893C12.4008 3.87893 12.3989 3.84669 12.3989 2.23565C12.3989 0.656802 12.3952 0.588606 12.3023 0.495713C12.2085 0.401949 12.142 0.399098 10.0911 0.400161C8.2323 0.401128 7.95709 0.410794 7.81606 0.480343ZM9.30567 1.36568V1.55901H8.72568H8.14569V1.42368C8.14569 1.20005 8.21606 1.17236 8.78368 1.17236H9.30567V1.36568ZM11.6256 2.52564V3.87893H10.8523H10.079V2.52564V1.17236H10.8523H11.6256V2.52564ZM12.0123 5.03889V5.42555H10.8523H9.69233V5.03889V4.65224H10.8523H12.0123V5.03889ZM12.9995 6.309C13.536 6.48662 14.0409 6.98797 14.224 7.52488C14.3014 7.75185 14.3085 8.30326 14.3211 15.104L14.3347 22.4383H10.9045H7.4744L7.6046 22.1604L7.73486 21.8825L7.74844 19.8405L7.76202 17.7985H9.79049C11.7545 17.7985 11.8221 17.7954 11.9156 17.7018C12.0104 17.607 12.0123 17.5407 12.0123 14.3186C12.0123 11.0964 12.0104 11.0301 11.9156 10.9354C11.8218 10.8415 11.7545 10.8387 9.59566 10.8387H7.37237L7.37333 9.52166C7.37386 8.79726 7.396 8.05237 7.42258 7.8663C7.54303 7.02291 8.17169 6.37604 8.99281 6.25067C9.15158 6.2264 10.0645 6.21185 11.0215 6.21838C12.4784 6.22824 12.8002 6.24298 12.9995 6.309ZM16.8076 6.30204C16.458 6.43635 16.1113 6.79014 15.9751 7.15152C15.834 7.52566 15.8548 8.14648 16.019 8.46382C16.4955 9.38483 17.8018 9.58782 18.5349 8.85478C19.3072 8.08244 19.0287 6.67342 18.0297 6.29967C17.673 6.16623 17.1584 6.16724 16.8076 6.30204ZM17.8005 7.11691C18.4293 7.50023 18.1605 8.47011 17.4255 8.47011C16.6906 8.47011 16.4218 7.50023 17.0505 7.11691C17.2573 6.99082 17.5938 6.99082 17.8005 7.11691ZM5.0524 10.0654V10.452H3.89242H2.73244V10.0654V9.67874H3.89242H5.0524V10.0654ZM20.7846 9.77057C20.3649 9.96534 20.1315 10.3518 20.1332 10.8492C20.1356 11.5364 20.6018 11.9987 21.2921 11.9987C21.9879 11.9987 22.45 11.5358 22.45 10.8387C22.45 10.3349 22.1967 9.93378 21.7649 9.7537C21.5168 9.65017 21.0259 9.65863 20.7846 9.77057ZM21.5338 10.597C21.5875 10.6507 21.6305 10.7581 21.6305 10.8387C21.6305 10.9193 21.5875 11.0267 21.5338 11.0804C21.4801 11.1341 21.3727 11.177 21.2921 11.177C21.2116 11.177 21.1042 11.1341 21.0505 11.0804C20.9968 11.0267 20.9538 10.9193 20.9538 10.8387C20.9538 10.7581 20.9968 10.6507 21.0505 10.597C21.1042 10.5433 21.2116 10.5004 21.2921 10.5004C21.3727 10.5004 21.4801 10.5433 21.5338 10.597ZM4.66574 11.4977C4.66574 11.8656 4.74559 12.1066 4.94453 12.339C5.16806 12.6002 5.41345 12.7163 5.91224 12.797C6.42215 12.8796 6.65912 13.0276 6.83805 13.3752L6.96154 13.6151L6.97531 17.4267C6.98426 19.9086 6.97159 21.3339 6.93897 21.5121C6.87348 21.87 6.68363 22.1356 6.38252 22.2907L6.14274 22.4141L4.0771 22.429C1.83215 22.4453 1.57077 22.4248 1.26096 22.2082C0.946508 21.9884 0.839065 21.715 0.81021 21.0612L0.785657 20.505H2.62906C4.40799 20.505 4.4758 20.5017 4.56908 20.4084C4.66362 20.3138 4.66574 20.2473 4.66574 17.4118C4.66574 14.5763 4.66362 14.5098 4.56908 14.4152C4.4758 14.322 4.40799 14.3186 2.62867 14.3186H0.784981L0.8163 13.944C0.877151 13.2171 1.15729 12.9129 1.87261 12.797C2.10204 12.7599 2.37304 12.6867 2.47483 12.6344C2.88049 12.4257 3.1163 12.0199 3.11804 11.5274L3.1191 11.2254H3.89242H4.66574V11.4977ZM11.239 14.3186V17.0252H9.50112H7.76328L7.74907 15.1523L7.73486 13.2794L7.55361 12.9516C7.37662 12.6313 7.37237 12.6118 7.37237 12.1178V11.612H9.30567H11.239V14.3186ZM16.8076 11.7152C16.458 11.8495 16.1113 12.2033 15.9751 12.5647C15.834 12.9388 15.8548 13.5596 16.019 13.877C16.2884 14.3977 16.8105 14.7052 17.4255 14.7052C18.3357 14.7052 18.9722 14.0688 18.9722 13.1586C18.9722 12.2407 18.3327 11.6078 17.4116 11.6145C17.1826 11.6162 16.9754 11.6507 16.8076 11.7152ZM17.8005 12.5301C18.4293 12.9134 18.1605 13.8833 17.4255 13.8833C17.0132 13.8833 16.7009 13.571 16.7009 13.1586C16.7009 12.7463 17.0132 12.434 17.4255 12.434C17.5575 12.434 17.705 12.4718 17.8005 12.5301ZM3.89242 17.4118V19.7317H2.34578H0.799142V17.4118V15.0919H2.34578H3.89242V17.4118ZM19.1593 16.3025C19.6931 16.3892 20.0574 16.6373 20.3039 17.0822C20.4335 17.3162 20.4463 17.3805 20.4463 17.7985C20.4463 18.2173 20.4337 18.2804 20.3027 18.5169C20.158 18.7782 19.8968 19.0269 19.619 19.1678C19.3337 19.3125 18.8591 19.3444 16.9785 19.3447L15.1056 19.3451V17.7985V16.2518L16.9785 16.2522C18.035 16.2524 18.9856 16.2744 19.1593 16.3025ZM18.2275 16.78C17.983 16.9742 17.6904 17.0252 16.819 17.0252C16.1366 17.0252 16.0639 17.0335 15.9756 17.1218C15.8426 17.2548 15.8444 17.5706 15.9789 17.7051C16.0749 17.8011 16.1209 17.8046 17.1268 17.7897L18.1747 17.7743L18.4799 17.6089C18.8551 17.4054 18.9722 17.265 18.9722 17.0186C18.9722 16.6314 18.5747 16.504 18.2275 16.78ZM12.8823 17.1218C12.8017 17.2024 12.7856 17.2829 12.7856 17.6051C12.7856 18.0714 12.8614 18.1851 13.1723 18.1851C13.4831 18.1851 13.5589 18.0714 13.5589 17.6051C13.5589 17.1389 13.4831 17.0252 13.1723 17.0252C13.0434 17.0252 12.9467 17.0574 12.8823 17.1218ZM12.8823 19.0551C12.7937 19.1437 12.7856 19.2162 12.7856 19.9251C12.7856 20.6339 12.7937 20.7064 12.8823 20.795C12.9467 20.8595 13.0434 20.8917 13.1723 20.8917C13.3012 20.8917 13.3978 20.8595 13.4623 20.795C13.5509 20.7064 13.5589 20.6339 13.5589 19.9251C13.5589 19.2162 13.5509 19.1437 13.4623 19.0551C13.3978 18.9907 13.3012 18.9584 13.1723 18.9584C13.0434 18.9584 12.9467 18.9907 12.8823 19.0551ZM21.2921 20.505V20.8917H18.1989H15.1056V20.505V20.1184H18.1989H21.2921V20.505ZM20.3727 21.7012C20.3721 21.7212 20.3326 21.8897 20.2851 22.0758L20.1985 22.4141L17.652 22.4267L15.1056 22.4392V22.0521V21.665H17.7397C19.1885 21.665 20.3733 21.6813 20.3727 21.7012Z" fill="#0B1547"/>
    </symbol>
    <symbol id="share" viewBox="0 0 18 18">
      <path d="M3.5 6.25C1.98122 6.25 0.75 5.01878 0.75 3.5C0.75 1.98122 1.98122 0.75 3.5 0.75C5.01878 0.75 6.25 1.98122 6.25 3.5C6.25 3.61504 6.24294 3.72842 6.22922 3.83975L12.5909 7.02061C13.0855 6.54347 13.7585 6.25 14.5 6.25C16.0188 6.25 17.25 7.48122 17.25 9C17.25 10.5188 16.0188 11.75 14.5 11.75C13.7585 11.75 13.0855 11.4565 12.5909 10.9794L6.22922 14.1603C6.24294 14.2716 6.25 14.385 6.25 14.5C6.25 16.0188 5.01878 17.25 3.5 17.25C1.98122 17.25 0.75 16.0188 0.75 14.5C0.75 12.9812 1.98122 11.75 3.5 11.75C4.2415 11.75 4.91446 12.0435 5.40906 12.5206L11.7708 9.33975C11.7571 9.22842 11.75 9.11504 11.75 9C11.75 8.88496 11.7571 8.77158 11.7708 8.66025L5.40906 5.47939C4.91446 5.95653 4.2415 6.25 3.5 6.25Z" fill="#7D90DC"/>
    </symbol>
    <symbol id="star-gold" viewBox="0 0 20 19">
      <path d="M9.52772 0.358694C9.68337 -0.089086 10.3166 -0.0890864 10.4723 0.358694L12.472 6.11168C12.5407 6.30922 12.725 6.44315 12.9341 6.44741L19.0235 6.57151C19.4974 6.58116 19.6931 7.18344 19.3154 7.46984L14.4619 11.1495C14.2953 11.2758 14.2248 11.4925 14.2854 11.6927L16.0491 17.5224C16.1864 17.9761 15.6741 18.3484 15.2849 18.0776L10.2856 14.5987C10.1139 14.4793 9.88607 14.4793 9.71441 14.5987L4.71507 18.0776C4.32595 18.3484 3.81362 17.9761 3.9509 17.5224L5.7146 11.6927C5.77516 11.4925 5.70474 11.2758 5.53809 11.1495L0.68463 7.46984C0.306864 7.18344 0.502554 6.58116 0.976516 6.57151L7.06589 6.44741C7.27497 6.44315 7.45932 6.30922 7.52798 6.11168L9.52772 0.358694Z" fill="#FCC154"/>
    </symbol>
    <symbol id="star-grey" viewBox="0 0 20 19">
      <path d="M9.52772 0.358694C9.68337 -0.089086 10.3166 -0.0890864 10.4723 0.358694L12.472 6.11168C12.5407 6.30922 12.725 6.44315 12.9341 6.44741L19.0235 6.57151C19.4974 6.58116 19.6931 7.18344 19.3154 7.46984L14.4619 11.1495C14.2953 11.2758 14.2248 11.4925 14.2854 11.6927L16.0491 17.5224C16.1864 17.9761 15.6741 18.3484 15.2849 18.0776L10.2856 14.5987C10.1139 14.4793 9.88607 14.4793 9.71441 14.5987L4.71507 18.0776C4.32595 18.3484 3.81362 17.9761 3.9509 17.5224L5.7146 11.6927C5.77516 11.4925 5.70474 11.2758 5.53809 11.1495L0.68463 7.46984C0.306864 7.18344 0.502554 6.58116 0.976516 6.57151L7.06589 6.44741C7.27497 6.44315 7.45932 6.30922 7.52798 6.11168L9.52772 0.358694Z" fill="#D9D9D9"/>
    </symbol>
    <symbol id="telegram-blue" viewBox="0 0 19 20">
      <path d="M13.9859 11.6338L13.5801 10L13.9859 8.36623L17.072 10L13.9859 11.6338ZM0.771934 18.0512L0.771976 18.0512L0.771934 18.0512Z" fill="#7D90DC" stroke="#7D90DC" stroke-width="2"/>
    </symbol>
    <symbol id="telegram" viewBox="0 0 16 15">
      <path d="M15.4 1.08188L12.9956 13.6339C12.9956 13.6339 12.6592 14.5042 11.7351 14.0868L6.18761 9.68216L6.16189 9.66918C6.91122 8.97241 12.7219 3.56223 12.9758 3.31699C13.369 2.93719 13.1249 2.71108 12.6684 2.99798L4.08538 8.64247L0.774062 7.48871C0.774062 7.48871 0.252957 7.29676 0.202825 6.87938C0.152034 6.46132 0.791212 6.23521 0.791212 6.23521L14.2905 0.751256C14.2905 0.751256 15.4 0.246442 15.4 1.08188Z" fill="#fff"/>
    </symbol>
    <symbol id="up" viewBox="0 0 13 15">
      <path d="M6.5 2V13.25M6.5 2L2 5.5M6.5 2L11 5.5" stroke="#fff" stroke-width="2" stroke-linecap="square"/>
    </symbol>
    <symbol id="visa-classic" viewBox="0 0 58 40">
      <rect x=".5" y=".5" width="57" height="39" rx="3.5" fill="#fff" stroke="#F3F3F3"/><path d="M25.7516 27.4332H21.8901L24.3054 13.4325H28.1667L25.7516 27.4332Z" fill="#15195A"/><path d="M39.7499 13.7748C38.9882 13.4915 37.7802 13.1787 36.2865 13.1787C32.4731 13.1787 29.7878 15.0851 29.7713 17.8107C29.7396 19.8216 31.6939 20.9385 33.1556 21.609C34.6495 22.2941 35.1574 22.7413 35.1574 23.352C35.1422 24.29 33.9502 24.7223 32.8384 24.7223C31.2967 24.7223 30.4707 24.4994 29.2153 23.9776L28.7069 23.7539L28.1665 26.8968C29.0722 27.2836 30.7408 27.6268 32.4731 27.6419C36.5249 27.6419 39.1627 25.765 39.1939 22.8605C39.2093 21.2667 38.1774 20.0455 35.9526 19.0475C34.602 18.4069 33.7749 17.975 33.7749 17.3195C33.7908 16.7237 34.4745 16.1133 35.9991 16.1133C37.2544 16.0834 38.1768 16.3663 38.8755 16.6494L39.2247 16.7981L39.7499 13.7748Z" fill="#15195A"/><path fill-rule="evenodd" clip-rule="evenodd" d="M46.6618 13.4325H49.6486L52.7639 27.433H49.1885C49.1885 27.433 48.8386 25.8244 48.7278 25.3328H43.7699C43.6266 25.705 42.9595 27.433 42.9595 27.433H38.9078L44.6435 14.5942C45.0409 13.6855 45.7407 13.4325 46.6618 13.4325ZM46.4238 18.556C46.4238 18.556 45.2001 21.669 44.8821 22.4733H48.0918C47.933 21.7733 47.2017 18.422 47.2017 18.422L46.9319 17.2156C46.8182 17.5262 46.6539 17.9533 46.543 18.2414C46.4679 18.4367 46.4173 18.5681 46.4238 18.556Z" fill="#15195A"/><path fill-rule="evenodd" clip-rule="evenodd" d="M5.1589 13.4325H11.3716C12.2138 13.462 12.8971 13.7152 13.1194 14.6094L14.4696 21.0422C14.4697 21.0426 14.4699 21.043 14.47 21.0434L14.8832 22.9797L18.6649 13.4325H22.7481L16.6785 27.4184H12.5951L9.15337 15.253C7.96587 14.6021 6.6106 14.0787 5.09534 13.7154L5.1589 13.4325Z" fill="#15195A"/>
    </symbol>
    <symbol id="vk" viewBox="0 0 18 11">
      <path d="M9.80393 10.9998C3.65403 10.9998 0.14622 6.87067 6.10352e-05 -0.000198364H3.08064C3.18182 5.04284 5.4529 7.17898 7.25178 7.61942V-0.000198364H10.1525V4.34915C11.9289 4.16196 13.7952 2.17998 14.4248 -0.000198364H17.3255C17.0882 1.13051 16.6153 2.2011 15.9363 3.14462C15.2573 4.08815 14.3867 4.8843 13.3792 5.48328C14.5039 6.0306 15.4972 6.80526 16.2937 7.75617C17.0903 8.70708 17.6718 9.81261 18.0001 10.9998H14.8071C14.5124 9.96864 13.9136 9.04558 13.0856 8.34631C12.2576 7.64704 11.2372 7.20266 10.1525 7.06887V10.9998H9.80393Z" fill="#fff"/>
    </symbol>
    <symbol id="well" viewBox="0 0 340 340">
      <path fill="#FEFEFE" d="M0 0H340V340H0z"/><g clip-path="url(#clip0_2158_300)" fill="#D9D9D9"><path d="M100.251 187.259C99.7239 187.294 99.1953 187.236 98.6887 187.089C98.5066 187.024 98.3488 186.905 98.2358 186.749H98.267L97.3352 184.952C96.9708 184.23 96.5283 183.406 96.0181 182.417C95.5079 181.428 94.9769 180.444 94.4563 179.398C93.9357 178.353 93.3787 177.338 92.8581 176.308C92.3375 175.277 91.8221 174.376 91.4056 173.557L90.3904 171.579C90.242 171.318 90.1115 171.048 90 170.77C90 170.713 90.0937 170.651 90.2759 170.595C90.4581 170.538 90.6924 170.481 90.9735 170.425C91.2661 170.367 91.5615 170.324 91.8585 170.296C92.1657 170.296 92.4572 170.255 92.7279 170.255C92.9986 170.255 93.285 170.255 93.5869 170.286C93.8888 170.317 94.1596 170.332 94.4146 170.368C94.6697 170.404 94.878 170.45 95.0498 170.497C95.1707 170.515 95.2832 170.569 95.3725 170.651L102.494 183.844L104.004 180.851C103.426 179.713 102.822 178.554 102.203 177.374C101.583 176.194 101.031 175.128 100.537 174.159L99.3186 171.764C99.1434 171.442 98.987 171.11 98.8501 170.77C98.8501 170.713 98.9386 170.651 99.1208 170.595C99.303 170.538 99.5373 170.481 99.8184 170.425C100.1 170.368 100.396 170.327 100.703 170.296C101.011 170.265 101.307 170.255 101.578 170.255C101.849 170.255 102.135 170.255 102.432 170.286C102.729 170.317 103.01 170.332 103.26 170.368C103.509 170.404 103.723 170.45 103.9 170.497C104.019 170.515 104.13 170.569 104.217 170.651L106.82 175.468C107.206 174.747 107.58 174.036 107.934 173.33C108.288 172.624 108.637 171.944 108.976 171.27C109.041 171.206 109.091 171.128 109.121 171.043C109.163 170.945 109.205 170.852 109.252 170.76C109.302 170.664 109.367 170.577 109.444 170.502C109.543 170.427 109.66 170.38 109.783 170.363C110.23 170.363 110.475 170.399 110.522 170.476C110.577 170.572 110.602 170.681 110.595 170.79C110.529 170.981 110.447 171.165 110.35 171.342C110.183 171.676 109.965 172.114 109.684 172.655C109.403 173.196 109.075 173.825 108.695 174.546C108.315 175.267 107.914 176.029 107.508 176.807L111.313 183.844L112.875 180.836C113.396 179.805 113.968 178.713 114.53 177.631L116.202 174.402C116.753 173.325 117.279 172.289 117.763 171.28C117.825 171.214 117.875 171.137 117.909 171.053C117.947 170.956 117.991 170.862 118.039 170.77C118.086 170.674 118.149 170.587 118.227 170.512C118.334 170.421 118.466 170.362 118.607 170.342C119.049 170.342 119.299 170.378 119.346 170.456C119.399 170.552 119.424 170.66 119.419 170.77C119.316 171.034 119.194 171.291 119.054 171.537L118.112 173.387C117.722 174.149 117.284 175.009 116.79 175.962C116.295 176.915 115.79 177.904 115.264 178.909C114.739 179.914 114.223 180.897 113.703 181.856C113.182 182.814 112.75 183.674 112.365 184.431C112.172 184.792 111.959 185.178 111.724 185.585C111.49 185.992 111.292 186.379 111.115 186.739C110.986 186.911 110.803 187.036 110.595 187.095C110.086 187.227 109.559 187.279 109.033 187.249C108.506 187.283 107.978 187.225 107.471 187.079C107.29 187.014 107.134 186.895 107.023 186.739L106.138 184.952L104.722 182.211L103.561 184.431C103.364 184.792 103.155 185.178 102.921 185.585C102.687 185.992 102.484 186.379 102.312 186.739C102.182 186.91 101.999 187.035 101.791 187.095C101.29 187.229 100.77 187.285 100.251 187.259Z"/><path d="M124.495 178.858C124.497 179.905 124.653 180.946 124.958 181.948C125.217 182.79 125.63 183.577 126.176 184.272C126.679 184.899 127.32 185.404 128.05 185.75C128.809 186.101 129.639 186.277 130.476 186.265C130.996 186.265 131.511 186.178 132.002 186.008C132.485 185.84 132.95 185.626 133.392 185.369C133.814 185.12 134.222 184.848 134.615 184.555L135.614 183.787L135.932 183.53C136.043 183.445 136.166 183.378 136.296 183.329C136.477 183.263 136.663 183.217 136.854 183.19C137.146 183.143 137.442 183.123 137.739 183.128C138.25 183.122 138.761 183.165 139.264 183.257C139.68 183.344 139.909 183.442 139.946 183.556C139.909 183.499 139.805 183.556 139.639 183.7L139.076 184.215C138.543 184.742 137.953 185.21 137.317 185.611C136.692 186.001 136.025 186.321 135.328 186.564C134.576 186.831 133.798 187.017 133.006 187.12C132.092 187.239 131.17 187.296 130.247 187.29C128.783 187.32 127.323 187.122 125.921 186.703C124.726 186.341 123.616 185.745 122.657 184.952C121.76 184.211 121.048 183.277 120.575 182.221C120.089 181.106 119.846 179.902 119.861 178.688C119.854 177.498 120.129 176.323 120.663 175.257C121.181 174.204 121.923 173.274 122.839 172.532C123.828 171.741 124.955 171.138 126.166 170.754C127.52 170.315 128.937 170.098 130.362 170.11C132.899 170.113 135.364 170.944 137.374 172.475C138.278 173.16 139.032 174.019 139.592 174.999C140.125 175.944 140.405 177.008 140.404 178.09C140.404 178.584 139.554 178.832 137.853 178.832L124.495 178.858ZM135.875 177.827C135.77 176.92 135.546 176.03 135.208 175.179C134.911 174.413 134.494 173.697 133.975 173.057C133.507 172.48 132.924 172.005 132.262 171.661C131.621 171.323 130.906 171.146 130.179 171.146C129.469 171.144 128.77 171.321 128.149 171.661C127.491 172.021 126.911 172.506 126.442 173.088C125.915 173.723 125.488 174.433 125.177 175.195C124.831 176.029 124.601 176.906 124.495 177.801L135.875 177.827Z"/><path d="M143.658 141.598C143.658 141.448 143.871 141.309 144.298 141.185C144.847 141.047 145.413 140.984 145.98 141C146.58 140.958 147.183 141.04 147.75 141.242C148.062 141.402 148.218 141.562 148.218 141.711V186.461C148.218 186.615 147.979 186.749 147.505 186.863C146.967 186.983 146.416 187.04 145.865 187.033C145.417 187.033 145.053 187.033 144.761 186.992C144.531 186.972 144.303 186.934 144.079 186.878C143.955 186.85 143.839 186.79 143.746 186.703C143.687 186.636 143.655 186.55 143.658 186.461V141.598Z"/><path d="M153.991 141.598C153.991 141.448 154.205 141.309 154.632 141.185C155.183 141.047 155.75 140.985 156.319 141C156.919 140.958 157.522 141.041 158.089 141.242C158.396 141.402 158.552 141.561 158.552 141.711V186.461C158.552 186.615 158.318 186.749 157.839 186.863C157.301 186.983 156.75 187.04 156.199 187.033C155.756 187.033 155.387 187.033 155.095 186.992C154.865 186.971 154.637 186.933 154.413 186.878C154.289 186.849 154.174 186.789 154.08 186.703C154.02 186.636 153.989 186.55 153.991 186.461V141.598Z"/><path d="M166.132 187.033C165.528 187.063 164.922 187.015 164.33 186.888C164.039 186.796 163.893 186.652 163.893 186.461V170.77C163.893 170.595 164.117 170.456 164.565 170.342C165.115 170.213 165.681 170.154 166.246 170.167C167.1 170.167 167.683 170.353 168.006 170.723C168.314 171.09 168.497 171.545 168.526 172.022C169.476 171.459 170.49 171.01 171.546 170.682C172.727 170.327 173.956 170.153 175.19 170.167C176.349 170.135 177.504 170.31 178.6 170.682C179.421 170.973 180.162 171.451 180.76 172.078C181.302 172.664 181.691 173.371 181.895 174.139C182.112 174.961 182.219 175.808 182.213 176.658V186.445C182.213 186.621 181.999 186.755 181.578 186.863C181.023 186.978 180.457 187.03 179.891 187.017C178.361 187.017 177.595 186.827 177.595 186.445V176.405C177.599 175.707 177.561 175.008 177.481 174.314C177.421 173.751 177.279 173.199 177.059 172.676C176.885 172.258 176.605 171.89 176.247 171.609C175.872 171.343 175.418 171.207 174.956 171.223C174.375 171.238 173.805 171.379 173.285 171.635C172.66 171.933 172.067 172.292 171.515 172.707C170.915 173.147 170.351 173.633 169.828 174.159C169.329 174.647 168.86 175.163 168.422 175.705V186.461C168.422 186.636 168.209 186.77 167.782 186.878C167.24 186.992 166.686 187.043 166.132 187.033Z"/><path d="M187.167 141.61C187.167 141.44 187.385 141.296 187.833 141.183C188.384 141.058 188.949 141.001 189.515 141.013C190.115 140.966 190.719 141.049 191.285 141.255C191.576 141.415 191.722 141.574 191.722 141.724V179.015C192.627 178.393 193.496 177.723 194.325 177.006C195.194 176.253 196.069 175.46 196.928 174.698C197.787 173.935 198.672 173.152 199.531 172.39C200.357 171.67 201.227 170.999 202.134 170.381L202.654 170.098C203.06 170.134 203.456 170.18 203.841 170.226C204.227 170.273 204.57 170.324 204.883 170.381C205.118 170.425 205.351 170.482 205.58 170.551C205.752 170.608 205.84 170.664 205.84 170.726C205.621 170.828 205.411 170.95 205.216 171.092C204.799 171.36 204.263 171.71 203.602 172.122L201.353 173.606C200.51 174.157 199.666 174.713 198.812 175.285L196.36 176.908C195.574 177.423 194.903 177.866 194.34 178.247L193.268 178.958C193.711 178.958 194.179 178.927 194.674 178.917H196.111C197.437 178.897 198.763 178.978 200.077 179.159C200.89 179.256 201.674 179.514 202.384 179.916C202.885 180.207 203.265 180.666 203.456 181.209C203.645 181.813 203.735 182.442 203.722 183.074C203.722 183.362 203.722 183.661 203.722 183.975C203.722 184.29 203.722 184.614 203.675 184.954C203.628 185.294 203.617 185.83 203.617 186.293C203.617 186.757 203.591 187.262 203.591 187.756C203.579 188.392 203.631 189.027 203.748 189.652C203.857 190.136 204.034 190.399 204.268 190.435C204.206 190.435 204.195 190.363 204.221 190.281C204.266 190.168 204.325 190.063 204.398 189.966C204.482 189.843 204.581 189.709 204.685 189.565C204.789 189.42 204.903 189.286 205.023 189.152H204.992C205.065 189.063 205.153 188.986 205.252 188.926C205.413 188.831 205.589 188.763 205.773 188.725C206.064 188.658 206.36 188.615 206.658 188.596C207.022 188.57 207.501 188.555 208.079 188.555C208.329 188.709 208.574 188.843 208.808 188.967C209.042 189.091 209.172 189.137 209.214 189.096C209.181 189.272 209.111 189.439 209.009 189.586C208.907 189.733 208.774 189.858 208.62 189.951C208.21 190.258 207.762 190.512 207.288 190.708C206.759 190.922 206.214 191.094 205.658 191.223C205.184 191.346 204.696 191.413 204.206 191.424C203.297 191.453 202.39 191.328 201.525 191.053C200.919 190.859 200.37 190.521 199.926 190.069C199.55 189.668 199.284 189.176 199.156 188.643C199.02 188.098 198.952 187.539 198.953 186.979C198.953 186.278 198.979 185.613 199.041 184.985C199.041 184.717 199.078 184.439 199.099 184.145C199.12 183.852 199.125 183.589 199.125 183.362C199.139 182.727 199.087 182.091 198.969 181.467C198.899 181.089 198.735 180.734 198.49 180.436C198.273 180.207 197.986 180.056 197.672 180.009C197.299 179.949 196.921 179.922 196.543 179.926L191.722 180.179V186.474C191.722 186.649 191.508 186.783 191.082 186.891C190.529 187.007 189.965 187.059 189.4 187.046C188.806 187.074 188.21 187.022 187.63 186.891C187.318 186.783 187.167 186.649 187.167 186.474V141.61Z"/><path d="M211.715 178.857C211.719 179.905 211.877 180.946 212.184 181.948C212.433 182.79 212.839 183.578 213.381 184.272C213.882 184.901 214.523 185.407 215.255 185.75C216.012 186.101 216.84 186.278 217.676 186.265C218.195 186.265 218.711 186.178 219.201 186.008C219.686 185.84 220.153 185.626 220.596 185.369C221.017 185.12 221.424 184.848 221.815 184.555C222.189 184.272 222.528 184.04 222.814 183.787L223.137 183.53C223.247 183.444 223.37 183.377 223.501 183.329C223.67 183.265 223.844 183.219 224.022 183.19C224.316 183.143 224.614 183.123 224.912 183.128C225.422 183.122 225.931 183.165 226.432 183.257C226.849 183.344 227.078 183.442 227.114 183.556C227.078 183.499 226.974 183.556 226.812 183.7L226.245 184.215C225.713 184.742 225.125 185.21 224.49 185.611C223.865 186 223.198 186.32 222.502 186.564C221.748 186.83 220.968 187.016 220.175 187.12C219.262 187.239 218.342 187.296 217.421 187.29C215.955 187.313 214.495 187.106 213.095 186.677C211.898 186.315 210.786 185.72 209.825 184.926C208.929 184.186 208.216 183.252 207.743 182.196C207.26 181.08 207.018 179.876 207.035 178.662C207.024 177.474 207.291 176.299 207.816 175.231C208.336 174.179 209.078 173.25 209.992 172.506C211.003 171.72 212.152 171.126 213.381 170.754C214.735 170.315 216.152 170.098 217.577 170.11C220.119 170.112 222.589 170.943 224.605 172.475C225.504 173.163 226.256 174.021 226.817 174.999C227.351 175.944 227.63 177.008 227.63 178.09C227.63 178.584 226.778 178.832 225.073 178.832L211.715 178.857ZM223.1 177.827C222.994 176.919 222.768 176.029 222.429 175.179C222.129 174.414 221.711 173.7 221.19 173.062C220.723 172.484 220.14 172.009 219.477 171.666C218.836 171.327 218.121 171.15 217.395 171.151C216.685 171.149 215.986 171.326 215.364 171.666C214.707 172.021 214.126 172.499 213.652 173.072C213.125 173.708 212.698 174.418 212.387 175.179C212.043 176.014 211.814 176.891 211.705 177.786L223.1 177.827Z"/><path d="M242.232 186.435C240.788 187.03 239.236 187.329 237.672 187.316C236.35 187.366 235.033 187.129 233.814 186.621C232.902 186.216 232.11 185.584 231.518 184.787C230.969 184.018 230.597 183.138 230.43 182.211C230.246 181.239 230.154 180.253 230.154 179.264V170.77C230.154 170.595 230.378 170.456 230.821 170.342C231.373 170.213 231.94 170.154 232.508 170.167C232.895 170.163 233.283 170.178 233.668 170.213C233.895 170.228 234.119 170.271 234.335 170.342C234.454 170.376 234.561 170.444 234.642 170.538C234.687 170.607 234.712 170.687 234.715 170.77V179.342C234.715 180.14 234.746 180.949 234.814 181.778C234.87 182.542 235.011 183.297 235.235 184.029C235.413 184.641 235.72 185.208 236.136 185.693C236.329 185.913 236.57 186.085 236.841 186.199C237.111 186.312 237.404 186.363 237.698 186.348C238.119 186.341 238.538 186.29 238.947 186.193C239.414 186.089 239.868 185.935 240.301 185.735C240.726 185.543 241.125 185.299 241.488 185.008C241.828 184.749 242.094 184.406 242.258 184.014V170.77C242.258 170.615 242.487 170.476 242.94 170.353C243.476 170.219 244.028 170.157 244.58 170.167C245.185 170.136 245.792 170.19 246.381 170.327C246.673 170.43 246.819 170.579 246.819 170.77V182.278L247.542 182.134C247.792 182.283 248.063 182.427 248.297 182.561C248.478 182.667 248.675 182.744 248.88 182.788L248.417 183.046C248.189 183.169 247.97 183.306 247.761 183.458C247.547 183.616 247.343 183.788 247.152 183.973C247.002 184.092 246.887 184.249 246.819 184.426V193.657C246.841 194.285 246.703 194.908 246.416 195.469C246.129 196.029 245.704 196.508 245.179 196.862C244.086 197.629 242.576 198.015 240.66 198.015C240.107 198.023 239.554 197.993 239.005 197.928C238.599 197.871 238.395 197.748 238.395 197.562C238.396 197.487 238.422 197.413 238.469 197.354C238.516 197.294 238.582 197.252 238.656 197.232C238.873 197.157 239.098 197.109 239.327 197.088C239.622 197.065 239.918 197.065 240.212 197.088L241.129 197.145H241.155C241.405 197.145 241.608 196.985 241.764 196.671C241.937 196.298 242.05 195.899 242.097 195.491C242.169 194.979 242.214 194.463 242.232 193.946C242.232 193.374 242.258 192.833 242.258 192.323L242.232 186.435ZM249 182.731C248.992 182.74 248.983 182.748 248.972 182.753C248.961 182.758 248.95 182.762 248.938 182.762H248.896C248.882 182.767 248.868 182.767 248.854 182.762C248.948 182.829 249 182.809 249 182.726V182.731Z"/></g>
    </symbol>
    <symbol id="yandex" viewBox="0 0 16 16">
      <path fill-rule="evenodd" clip-rule="evenodd" d="M9.54286 9.54286C8.28572 10.84 8.2 12.4571 8.08571 16C11.3886 16 13.6686 15.9886 14.8457 14.8457C15.9886 13.6686 16 11.28 16 8.08571C12.4571 8.2 10.84 8.28572 9.54286 9.54286ZM7.91429 16C4.61143 16 2.33143 15.9886 1.15429 14.8457C0.0114286 13.6686 0 11.28 0 8.08571C3.54286 8.2 5.16 8.28572 6.45714 9.54286C7.71429 10.84 7.8 12.4571 7.91429 16ZM6.45714 6.45714C5.16 7.71429 3.54286 7.8 0 7.91429C0 4.72 0.0114286 2.33143 1.15429 1.15429C2.33143 0.0114286 4.61714 0 7.91429 0C7.8 3.54286 7.71429 5.16 6.45714 6.45714ZM8.08571 0C8.19429 3.54286 8.28572 5.16 9.54286 6.45714C10.84 7.71429 12.4571 7.8 16 7.91429C16 4.72 15.9886 2.33143 14.8457 1.15429C13.6686 0.0114286 11.3886 0 8.08571 0Z" fill="#fff"/>
    </symbol>
    <symbol id="youtube" viewBox="0 0 18 12">
      <path fill-rule="evenodd" clip-rule="evenodd" d="M1.85113 11.6455C1.53018 11.5526 1.23735 11.3874 0.997329 11.1639C0.757308 10.9403 0.577148 10.665 0.472048 10.361C-0.128519 8.7899 -0.306465 2.22954 0.850182 0.934459C1.23514 0.513159 1.77864 0.253775 2.36272 0.212607C5.46565 -0.105856 15.0525 -0.0633941 16.1535 0.318762C16.4632 0.414658 16.7461 0.576205 16.9811 0.791298C17.2161 1.00639 17.397 1.26945 17.5104 1.56077C18.1665 3.18494 18.1888 9.08713 17.4214 10.6476C17.2178 11.0538 16.877 11.3828 16.4538 11.5818C15.2972 12.1338 3.38591 12.1231 1.85113 11.6455ZM6.778 8.56697L12.3388 5.80695L6.778 3.0257V8.56697Z" fill="#fff"/>
    </symbol></svg>