<svg width="49" height="29" viewBox="0 0 49 29" fill="none" xmlns="http://www.w3.org/2000/svg">
<path d="M48.7616 14.5C48.7616 22.4564 42.2924 29 34.2616 29C26.3052 29 19.7616 22.4564 19.7616 14.5C19.7616 6.54359 26.2308 0 34.1872 0C42.2924 0 48.7616 6.54359 48.7616 14.5Z" fill="#717171"/>
<path d="M29.3542 14.5744C29.3542 13.5333 29.2055 12.4923 29.0568 11.5256H20.1337C20.2081 11.0051 20.3568 10.559 20.5055 9.9641H28.4619C28.3132 9.44359 28.0901 8.92308 27.8671 8.40256H21.1004C21.3235 7.88205 21.6209 7.4359 21.9183 6.84103H27.0491C26.7517 6.32051 26.3799 5.8 25.9337 5.27949H23.1081C23.5542 4.75897 24.0004 4.31282 24.5953 3.79231C22.0671 1.41282 18.6465 0 14.8542 0C6.97218 0.223077 0.428589 6.54359 0.428589 14.5C0.428589 22.4564 6.89782 29 14.9286 29C18.7209 29 22.0671 27.5128 24.6696 25.2077C25.1901 24.7615 25.6363 24.241 26.1568 23.6462H23.1824C22.8106 23.2 22.4388 22.6795 22.1414 22.159H27.1978C27.4953 21.7128 27.7927 21.1923 28.0158 20.5974H21.2491C21.026 20.1513 20.8029 19.6308 20.6542 19.0359H28.6106C29.0568 17.6974 29.3542 16.2103 29.3542 14.5744Z" fill="#4D4D4D"/>
<path d="M20.0615 18.2182L20.2845 16.8797C20.2102 16.8797 20.0615 16.9541 19.9127 16.9541C19.3922 16.9541 19.3179 16.6567 19.3922 16.5079L19.8384 13.831H20.6563L20.8794 12.3438H20.1358L20.2845 11.4515H18.723C18.723 11.4515 17.8307 16.5079 17.8307 17.1028C17.8307 17.9951 18.3512 18.4413 19.0948 18.4413C19.5409 18.4413 19.9127 18.2926 20.0615 18.2182Z" fill="white"/>
<path d="M20.5819 15.7642C20.5819 17.9206 22.0691 18.4411 23.2588 18.4411C24.3742 18.4411 24.8947 18.218 24.8947 18.218L25.1922 16.7309C25.1922 16.7309 24.3742 17.1027 23.5563 17.1027C21.846 17.1027 22.1434 15.8386 22.1434 15.8386H25.2665C25.2665 15.8386 25.4896 14.8719 25.4896 14.4257C25.4896 13.4591 24.9691 12.195 23.2588 12.195C21.7717 12.1206 20.5819 13.8309 20.5819 15.7642ZM23.2588 13.5334C24.0768 13.5334 23.9281 14.5001 23.9281 14.5745H22.2178C22.2922 14.5001 22.4409 13.5334 23.2588 13.5334Z" fill="white"/>
<path d="M32.9981 18.218L33.2955 16.5078C33.2955 16.5078 32.552 16.8796 31.9571 16.8796C30.9161 16.8796 30.3955 16.0616 30.3955 15.0949C30.3955 13.236 31.2878 12.2693 32.4032 12.2693C33.1468 12.2693 33.8161 12.7155 33.8161 12.7155L34.0391 11.0796C34.0391 11.0796 33.1468 10.7078 32.2545 10.7078C30.4699 10.7078 28.7596 12.2693 28.7596 15.1693C28.7596 17.1026 29.652 18.3667 31.5109 18.3667C32.1802 18.4411 32.9981 18.218 32.9981 18.218Z" fill="white"/>
<path d="M11.6574 12.1204C10.6164 12.1204 9.79847 12.4178 9.79847 12.4178L9.5754 13.7563C9.5754 13.7563 10.2446 13.4588 11.2857 13.4588C11.8062 13.4588 12.2523 13.5332 12.2523 13.9793C12.2523 14.2768 12.178 14.3511 12.178 14.3511H11.5087C10.1703 14.3511 8.75745 14.8716 8.75745 16.6563C8.75745 18.0691 9.64975 18.3665 10.2446 18.3665C11.2857 18.3665 11.8062 17.6973 11.8805 17.6973L11.8062 18.2922H13.0703L13.6651 14.0537C13.6651 12.1947 12.178 12.1204 11.6574 12.1204ZM11.9549 15.5409C11.9549 15.764 11.8062 17.0281 10.9139 17.0281C10.4677 17.0281 10.319 16.6563 10.319 16.4332C10.319 16.0614 10.5421 15.5409 11.7318 15.5409C11.8805 15.5409 11.9549 15.5409 11.9549 15.5409Z" fill="white"/>
<path d="M15.1528 18.3668C15.5246 18.3668 17.4579 18.4411 17.4579 16.3591C17.4579 14.4258 15.599 14.7975 15.599 14.054C15.599 13.6822 15.8964 13.5334 16.4169 13.5334C16.64 13.5334 17.4579 13.6078 17.4579 13.6078L17.681 12.195C17.681 12.195 17.1605 12.0463 16.1938 12.0463C15.0784 12.0463 13.8887 12.4924 13.8887 14.054C13.8887 15.8386 15.822 15.6899 15.822 16.3591C15.822 16.8052 15.3015 16.8796 14.9297 16.8796C14.2605 16.8796 13.5169 16.6565 13.5169 16.6565L13.2938 18.0693C13.4425 18.2181 13.8887 18.3668 15.1528 18.3668Z" fill="white"/>
<path d="M45.7855 10.9307L45.4881 13.0127C45.4881 13.0127 44.8932 12.2691 44.0009 12.2691C42.5881 12.2691 41.3983 13.9794 41.3983 15.9871C41.3983 17.2512 41.9932 18.5153 43.3317 18.5153C44.224 18.5153 44.8188 17.9204 44.8188 17.9204L44.7445 18.4409H46.306L47.4214 11.0794L45.7855 10.9307ZM45.0419 14.946C45.0419 15.764 44.6701 16.8794 43.7778 16.8794C43.2573 16.8794 42.9599 16.4332 42.9599 15.6153C42.9599 14.3512 43.4804 13.6076 44.224 13.6076C44.7445 13.6819 45.0419 14.0537 45.0419 14.946Z" fill="white"/>
<path d="M3.25354 18.2924L4.14584 12.7899L4.29456 18.2924H5.33559L7.34328 12.7899L6.52533 18.2924H8.16123L9.42533 10.9309H6.89713L5.33559 15.4668L5.26123 10.9309H3.03046L1.76636 18.2924H3.25354Z" fill="white"/>
<path d="M27.05 18.2925C27.4961 15.7643 27.5705 13.6822 28.6859 14.054C28.8346 13.0874 29.0577 12.6412 29.2064 12.2694H28.909C28.2397 12.2694 27.6448 13.1617 27.6448 13.1617L27.7936 12.3438H26.3064L25.3397 18.2925H27.05Z" fill="white"/>
<path d="M36.5688 12.1201C35.5278 12.1201 34.7098 12.4176 34.7098 12.4176L34.4868 13.756C34.4868 13.756 35.156 13.4586 36.197 13.4586C36.7175 13.4586 37.1637 13.5329 37.1637 13.9791C37.1637 14.2765 37.0893 14.3509 37.0893 14.3509H36.4201C35.0816 14.3509 33.6688 14.8714 33.6688 16.656C33.6688 18.0688 34.5611 18.3663 35.156 18.3663C36.197 18.3663 36.7175 17.697 36.7919 17.697L36.7175 18.2919H38.1304L38.7252 14.0535C38.7252 12.1945 37.0893 12.1201 36.5688 12.1201ZM36.9406 15.5406C36.9406 15.7637 36.7919 17.0278 35.8996 17.0278C35.4534 17.0278 35.3047 16.656 35.3047 16.4329C35.3047 16.0611 35.5278 15.5406 36.7175 15.5406C36.8663 15.5406 36.8663 15.5406 36.9406 15.5406Z" fill="white"/>
<path d="M39.9155 18.2925C40.3616 15.7643 40.436 13.6822 41.5514 14.054C41.7001 13.0874 41.9231 12.6412 42.0719 12.2694H41.7744C41.1052 12.2694 40.5103 13.1617 40.5103 13.1617L40.659 12.3438H39.1719L38.2052 18.2925H39.9155Z" fill="white"/>
</svg>
