<svg width="12" height="18" viewBox="0 0 12 18" fill="none" xmlns="http://www.w3.org/2000/svg">
<path d="M11.3193 11.0769C11.768 10.6555 11.8321 10.0535 11.4475 9.45151C11.127 8.9699 10.5501 8.7291 9.90913 8.8495C9.65274 8.9097 9.39634 9.03011 9.13995 9.21071C7.15291 10.4749 4.46081 10.4147 2.47377 9.1505C2.34558 9.0903 2.21738 9.0301 2.08918 8.9699C1.38411 8.6689 0.67904 8.78931 0.294453 9.39131C-0.154232 9.99332 -0.0901422 10.6555 0.486738 11.1973C0.614934 11.3177 0.74313 11.3779 0.807227 11.4983L0.871329 11.5585C1.7687 12.2207 2.85836 12.6421 4.26852 12.8227L3.43524 13.6054C2.73017 14.2676 1.961 14.99 1.25592 15.6522C1.06363 15.8328 0.807227 16.1338 0.807227 16.5552C0.807227 17.097 1.12772 17.6388 1.7046 17.8796C1.8969 18 2.08919 18 2.28148 18C2.60197 18 2.98656 17.8796 3.24295 17.5786C4.20441 16.6756 4.97359 15.9532 5.74277 15.2308C5.80687 15.1706 5.80686 15.1706 5.80686 15.1706C5.80686 15.1706 5.87096 15.1706 5.87096 15.2308C6.38374 15.7726 6.96063 16.2542 7.47341 16.796C7.7298 17.0368 7.98619 17.2776 8.24258 17.5184C8.56307 17.8194 8.81946 17.9398 9.20405 17.9398C9.78093 18 10.4219 17.6388 10.6783 17.097C10.9347 16.6154 10.8065 16.0134 10.3578 15.6522C9.71683 15.0502 9.07585 14.388 8.37077 13.786L7.28111 12.7625C7.85799 12.7023 8.49897 12.5819 9.07585 12.3411C10.0373 12.0401 10.7424 11.6187 11.3193 11.0769Z" fill="white"/>
<path d="M5.80686 9.3913C8.56307 9.3913 10.8065 7.34448 10.8065 4.75585C10.8065 3.49163 10.2937 2.28763 9.33224 1.38462C8.37077 0.481607 7.15292 0 5.87096 0C3.11475 0 0.935426 2.10702 0.871328 4.63545C0.871328 5.89966 1.38411 7.04347 2.34558 7.94648C3.24295 8.90969 4.46081 9.3913 5.80686 9.3913ZM4.39671 3.37124C4.7813 3.01004 5.29408 2.82943 5.80686 2.82943C6.96062 2.82943 7.7939 3.67224 7.7939 4.69565C7.7939 5.77926 6.89652 6.56187 5.80686 6.56187C4.6531 6.56187 3.81983 5.71906 3.81983 4.69565C3.81983 4.21405 4.01212 3.73244 4.39671 3.37124Z" fill="white"/>
<path d="M11.3193 11.0769C11.768 10.6555 11.8321 10.0535 11.4475 9.45151C11.127 8.9699 10.5501 8.7291 9.90913 8.8495C9.65274 8.9097 9.39634 9.03011 9.13995 9.21071C7.15291 10.4749 4.46081 10.4147 2.47377 9.1505C2.34558 9.0903 2.21738 9.0301 2.08918 8.9699C1.38411 8.6689 0.67904 8.78931 0.294453 9.39131C-0.154232 9.99332 -0.0901422 10.6555 0.486738 11.1973C0.614934 11.3177 0.74313 11.3779 0.807227 11.4983L0.871329 11.5585C1.7687 12.2207 2.85836 12.6421 4.26852 12.8227L3.43524 13.6054C2.73017 14.2676 1.961 14.99 1.25592 15.6522C1.06363 15.8328 0.807227 16.1338 0.807227 16.5552C0.807227 17.097 1.12772 17.6388 1.7046 17.8796C1.8969 18 2.08919 18 2.28148 18C2.60197 18 2.98656 17.8796 3.24295 17.5786C4.20441 16.6756 4.97359 15.9532 5.74277 15.2308C5.80687 15.1706 5.80686 15.1706 5.80686 15.1706C5.80686 15.1706 5.87096 15.1706 5.87096 15.2308C6.38374 15.7726 6.96063 16.2542 7.47341 16.796C7.7298 17.0368 7.98619 17.2776 8.24258 17.5184C8.56307 17.8194 8.81946 17.9398 9.20405 17.9398C9.78093 18 10.4219 17.6388 10.6783 17.097C10.9347 16.6154 10.8065 16.0134 10.3578 15.6522C9.71683 15.0502 9.07585 14.388 8.37077 13.786L7.28111 12.7625C7.85799 12.7023 8.49897 12.5819 9.07585 12.3411C10.0373 12.0401 10.7424 11.6187 11.3193 11.0769Z" fill="white"/>
</svg>
