<svg width="46" height="13" viewBox="0 0 46 13" fill="none" xmlns="http://www.w3.org/2000/svg">
<g clip-path="url(#clip0_3005_169)">
<path d="M16.4204 12.9834H12.3268V5.36232H12.0556C11.2944 7.90326 10.5335 10.4412 9.77137 12.9851H6.66659C5.90653 10.4476 5.14442 7.90368 4.38068 5.35469H4.11888C4.10459 5.98898 4.11439 6.61987 4.11235 7.25076C4.11072 7.88461 4.11235 8.51847 4.11235 9.15233C4.11235 9.78619 4.11235 10.42 4.11235 11.0539C4.11235 11.6873 4.11235 12.3208 4.11235 12.9487C3.9596 13.0067 0.249543 13.0203 0 12.9656V0.0249579C0.0882181 0.0190261 0.173169 0.00885724 0.258119 0.00843354C1.52421 0.00758614 2.7903 0.00758614 4.05599 0.00758614C4.23242 0.00758614 4.40927 0.00207802 4.5853 0.00843354C5.3911 0.0380926 5.91755 0.488487 6.22836 1.22318C6.36967 1.55664 6.46361 1.91255 6.56203 2.26379C7.04723 3.99377 7.52631 5.72543 8.00824 7.45625C8.02662 7.52277 8.05153 7.5876 8.07563 7.65963H8.3656C8.38929 7.58379 8.41584 7.50625 8.43789 7.42744C8.98109 5.50257 9.52224 3.57684 10.0675 1.65282C10.1876 1.22869 10.3754 0.84143 10.6903 0.53001C11.0036 0.220284 11.3805 0.0558881 11.8069 0.0211446C12.0638 -4.04855e-05 12.3228 0.00885724 12.5809 0.00843354C13.7788 0.00758614 14.9766 0.00800984 16.1745 0.00800984H16.4094C16.4572 0.186812 16.4653 12.7436 16.4204 12.9839V12.9834Z" fill="white"/>
<path d="M31.1151 12.9845H26.9431V5.36126H26.6111C26.5817 5.42312 26.5466 5.49049 26.5163 5.5604C25.6497 7.55688 24.7814 9.55294 23.9176 11.5507C23.5888 12.3108 23.0411 12.7892 22.2541 12.9688C22.1753 12.9866 22.0928 12.9947 22.0119 12.9947C20.8006 12.9964 19.5892 12.9959 18.3778 12.9951C18.3117 12.9951 18.2455 12.9879 18.165 12.9828V0.0518634C18.3055 -0.00109927 21.9833 -0.0222843 22.3415 0.0306783C22.3472 0.119656 22.3587 0.214141 22.3587 0.30905C22.3595 2.66102 22.3595 5.01298 22.3595 7.36495V7.64671H22.6646C22.6964 7.5823 22.7356 7.50943 22.7691 7.43443C23.6476 5.45109 24.5282 3.46901 25.4014 1.48313C25.6525 0.911553 26.0091 0.453108 26.5699 0.184906C26.8137 0.067964 27.0649 0.00398515 27.3381 0.00567995C28.5155 0.0120355 29.6926 0.00822216 30.8701 0.00822216C30.9505 0.00822216 31.0306 0.00822216 31.1045 0.00822216C31.1551 0.188295 31.1633 12.7472 31.1155 12.9849L31.1151 12.9845Z" fill="white"/>
<path d="M45.9072 5.36845C45.8222 5.37269 45.7487 5.37904 45.6752 5.37904C43.2055 5.37862 40.7354 5.38413 38.2657 5.37057C37.745 5.3676 37.2189 5.37862 36.7047 5.2388C35.9194 5.02567 35.2259 4.63545 34.6186 4.08506C33.7923 3.3368 33.1952 2.42542 32.853 1.34244C32.7219 0.927213 32.6296 0.502665 32.6055 0.03278C32.6851 0.0293904 32.7623 0.0234586 32.8395 0.0234586C34.6765 0.0213401 36.5136 0.020069 38.3507 0.0183742C39.3782 0.0175268 40.4054 0.0183742 41.433 0.0162557C42.2294 0.0141371 42.9891 0.177686 43.6915 0.571304C44.9458 1.2738 45.6838 2.36695 45.9391 3.81347C46.024 4.29521 46.0244 4.77823 45.937 5.26041C45.9321 5.28752 45.9223 5.31379 45.9072 5.36803V5.36845Z" fill="white" fill-opacity="0.5"/>
<path d="M45.6293 6.20311C45.5129 6.56283 45.3443 6.87468 45.136 7.16237C44.4408 8.12121 43.5039 8.69363 42.3918 8.98005C41.9801 9.08598 41.5615 9.12199 41.138 9.12114C39.7771 9.11818 38.4163 9.1203 37.0554 9.1203C36.9754 9.1203 36.8949 9.1203 36.7936 9.1203V12.9484C36.6303 13.0069 33.0395 13.0192 32.7957 12.9667V6.22515C32.8034 6.2154 32.8075 6.20947 32.8124 6.20481C32.8173 6.20015 32.8226 6.19506 32.8287 6.19379C32.8553 6.18828 32.8818 6.17981 32.9084 6.17981C37.1204 6.17981 41.3324 6.17981 45.5444 6.18066C45.5636 6.18066 45.5828 6.1904 45.6302 6.20311H45.6293Z" fill="white"/>
</g>
<defs>
<clipPath id="clip0_3005_169">
<rect width="46" height="13" fill="white"/>
</clipPath>
</defs>
</svg>
