<svg width="45" height="14" viewBox="0 0 45 14" fill="none" xmlns="http://www.w3.org/2000/svg">
<g clip-path="url(#clip0_3005_177)">
<path d="M44.999 13.7256V13.8068H41.6264C41.4797 13.1233 41.3362 12.4538 41.1918 11.7802H36.5078C36.2537 12.4546 35.9993 13.13 35.7468 13.7995H31.9287C31.9487 13.7478 31.9633 13.7061 31.9811 13.6655C33.4051 10.3944 34.8291 7.12331 36.2537 3.85248C36.626 2.99754 36.9978 2.14207 37.3746 1.28876C37.5229 0.953069 37.7475 0.674769 38.0827 0.490409C38.4136 0.308485 38.7772 0.249197 39.1509 0.247032C40.0889 0.242159 41.0272 0.244595 41.9652 0.244866C41.9967 0.244866 42.0282 0.250822 42.0617 0.25407C42.3758 1.70107 42.6882 3.14211 43.0009 4.58315C43.3251 6.07725 43.6495 7.57135 43.9735 9.06573C44.2687 10.4277 44.563 11.79 44.8594 13.1517C44.9013 13.3439 44.952 13.5342 44.9987 13.7254L44.999 13.7256ZM37.5643 8.99886H40.5893C40.2268 7.30876 39.8666 5.62759 39.501 3.92341C38.8524 5.62298 38.2121 7.30145 37.5643 8.99886Z" fill="white"/>
<path d="M30.0301 0C30.1621 0.0170553 30.2935 0.03763 30.4261 0.0506246C31.1893 0.12426 31.9297 0.290753 32.6477 0.550644C32.6651 0.556871 32.6812 0.566346 32.7166 0.583401C32.5531 1.54933 32.389 2.52094 32.2241 3.49607C31.9632 3.39374 31.715 3.28897 31.4615 3.19855C30.5488 2.87288 29.6052 2.77704 28.641 2.87477C28.2324 2.91619 27.842 3.02611 27.5071 3.27219C27.3118 3.41594 27.1691 3.59516 27.105 3.82689C27.0237 4.12171 27.1165 4.37943 27.3307 4.58247C27.5192 4.76115 27.7269 4.93143 27.954 5.06002C28.4173 5.32262 28.896 5.56004 29.3736 5.798C30.0555 6.13776 30.6991 6.52705 31.2321 7.06741C31.7361 7.57853 32.0691 8.1752 32.1602 8.87825C32.261 9.65522 32.1394 10.4065 31.8059 11.1214C31.3548 12.0887 30.591 12.7625 29.6235 13.2382C28.9379 13.5752 28.2087 13.7845 27.4486 13.8877C27.0642 13.9399 26.6755 13.9635 26.2888 14C26.0252 14 25.7615 14.0003 25.4978 14.0005C24.4458 13.9564 23.4099 13.8148 22.4029 13.5097C22.1947 13.4466 21.9912 13.3684 21.7812 13.2956C21.9532 12.2712 22.1221 11.2641 22.2926 10.2476C22.5374 10.3534 22.7665 10.4541 22.997 10.5518C23.6336 10.8212 24.2885 11.0345 24.9825 11.1122C25.6447 11.1864 26.3083 11.2354 26.9696 11.1014C27.2744 11.0397 27.5648 10.9401 27.8235 10.7703C28.1978 10.525 28.4136 10.1977 28.3734 9.74483C28.3542 9.52988 28.2569 9.34876 28.1139 9.18742C27.9011 8.94729 27.6383 8.76455 27.3552 8.61349C26.9133 8.37796 26.4614 8.16031 26.0164 7.92992C25.3368 7.57772 24.6968 7.17326 24.1728 6.61774C23.4909 5.89492 23.2084 5.0519 23.3223 4.07948C23.4639 2.87315 24.0785 1.93862 25.0756 1.22338C25.8515 0.666783 26.7332 0.339483 27.6777 0.166493C28.0264 0.102603 28.3821 0.0728236 28.7344 0.0262598C28.7544 0.0235526 28.7727 0.00947519 28.7919 0.000812159C29.2047 0.000812159 29.6173 0 30.0301 0Z" fill="white"/>
<path d="M0 0.46027C0.0219512 0.392591 0.043621 0.324911 0.0697936 0.244507C0.115103 0.244507 0.166041 0.244507 0.216698 0.244507C2.08818 0.244507 3.95966 0.244507 5.83086 0.244507C6.10919 0.244507 6.38358 0.274015 6.64812 0.357938C7.16341 0.521182 7.45947 0.878262 7.56923 1.3772C7.70882 2.01122 7.83349 2.64823 7.96379 3.28415C8.14672 4.17617 8.32852 5.06846 8.51145 5.96048C8.60826 6.43289 8.70647 6.90529 8.803 7.3777C8.81116 7.41723 8.80976 7.45837 8.81285 7.49871C8.79456 7.46271 8.77345 7.42778 8.75826 7.39042C8.49006 6.73041 8.14925 6.1064 7.74287 5.51596C6.86989 4.24737 5.75629 3.21214 4.44034 2.37507C4.24615 2.25162 4.04099 2.14415 3.8409 2.02936C3.61829 1.907 3.39991 1.77624 3.17223 1.66335C2.19962 1.18093 1.17861 0.820869 0.122702 0.550962C0.0835835 0.540945 0.0410882 0.544464 0 0.541486C0 0.514414 0 0.487342 0 0.46027Z" fill="white" fill-opacity="0.5"/>
<path d="M3.8411 2.0289C4.0412 2.14368 4.24635 2.25116 4.44054 2.37461C5.75677 3.21167 6.87037 4.24691 7.74307 5.5155C8.14945 6.10621 8.49026 6.72995 8.75846 7.38996C8.77365 7.42732 8.79476 7.46224 8.81305 7.49825C8.9245 8.0137 9.03594 8.52942 9.14739 9.04487C9.17694 9.18131 9.20564 9.31803 9.24195 9.48885C10.438 6.39074 11.6228 3.32267 12.809 0.25H16.6615C16.5919 0.416763 16.5252 0.579195 16.4569 0.740815C14.6388 5.03822 12.8211 9.3359 11.002 13.633C10.9223 13.8209 10.9693 13.789 10.7645 13.7892C9.59204 13.7906 8.41934 13.7898 7.24692 13.7898H7.08228C7.01052 13.5337 6.93932 13.283 6.87009 13.032C5.93575 9.64289 5.0017 6.25402 4.06793 2.86488C3.9911 2.58631 3.91652 2.30747 3.84082 2.02863L3.8411 2.0289Z" fill="white"/>
<path d="M19.5029 13.8006H15.8575C16.6174 9.28151 17.3758 4.77024 18.1354 0.252197H21.7807C21.0214 4.76834 20.2624 9.28232 19.5029 13.8006Z" fill="white"/>
</g>
<defs>
<clipPath id="clip0_3005_177">
<rect width="45" height="14" fill="white"/>
</clipPath>
</defs>
</svg>
