<svg width="18" height="18" viewBox="0 0 18 18" fill="none" xmlns="http://www.w3.org/2000/svg">
<path d="M3.5 6.25C1.98122 6.25 0.75 5.01878 0.75 3.5C0.75 1.98122 1.98122 0.75 3.5 0.75C5.01878 0.75 6.25 1.98122 6.25 3.5C6.25 3.61504 6.24294 3.72842 6.22922 3.83975L12.5909 7.02061C13.0855 6.54347 13.7585 6.25 14.5 6.25C16.0188 6.25 17.25 7.48122 17.25 9C17.25 10.5188 16.0188 11.75 14.5 11.75C13.7585 11.75 13.0855 11.4565 12.5909 10.9794L6.22922 14.1603C6.24294 14.2716 6.25 14.385 6.25 14.5C6.25 16.0188 5.01878 17.25 3.5 17.25C1.98122 17.25 0.75 16.0188 0.75 14.5C0.75 12.9812 1.98122 11.75 3.5 11.75C4.2415 11.75 4.91446 12.0435 5.40906 12.5206L11.7708 9.33975C11.7571 9.22842 11.75 9.11504 11.75 9C11.75 8.88496 11.7571 8.77158 11.7708 8.66025L5.40906 5.47939C4.91446 5.95653 4.2415 6.25 3.5 6.25Z" fill="#7D90DC"/>
</svg>
