<svg width="20" height="19" viewBox="0 0 20 19" fill="none" xmlns="http://www.w3.org/2000/svg"><path d="M10 18.4999L8.55 17.1999C6.86667 15.6832 5.475 14.3749 4.375 13.2749C3.275 12.1749 2.4 11.1874 1.75 10.3124C1.1 9.4374 0.645833 8.63324 0.3875 7.8999C0.129167 7.16657 0 6.41657 0 5.6499C0 4.08324 0.525 2.7749 1.575 1.7249C2.625 0.674902 3.93333 0.149902 5.5 0.149902C6.36667 0.149902 7.19167 0.333236 7.975 0.699902C8.75833 1.06657 9.43333 1.58324 10 2.2499C10.5667 1.58324 11.2417 1.06657 12.025 0.699902C12.8083 0.333236 13.6333 0.149902 14.5 0.149902C16.0667 0.149902 17.375 0.674902 18.425 1.7249C19.475 2.7749 20 4.08324 20 5.6499C20 6.41657 19.8708 7.16657 19.6125 7.8999C19.3542 8.63324 18.9 9.4374 18.25 10.3124C17.6 11.1874 16.725 12.1749 15.625 13.2749C14.525 14.3749 13.1333 15.6832 11.45 17.1999L10 18.4999ZM10 15.7999C11.6 14.3666 12.9167 13.1374 13.95 12.1124C14.9833 11.0874 15.8 10.1957 16.4 9.4374C17 8.67907 17.4167 8.00407 17.65 7.4124C17.8833 6.82074 18 6.23324 18 5.6499C18 4.6499 17.6667 3.81657 17 3.1499C16.3333 2.48324 15.5 2.1499 14.5 2.1499C13.7167 2.1499 12.9917 2.37074 12.325 2.8124C11.6583 3.25407 11.2 3.81657 10.95 4.4999H9.05C8.8 3.81657 8.34167 3.25407 7.675 2.8124C7.00833 2.37074 6.28333 2.1499 5.5 2.1499C4.5 2.1499 3.66667 2.48324 3 3.1499C2.33333 3.81657 2 4.6499 2 5.6499C2 6.23324 2.11667 6.82074 2.35 7.4124C2.58333 8.00407 3 8.67907 3.6 9.4374C4.2 10.1957 5.01667 11.0874 6.05 12.1124C7.08333 13.1374 8.4 14.3666 10 15.7999Z" fill="#0B1547"/></svg>