<svg width="18" height="16" viewBox="0 0 18 16" fill="none" xmlns="http://www.w3.org/2000/svg"><path d="M7.98805 2.6059L8.74999 3.5023L9.51193 2.6059C9.8924 2.15828 10.3401 1.81632 10.8614 1.57228C11.3812 1.32897 11.924 1.20825 12.5 1.20825C13.5566 1.20825 14.3874 1.55157 15.0637 2.22786C15.74 2.90415 16.0833 3.73502 16.0833 4.79159C16.0833 5.31569 15.9954 5.82842 15.8172 6.33433C15.6456 6.82138 15.3262 7.40232 14.8222 8.08068C14.3191 8.75799 13.6258 9.54324 12.7304 10.4386C11.8304 11.3387 10.6847 12.4161 9.29002 13.6727C9.28967 13.673 9.28931 13.6733 9.28895 13.6737L8.74999 14.1569L8.21103 13.6737C8.21073 13.6734 8.21044 13.6731 8.21015 13.6729C6.81542 12.4162 5.66967 11.3387 4.7696 10.4386C3.87419 9.54324 3.18088 8.75799 2.67773 8.08068C2.17381 7.40232 1.85434 6.82138 1.68276 6.33433C1.50454 5.82842 1.41666 5.31569 1.41666 4.79159C1.41666 3.73502 1.75997 2.90415 2.43626 2.22786C3.11256 1.55157 3.94342 1.20825 4.99999 1.20825C5.57601 1.20825 6.11875 1.32897 6.63855 1.57228C7.15991 1.81632 7.60758 2.15828 7.98805 2.6059Z" fill="#fff" stroke="#fff" stroke-width="2"/></svg>