<svg width="24" height="19" viewBox="0 0 24 19" fill="none" xmlns="http://www.w3.org/2000/svg"><path fill-rule="evenodd" clip-rule="evenodd" d="M6.95938 0.854308C6.83712 0.893326 6.63012 1.0176 6.49939 1.13042C6.00946 1.55326 0.0583805 7.00511 -0.0681919 7.14708C-0.30468 7.41232 -0.396196 7.6725 -0.396196 8.07962C-0.396196 8.52368 -0.293156 8.77256 -0.000547886 9.03525C0.288235 9.29442 0.540072 9.39204 0.923276 9.39329L1.25012 9.39435V13.7003V18.0062H0.523803C-0.137967 18.0062 -0.211131 18.0148 -0.299354 18.1024C-0.435852 18.2381 -0.432947 18.5837 -0.294269 18.7084C-0.194619 18.798 0.0782811 18.8 11.9996 18.8C23.9209 18.8 24.1938 18.798 24.2934 18.7084C24.4398 18.5768 24.4343 18.2518 24.2833 18.1108C24.1883 18.0221 24.1145 18.0062 23.7991 18.0062H23.4269V13.128V8.24988L23.819 8.23218C24.2842 8.2112 24.3959 8.12518 24.3945 7.78932C24.3932 7.48939 23.0716 3.10229 22.9445 2.976L22.8432 2.87531L16.5329 2.86275L10.2226 2.85019L9.21144 1.92896C8.57229 1.34668 8.12091 0.972853 7.98446 0.912907C7.70366 0.789502 7.24473 0.763234 6.95938 0.854308ZM7.74899 1.73267C8.19712 2.07546 14.2752 7.73817 14.3261 7.86038C14.5015 8.28111 14.0627 8.69635 13.6388 8.51089C13.5495 8.47182 12.1478 7.21487 10.5239 5.7177C7.71233 3.12548 7.56276 2.99558 7.3898 2.99558C7.2212 2.99558 7.13782 3.06039 6.22653 3.89945C5.68659 4.39658 4.32286 5.65227 3.19601 6.68988L1.14717 8.57646H0.91519C0.536392 8.57646 0.309346 8.28847 0.410159 7.93577C0.443666 7.81842 1.21157 7.08208 3.69673 4.7843C5.48032 3.1352 7.00495 1.74427 7.08484 1.69332C7.29528 1.55918 7.54121 1.57376 7.74899 1.73267ZM22.4296 3.92172C22.4708 4.06062 22.7204 4.89958 22.9844 5.78602L23.4645 7.39774L19.2694 7.41064L15.0743 7.42353L14.9374 7.25538C14.862 7.16291 13.9741 6.32636 12.9642 5.39637C11.9543 4.46639 11.128 3.69733 11.128 3.68732C11.128 3.67732 13.654 3.66914 16.7414 3.66914H22.3548L22.4296 3.92172ZM10.1052 6.39987L12.7259 8.81788V13.4121V18.0062H11.9762H11.2265L11.2136 14.1694L11.2006 10.3325L11.064 10.0561C10.95 9.82528 10.7197 9.5827 9.67115 8.58868C8.30026 7.28901 8.06663 7.12009 7.56334 7.06448C7.22778 7.02738 6.81543 7.12048 6.54011 7.29541C6.33049 7.42863 4.04226 9.57544 3.87216 9.79848C3.80965 9.88051 3.7116 10.045 3.65427 10.1641C3.55079 10.3793 3.55002 10.4046 3.5366 14.1694L3.52309 17.9581H2.79818H2.07327V13.415V8.87196L4.74074 6.41228C6.20779 5.0595 7.42534 3.9592 7.44631 3.96723C7.46727 3.97527 8.66375 5.06994 10.1052 6.39987ZM7.77504 8.005C7.88824 8.08419 10.2564 10.3104 10.2564 10.3377C10.2564 10.3481 8.95995 10.3566 7.37537 10.3566C5.79079 10.3566 4.49626 10.3404 4.49858 10.3205C4.50396 10.2751 6.89489 8.03901 7.00238 7.97892C7.22313 7.85542 7.5783 7.8674 7.77504 8.005ZM22.5554 11.2827C22.5554 12.9564 22.5699 15.1539 22.5875 16.166L22.6195 18.0062H18.0842H13.549V13.7003V9.39435L13.8517 9.39387C14.458 9.39295 14.956 9.02365 15.1069 8.46316L15.167 8.23968H18.8612H22.5553L22.5554 11.2827ZM14.9201 10.4045C14.8619 10.4281 14.7911 10.4905 14.7627 10.5431C14.7278 10.608 14.7111 11.616 14.7111 13.6656C14.7111 16.6815 14.7115 16.6926 14.8131 16.784C14.9111 16.8721 15.0359 16.8756 18.1006 16.8756C21.1653 16.8756 21.2901 16.8721 21.3882 16.784C21.4897 16.6926 21.4901 16.6822 21.4901 13.6281C21.4901 10.5743 21.4897 10.5636 21.3882 10.4723C21.2904 10.3843 21.159 10.3802 18.1561 10.3711C16.4096 10.3658 14.9791 10.3805 14.9201 10.4045ZM10.4501 14.5903V18.0062H7.39958H4.34906V14.5903V11.1745H7.39958H10.4501V14.5903ZM17.6648 12.2088V13.2432H16.5754H15.4859V12.2088V11.1745H16.5754H17.6648V12.2088ZM20.6669 12.2088V13.2432H19.5775H18.488V12.2088V11.1745H19.5775H20.6669V12.2088ZM9.06792 13.8425C8.9538 13.9558 8.94905 13.9858 8.94905 14.5903C8.94905 15.1949 8.9538 15.2249 9.06792 15.3382C9.14995 15.4198 9.24059 15.4563 9.36063 15.4563C9.48066 15.4563 9.57131 15.4198 9.65333 15.3382C9.76746 15.2249 9.77221 15.1949 9.77221 14.5903C9.77221 13.9858 9.76746 13.9558 9.65333 13.8425C9.49166 13.6818 9.2296 13.6818 9.06792 13.8425ZM17.6648 15.0474V16.0818H16.5754H15.4859V15.0474V14.013H16.5754H17.6648V15.0474ZM20.6669 15.0474V16.0818H19.5775H18.488V15.0474V14.013H19.5775H20.6669V15.0474Z" fill="#0B1547"/></svg>