<svg width="17" height="17" viewBox="0 0 17 17" fill="none" xmlns="http://www.w3.org/2000/svg"><path d="M16.4481 9.76948C16.5032 9.32792 16.5584 8.94156 16.5584 8.5C16.5584 4.08442 12.9708 0.441558 8.5 0.441558C8.05844 0.441558 7.67208 0.496753 7.23052 0.551948C6.51299 0.165584 5.74026 0 4.96753 0C2.20779 0 0 2.20779 0 4.96753C0 5.74026 0.165584 6.51299 0.551948 7.23052C0.496753 7.67208 0.441558 8.05844 0.441558 8.5C0.441558 12.9156 4.02922 16.5584 8.5 16.5584C8.94156 16.5584 9.32792 16.5032 9.76948 16.4481C10.487 16.7792 11.2597 17 12.0325 17C14.7922 17 17 14.7922 17 12.0325C17 11.2597 16.7792 10.487 16.4481 9.76948ZM11.8669 11.4253C11.7013 11.7565 11.4805 12.0325 11.1494 12.2532C10.8182 12.474 10.487 12.6396 10.0455 12.75C9.6039 12.8604 9.10714 12.9156 8.55519 12.9156C7.3961 12.9156 6.45779 12.6396 5.79545 12.1429C5.40909 11.8117 5.07792 11.4253 4.91234 10.9286C4.69156 10.487 5.07792 9.93507 5.62987 9.93507H5.79545C6.12662 9.93507 6.45779 10.1558 6.56818 10.4318C6.67857 10.7078 6.84416 10.9286 7.06494 11.0942C7.3961 11.3701 7.89286 11.4805 8.5 11.4805C9.05195 11.4805 9.49351 11.3701 9.82468 11.2045C10.1558 11.039 10.3214 10.7078 10.3214 10.3766C10.3214 10.211 10.2662 10.1006 10.211 9.99026C10.1558 9.87987 9.99026 9.76948 9.87987 9.71429C9.71429 9.6039 9.5487 9.5487 9.27273 9.49351C9.05195 9.43831 8.77597 9.32792 8.44481 9.27273L8.11364 9.16234C7.72727 9.05195 7.28571 8.94156 6.95455 8.83117C6.56818 8.72078 6.23701 8.55519 5.96104 8.38961C5.68507 8.22403 5.46429 8.00325 5.2987 7.67208C5.13312 7.3961 5.07792 7.00974 5.07792 6.56818C5.07792 6.12662 5.18831 5.74026 5.3539 5.40909C5.51948 5.07792 5.79545 4.80195 6.07143 4.63636C6.4026 4.41558 6.73377 4.25 7.17532 4.19481C7.56169 4.08442 8.00325 4.02922 8.5 4.02922C9.05195 4.02922 9.49351 4.08442 9.93507 4.19481C10.3766 4.30519 10.7078 4.47078 11.039 4.74675C11.3701 4.96753 11.5909 5.24351 11.7565 5.62987C12.0325 6.12662 11.6461 6.78896 11.039 6.78896H10.8734C10.5422 6.78896 10.2662 6.62338 10.1006 6.3474C9.99026 6.18182 9.87987 6.01623 9.71429 5.85065C9.43831 5.62987 8.99675 5.51948 8.5 5.51948C8.00325 5.51948 7.61688 5.62987 7.34091 5.79545C7.06494 5.96104 6.95455 6.23701 6.95455 6.51299C6.95455 6.67857 7.00974 6.78896 7.06494 6.89935C7.12013 7.00974 7.23052 7.12013 7.3961 7.17532C7.56169 7.23052 7.72727 7.34091 7.94805 7.3961C8.16883 7.4513 8.44481 7.50649 8.77597 7.61688C9.10714 7.67208 9.38312 7.78247 9.71429 7.83766C9.99026 7.89286 10.2662 8.00325 10.5422 8.05844C10.8182 8.16883 11.039 8.27922 11.2597 8.38961C11.4805 8.5 11.6461 8.66558 11.8117 8.83117C11.9773 8.99675 12.0877 9.21753 12.1429 9.43831C12.2532 9.65909 12.2532 9.99026 12.2532 10.3214C12.1429 10.7078 12.0325 11.0942 11.8669 11.4253Z" fill="#fff"/></svg>