<svg width="20" height="21" viewBox="0 0 20 21" fill="none" xmlns="http://www.w3.org/2000/svg"><path d="M9.19314 19.142C4.18518 19.142 0.10791 15.0647 0.10791 10.0568C0.10791 5.04883 4.18518 0.971558 9.19314 0.971558C14.2011 0.971558 18.2784 5.04883 18.2784 10.0568C18.2784 15.0647 14.2011 19.142 9.19314 19.142ZM9.19314 2.3011C4.912 2.3011 1.43746 5.78451 1.43746 10.0568C1.43746 14.3291 4.912 17.8125 9.19314 17.8125C13.4743 17.8125 16.9488 14.3291 16.9488 10.0568C16.9488 5.78451 13.4743 2.3011 9.19314 2.3011Z" fill="#231815"/><path d="M18.4999 20.0283C18.3315 20.0283 18.163 19.9662 18.0301 19.8333L16.2574 18.0606C16.0003 17.8035 16.0003 17.3781 16.2574 17.121C16.5144 16.864 16.9399 16.864 17.1969 17.121L18.9696 18.8937C19.2267 19.1508 19.2267 19.5762 18.9696 19.8333C18.8367 19.9662 18.6683 20.0283 18.4999 20.0283Z" fill="#231815"/></svg>