<svg width="14" height="14" viewBox="0 0 14 14" fill="none" xmlns="http://www.w3.org/2000/svg">
<path d="M10.3667 7.66668C10.8667 7.66668 11.3067 7.39334 11.5333 6.98001L13.92 2.65334C14.1667 2.21334 13.8467 1.66668 13.34 1.66668H3.47332L2.84666 0.333344H0.666656V1.66668H1.99999L4.39999 6.72668L3.49999 8.35334C3.01332 9.24668 3.65332 10.3333 4.66666 10.3333H12.6667V9.00001H4.66666L5.39999 7.66668H10.3667ZM4.10666 3.00001H12.2067L10.3667 6.33334H5.68666L4.10666 3.00001ZM4.66666 11C3.93332 11 3.33999 11.6 3.33999 12.3333C3.33999 13.0667 3.93332 13.6667 4.66666 13.6667C5.39999 13.6667 5.99999 13.0667 5.99999 12.3333C5.99999 11.6 5.39999 11 4.66666 11ZM11.3333 11C10.6 11 10.0067 11.6 10.0067 12.3333C10.0067 13.0667 10.6 13.6667 11.3333 13.6667C12.0667 13.6667 12.6667 13.0667 12.6667 12.3333C12.6667 11.6 12.0667 11 11.3333 11Z" fill="white"/>
</svg>
