<svg width="23" height="24" viewBox="0 0 23 24" fill="none" xmlns="http://www.w3.org/2000/svg">
<path fill-rule="evenodd" clip-rule="evenodd" d="M7.81606 0.480343C7.72775 0.523842 7.59726 0.63573 7.52606 0.72901C7.40373 0.889181 7.39566 0.932921 7.38068 1.51503C7.35864 2.37238 7.30688 2.33232 8.43568 2.33232H9.30567V3.10562C9.30567 3.84669 9.30165 3.87893 9.209 3.87893C9.15584 3.87893 9.06884 3.92243 9.01567 3.97559C8.92824 4.06303 8.91901 4.13668 8.91901 4.74547V5.41868L8.65255 5.47402C7.78421 5.65425 7.0162 6.35994 6.70958 7.25935C6.60388 7.56949 6.60151 7.62512 6.6003 9.84099C6.59909 11.9783 6.59431 12.1037 6.51446 12.0716C6.46792 12.0529 6.27947 12.0181 6.09566 11.9943C5.68749 11.9414 5.55569 11.8609 5.49006 11.6245C5.41103 11.3399 5.42413 11.2254 5.53573 11.2254C5.5889 11.2254 5.67589 11.1819 5.72906 11.1287C5.8193 11.0385 5.82572 10.9676 5.82572 10.0654C5.82572 9.16318 5.8193 9.09233 5.72906 9.00209C5.63597 8.90901 5.56797 8.90543 3.89242 8.90543C2.21688 8.90543 2.14888 8.90901 2.05579 9.00209C1.96555 9.09233 1.95912 9.16318 1.95912 10.0654C1.95912 10.9676 1.96555 11.0385 2.05579 11.1287C2.10895 11.1819 2.1989 11.2254 2.25569 11.2254C2.35018 11.2254 2.35642 11.2437 2.32925 11.4418C2.27483 11.839 2.16077 11.9337 1.66154 11.9964C0.995855 12.08 0.453806 12.4664 0.178552 13.0535L0.0499878 13.3278V17.6051V21.8825L0.178552 22.1568C0.358591 22.5408 0.655594 22.8441 1.03384 23.0304L1.35289 23.1874L3.86719 23.1832C5.25008 23.1809 6.45767 23.1774 6.55071 23.1754C6.64375 23.1734 9.86376 23.1809 13.7063 23.192C19.5397 23.2089 20.7076 23.2014 20.7826 23.1466C20.8437 23.1019 20.929 22.859 21.0498 22.3851L21.2274 21.6892L21.5779 21.665C22.0762 21.6306 22.0655 21.6563 22.0655 20.4958C22.0655 19.2844 22.1051 19.3451 21.314 19.3451H20.7558L20.9103 19.1207C21.4075 18.398 21.4278 17.2804 20.9569 16.5467C20.7727 16.2595 20.4249 15.927 20.1314 15.7572C19.6647 15.4872 19.5751 15.4785 17.2476 15.4785H15.1056L15.1043 11.5274L15.1031 7.57631L14.995 7.25935C14.6862 6.35347 13.924 5.65503 13.0452 5.47257L12.7856 5.41868V4.74547C12.7856 4.13668 12.7764 4.06303 12.6889 3.97559C12.6358 3.92243 12.5488 3.87893 12.4956 3.87893C12.4008 3.87893 12.3989 3.84669 12.3989 2.23565C12.3989 0.656802 12.3952 0.588606 12.3023 0.495713C12.2085 0.401949 12.142 0.399098 10.0911 0.400161C8.2323 0.401128 7.95709 0.410794 7.81606 0.480343ZM9.30567 1.36568V1.55901H8.72568H8.14569V1.42368C8.14569 1.20005 8.21606 1.17236 8.78368 1.17236H9.30567V1.36568ZM11.6256 2.52564V3.87893H10.8523H10.079V2.52564V1.17236H10.8523H11.6256V2.52564ZM12.0123 5.03889V5.42555H10.8523H9.69233V5.03889V4.65224H10.8523H12.0123V5.03889ZM12.9995 6.309C13.536 6.48662 14.0409 6.98797 14.224 7.52488C14.3014 7.75185 14.3085 8.30326 14.3211 15.104L14.3347 22.4383H10.9045H7.4744L7.6046 22.1604L7.73486 21.8825L7.74844 19.8405L7.76202 17.7985H9.79049C11.7545 17.7985 11.8221 17.7954 11.9156 17.7018C12.0104 17.607 12.0123 17.5407 12.0123 14.3186C12.0123 11.0964 12.0104 11.0301 11.9156 10.9354C11.8218 10.8415 11.7545 10.8387 9.59566 10.8387H7.37237L7.37333 9.52166C7.37386 8.79726 7.396 8.05237 7.42258 7.8663C7.54303 7.02291 8.17169 6.37604 8.99281 6.25067C9.15158 6.2264 10.0645 6.21185 11.0215 6.21838C12.4784 6.22824 12.8002 6.24298 12.9995 6.309ZM16.8076 6.30204C16.458 6.43635 16.1113 6.79014 15.9751 7.15152C15.834 7.52566 15.8548 8.14648 16.019 8.46382C16.4955 9.38483 17.8018 9.58782 18.5349 8.85478C19.3072 8.08244 19.0287 6.67342 18.0297 6.29967C17.673 6.16623 17.1584 6.16724 16.8076 6.30204ZM17.8005 7.11691C18.4293 7.50023 18.1605 8.47011 17.4255 8.47011C16.6906 8.47011 16.4218 7.50023 17.0505 7.11691C17.2573 6.99082 17.5938 6.99082 17.8005 7.11691ZM5.0524 10.0654V10.452H3.89242H2.73244V10.0654V9.67874H3.89242H5.0524V10.0654ZM20.7846 9.77057C20.3649 9.96534 20.1315 10.3518 20.1332 10.8492C20.1356 11.5364 20.6018 11.9987 21.2921 11.9987C21.9879 11.9987 22.45 11.5358 22.45 10.8387C22.45 10.3349 22.1967 9.93378 21.7649 9.7537C21.5168 9.65017 21.0259 9.65863 20.7846 9.77057ZM21.5338 10.597C21.5875 10.6507 21.6305 10.7581 21.6305 10.8387C21.6305 10.9193 21.5875 11.0267 21.5338 11.0804C21.4801 11.1341 21.3727 11.177 21.2921 11.177C21.2116 11.177 21.1042 11.1341 21.0505 11.0804C20.9968 11.0267 20.9538 10.9193 20.9538 10.8387C20.9538 10.7581 20.9968 10.6507 21.0505 10.597C21.1042 10.5433 21.2116 10.5004 21.2921 10.5004C21.3727 10.5004 21.4801 10.5433 21.5338 10.597ZM4.66574 11.4977C4.66574 11.8656 4.74559 12.1066 4.94453 12.339C5.16806 12.6002 5.41345 12.7163 5.91224 12.797C6.42215 12.8796 6.65912 13.0276 6.83805 13.3752L6.96154 13.6151L6.97531 17.4267C6.98426 19.9086 6.97159 21.3339 6.93897 21.5121C6.87348 21.87 6.68363 22.1356 6.38252 22.2907L6.14274 22.4141L4.0771 22.429C1.83215 22.4453 1.57077 22.4248 1.26096 22.2082C0.946508 21.9884 0.839065 21.715 0.81021 21.0612L0.785657 20.505H2.62906C4.40799 20.505 4.4758 20.5017 4.56908 20.4084C4.66362 20.3138 4.66574 20.2473 4.66574 17.4118C4.66574 14.5763 4.66362 14.5098 4.56908 14.4152C4.4758 14.322 4.40799 14.3186 2.62867 14.3186H0.784981L0.8163 13.944C0.877151 13.2171 1.15729 12.9129 1.87261 12.797C2.10204 12.7599 2.37304 12.6867 2.47483 12.6344C2.88049 12.4257 3.1163 12.0199 3.11804 11.5274L3.1191 11.2254H3.89242H4.66574V11.4977ZM11.239 14.3186V17.0252H9.50112H7.76328L7.74907 15.1523L7.73486 13.2794L7.55361 12.9516C7.37662 12.6313 7.37237 12.6118 7.37237 12.1178V11.612H9.30567H11.239V14.3186ZM16.8076 11.7152C16.458 11.8495 16.1113 12.2033 15.9751 12.5647C15.834 12.9388 15.8548 13.5596 16.019 13.877C16.2884 14.3977 16.8105 14.7052 17.4255 14.7052C18.3357 14.7052 18.9722 14.0688 18.9722 13.1586C18.9722 12.2407 18.3327 11.6078 17.4116 11.6145C17.1826 11.6162 16.9754 11.6507 16.8076 11.7152ZM17.8005 12.5301C18.4293 12.9134 18.1605 13.8833 17.4255 13.8833C17.0132 13.8833 16.7009 13.571 16.7009 13.1586C16.7009 12.7463 17.0132 12.434 17.4255 12.434C17.5575 12.434 17.705 12.4718 17.8005 12.5301ZM3.89242 17.4118V19.7317H2.34578H0.799142V17.4118V15.0919H2.34578H3.89242V17.4118ZM19.1593 16.3025C19.6931 16.3892 20.0574 16.6373 20.3039 17.0822C20.4335 17.3162 20.4463 17.3805 20.4463 17.7985C20.4463 18.2173 20.4337 18.2804 20.3027 18.5169C20.158 18.7782 19.8968 19.0269 19.619 19.1678C19.3337 19.3125 18.8591 19.3444 16.9785 19.3447L15.1056 19.3451V17.7985V16.2518L16.9785 16.2522C18.035 16.2524 18.9856 16.2744 19.1593 16.3025ZM18.2275 16.78C17.983 16.9742 17.6904 17.0252 16.819 17.0252C16.1366 17.0252 16.0639 17.0335 15.9756 17.1218C15.8426 17.2548 15.8444 17.5706 15.9789 17.7051C16.0749 17.8011 16.1209 17.8046 17.1268 17.7897L18.1747 17.7743L18.4799 17.6089C18.8551 17.4054 18.9722 17.265 18.9722 17.0186C18.9722 16.6314 18.5747 16.504 18.2275 16.78ZM12.8823 17.1218C12.8017 17.2024 12.7856 17.2829 12.7856 17.6051C12.7856 18.0714 12.8614 18.1851 13.1723 18.1851C13.4831 18.1851 13.5589 18.0714 13.5589 17.6051C13.5589 17.1389 13.4831 17.0252 13.1723 17.0252C13.0434 17.0252 12.9467 17.0574 12.8823 17.1218ZM12.8823 19.0551C12.7937 19.1437 12.7856 19.2162 12.7856 19.9251C12.7856 20.6339 12.7937 20.7064 12.8823 20.795C12.9467 20.8595 13.0434 20.8917 13.1723 20.8917C13.3012 20.8917 13.3978 20.8595 13.4623 20.795C13.5509 20.7064 13.5589 20.6339 13.5589 19.9251C13.5589 19.2162 13.5509 19.1437 13.4623 19.0551C13.3978 18.9907 13.3012 18.9584 13.1723 18.9584C13.0434 18.9584 12.9467 18.9907 12.8823 19.0551ZM21.2921 20.505V20.8917H18.1989H15.1056V20.505V20.1184H18.1989H21.2921V20.505ZM20.3727 21.7012C20.3721 21.7212 20.3326 21.8897 20.2851 22.0758L20.1985 22.4141L17.652 22.4267L15.1056 22.4392V22.0521V21.665H17.7397C19.1885 21.665 20.3733 21.6813 20.3727 21.7012Z" fill="#0B1547"/>
</svg>
